<svg height="512" viewBox="0 0 512 512" width="512" xmlns="http://www.w3.org/2000/svg"><path d="m398 0c38.961106 0 73.357256 19.5449017 93.91858 49.364836l-112.88158 112.883164-294.6872751 294.68743c14.4968158 9.270639 31.6496891 14.753169 50.0627391 15.051709l1.587536.012861h240c52.489143 0 95.139383-42.125349 95.987139-94.412464l.012861-1.587536v-230.349l39.719099-39.716477c.186226 2.664296.280901 5.35383.280901 8.065477v284c0 62.960461-51.039539 114-114 114h-284c-38.4461342 0-72.4471899-19.031643-93.096037-48.1878l407.958587-407.9594761c-14.748866-9.7474928-32.346048-15.5329583-51.275014-15.8398626l-1.587536-.0128613h-240c-52.4891426 0-95.1393829 42.1253488-95.9871387 94.412464l-.0128613 1.587536v232.347l-39.57423084 39.574647c-.28189456-3.269709-.42576916-6.578876-.42576916-9.921647v-284c0-62.9604615 51.0395385-114 114-114z" fill="#474540" fill-rule="evenodd"/></svg>