<?xml version="1.0" encoding="UTF-8"?>
<svg width="109px" height="85px" viewBox="0 0 109 85" version="1.1" xmlns="http://www.w3.org/2000/svg" xmlns:xlink="http://www.w3.org/1999/xlink">
    <title>email</title>
    <g id="Page-1" stroke="none" stroke-width="1" fill="none" fill-rule="evenodd">
        <g id="email" fill="#000000" fill-rule="nonzero">
            <path d="M15.7832,84.88477 L94.396,84.88477 C103.186,84.88477 108.264,79.80664 108.264,69.74805 L108.264,15.8418 C108.264,5.832 103.137,0.7539 92.932,0.7539 L14.3184,0.7539 C5.5293,0.7539 0.4512,5.7832 0.4512,15.8418 L0.4512,69.74805 C0.4512,79.85547 5.5781,84.88477 15.7832,84.88477 Z M48.5469,45.2852 L11.6816,8.9082 C12.7559,8.4688 14.0254,8.2246 15.4902,8.2246 L93.225,8.2246 C94.738,8.2246 96.057,8.4688 97.131,9.0059 L60.3633,45.2852 C58.2637,47.3848 56.3594,48.3125 54.4551,48.3125 C52.502,48.3125 50.5977,47.3848 48.5469,45.2852 Z M7.9219,69.74805 L7.9219,15.8418 C7.9219,15.5 7.9219,15.6465 7.9219,15.3535 L35.998,42.8926 L7.9707,70.57812 C7.9219,70.33398 7.9219,70.04102 7.9219,69.74805 Z M100.793,15.8906 L100.793,69.79688 C100.793,69.99219 100.793,70.23633 100.793,70.43164 L72.9121,42.8926 L100.793,15.5 C100.793,15.8906 100.793,15.8906 100.793,15.8906 Z M15.4902,77.414062 C14.123,77.414062 12.9023,77.21875 11.9258,76.7793 L41.125,47.9219 L44.2988,51.0469 C47.7168,54.416 50.9883,55.832 54.4551,55.832 C57.873,55.832 61.1934,54.416 64.6113,51.0469 L67.7852,47.9219 L96.936,76.73047 C95.861,77.21875 94.641,77.414062 93.225,77.414062 L15.4902,77.414062 Z" id="Shape"></path>
        </g>
    </g>
</svg>