<?xml version="1.0" encoding="UTF-8"?>
<svg width="100px" height="98px" viewBox="0 0 100 98" version="1.1" xmlns="http://www.w3.org/2000/svg" xmlns:xlink="http://www.w3.org/1999/xlink">
    <title>github</title>
    <g id="Page-1" stroke="none" stroke-width="1" fill="none" fill-rule="evenodd">
        <path d="M49.9953958,0 C22.3886553,0 0,22.3855858 0,50.0015347 C0,72.0924522 14.3251788,90.8315172 34.1938058,97.4431382 C36.6954173,97.9035575 37.6070475,96.3596182 37.6070475,95.0336106 C37.6070475,93.8487983 37.564075,90.7025998 37.5395193,86.5312011 C23.6317873,89.5515516 20.6973817,79.8274962 20.6973817,79.8274962 C18.4229105,74.0507689 15.1447251,72.5129685 15.1447251,72.5129685 C10.6049909,69.4128119 15.4885049,69.4742012 15.4885049,69.4742012 C20.5070751,69.8271893 23.1468124,74.6278277 23.1468124,74.6278277 C27.6067405,82.2677185 34.8506707,80.0607753 37.6991313,78.7808097 C38.1534117,75.5517358 39.4456552,73.3478621 40.872955,72.0985911 C29.7707112,70.8370423 18.0975475,66.5459345 18.0975475,47.3863532 C18.0975475,41.9288499 20.0466558,37.4627828 23.2450351,33.9697351 C22.7293655,32.7051168 21.0135363,27.6190184 23.7361491,20.7372848 C23.7361491,20.7372848 27.9321035,19.3928604 37.484269,25.8632862 C41.4715,24.7521409 45.75033,24.1996378 50.0015347,24.1781516 C54.24967,24.1996378 58.5254305,24.7521409 62.5188005,25.8632862 C72.064827,19.3928604 76.2546426,20.7372848 76.2546426,20.7372848 C78.9833942,27.6190184 77.267565,32.7051168 76.7549649,33.9697351 C79.9594831,37.4627828 81.8932441,41.9288499 81.8932441,47.3863532 C81.8932441,66.5950459 70.2016636,70.821695 59.0656558,72.0586881 C60.8582216,73.6026275 62.4574112,76.6536726 62.4574112,81.3192547 C62.4574112,88.0014733 62.396022,93.3945179 62.396022,95.0336106 C62.396022,96.371896 63.2984438,97.9281132 65.8338193,97.4400688 C85.6870991,90.8131005 100,72.0863133 100,50.0015347 C100,22.3855858 77.6113447,0 49.9953958,0" id="github" fill="#000000"></path>
    </g>
</svg>
