<?xml version="1.0" encoding="UTF-8"?>
<svg width="100px" height="100px" viewBox="0 0 100 100" version="1.1" xmlns="http://www.w3.org/2000/svg" xmlns:xlink="http://www.w3.org/1999/xlink">
    <title>instagram</title>
    <defs>
        <polygon id="path-1" points="0 0.031547619 99.9684524 0.031547619 99.9684524 99.9880952 0 99.9880952"></polygon>
    </defs>
    <g id="Page-1" stroke="none" stroke-width="1" fill="none" fill-rule="evenodd">
        <g id="instagram">
            <g id="Group-3">
                <mask id="mask-2" fill="white">
                    <use xlink:href="#path-1"></use>
                </mask>
                <g id="Clip-2"></g>
                <path d="M49.9843254,0.031547619 C36.4093254,0.031547619 34.7071429,0.0890873016 29.3757937,0.33234127 C24.0555556,0.575 20.4220238,1.42003968 17.2426587,2.65575397 C13.955754,3.93293651 11.168254,5.64206349 8.38928571,8.42083333 C5.61051587,11.1998016 3.90138889,13.9873016 2.62420635,17.2742063 C1.38849206,20.4535714 0.543452381,24.0871032 0.300793651,29.4073413 C0.0575396825,34.7386905 0,36.440873 0,50.015873 C0,63.5906746 0.0575396825,65.2928571 0.300793651,70.6242063 C0.543452381,75.9444444 1.38849206,79.5779762 2.62420635,82.7573413 C3.90138889,86.044246 5.61051587,88.831746 8.38928571,91.6107143 C11.168254,94.3894841 13.955754,96.0986111 17.2426587,97.3759921 C20.4220238,98.6115079 24.0555556,99.4565476 29.3757937,99.6992063 C34.7071429,99.9424603 36.4093254,100 49.9843254,100 C63.559127,100 65.2613095,99.9424603 70.5926587,99.6992063 C75.9128968,99.4565476 79.5464286,98.6115079 82.7257937,97.3759921 C86.0126984,96.0986111 88.8001984,94.3894841 91.5791667,91.6107143 C94.3579365,88.831746 96.0670635,86.044246 97.3444444,82.7573413 C98.5799603,79.5779762 99.425,75.9444444 99.6676587,70.6242063 C99.9109127,65.2928571 99.9684524,63.5906746 99.9684524,50.015873 C99.9684524,36.440873 99.9109127,34.7386905 99.6676587,29.4073413 C99.425,24.0871032 98.5799603,20.4535714 97.3444444,17.2742063 C96.0670635,13.9873016 94.3579365,11.1998016 91.5791667,8.42083333 C88.8001984,5.64206349 86.0126984,3.93293651 82.7257937,2.65575397 C79.5464286,1.42003968 75.9128968,0.575 70.5926587,0.33234127 C65.2613095,0.0890873016 63.559127,0.031547619 49.9843254,0.031547619 Z M49.9843254,9.03769841 C63.3305556,9.03769841 64.9115079,9.08869048 70.1821429,9.32916667 C75.0555556,9.55138889 77.7021825,10.3656746 79.4634921,11.0501984 C81.796627,11.9569444 83.4617063,13.0400794 85.2107143,14.7892857 C86.9599206,16.5382937 88.0430556,18.203373 88.9498016,20.5365079 C89.6343254,22.2978175 90.4486111,24.9444444 90.6708333,29.8178571 C90.9113095,35.0884921 90.9623016,36.6694444 90.9623016,50.015873 C90.9623016,63.3621032 90.9113095,64.9430556 90.6708333,70.2136905 C90.4486111,75.0871032 89.6343254,77.7337302 88.9498016,79.4950397 C88.0430556,81.8281746 86.9599206,83.493254 85.2107143,85.2422619 C83.4617063,86.9914683 81.796627,88.0746032 79.4634921,88.9813492 C77.7021825,89.665873 75.0555556,90.4801587 70.1821429,90.702381 C64.9123016,90.9428571 63.3315476,90.9938492 49.9843254,90.9938492 C36.6369048,90.9938492 35.0563492,90.9428571 29.7863095,90.702381 C24.9128968,90.4801587 22.2662698,89.665873 20.5049603,88.9813492 C18.1718254,88.0746032 16.506746,86.9914683 14.7577381,85.2422619 C13.0087302,83.493254 11.9253968,81.8281746 11.0186508,79.4950397 C10.334127,77.7337302 9.51984127,75.0871032 9.29761905,70.2136905 C9.05714286,64.9430556 9.00615079,63.3621032 9.00615079,50.015873 C9.00615079,36.6694444 9.05714286,35.0884921 9.29761905,29.8178571 C9.51984127,24.9444444 10.334127,22.2978175 11.0186508,20.5365079 C11.9253968,18.203373 13.0085317,16.5382937 14.7577381,14.7892857 C16.506746,13.0400794 18.1718254,11.9569444 20.5049603,11.0501984 C22.2662698,10.3656746 24.9128968,9.55138889 29.7863095,9.32916667 C35.0569444,9.08869048 36.6378968,9.03769841 49.9843254,9.03769841 L49.9843254,9.03769841 Z" id="Fill-1" fill="#000000" mask="url(#mask-2)"></path>
            </g>
            <path d="M49.9843254,66.6771825 C40.7823413,66.6771825 33.3228175,59.2176587 33.3228175,50.015873 C33.3228175,40.8138889 40.7823413,33.3543651 49.9843254,33.3543651 C59.1861111,33.3543651 66.6456349,40.8138889 66.6456349,50.015873 C66.6456349,59.2176587 59.1861111,66.6771825 49.9843254,66.6771825 Z M49.9843254,24.3482143 C35.8083333,24.3482143 24.3166667,35.839881 24.3166667,50.015873 C24.3166667,64.1916667 35.8083333,75.6833333 49.9843254,75.6833333 C64.160119,75.6833333 75.6517857,64.1916667 75.6517857,50.015873 C75.6517857,35.839881 64.160119,24.3482143 49.9843254,24.3482143 L49.9843254,24.3482143 Z" id="Fill-4" fill="#0A0B09"></path>
            <path d="M82.6640873,23.334127 C82.6640873,26.6468254 79.9785714,29.3321429 76.665873,29.3321429 C73.353373,29.3321429 70.6678571,26.6468254 70.6678571,23.334127 C70.6678571,20.0214286 73.353373,17.3359127 76.665873,17.3359127 C79.9785714,17.3359127 82.6640873,20.0214286 82.6640873,23.334127" id="Fill-5" fill="#0A0B09"></path>
        </g>
    </g>
</svg>
