<?xml version="1.0" encoding="UTF-8"?>
<svg width="130px" height="106px" viewBox="0 0 130 106" version="1.1" xmlns="http://www.w3.org/2000/svg" xmlns:xlink="http://www.w3.org/1999/xlink">
    <title>Shape</title>
    <g id="Page-1" stroke="none" stroke-width="1" fill="none" fill-rule="evenodd">
        <g id="photo.fill.on.rectangle.fill" transform="translate(-1381.000000, -1038.000000)" fill="#666666" fill-rule="nonzero">
            <g id="Symbols" transform="translate(475.000000, 615.000000)">
                <g id="Regular-M" transform="translate(905.840000, 423.000000)">
                    <path d="M18.1758,38.2188 C18.1758,24.4004 25.5,17.1738 39.416,17.1738 L105.139,17.1738 L105.139,15.9531 C105.139,5.8945 100.012,0.8164 89.807,0.8164 L15.7832,0.8164 C5.5293,0.8164 0.4512,5.8945 0.4512,15.9531 L0.4512,67.3691 C0.4512,77.4277 5.5293,82.45703 15.7832,82.45703 L18.1758,82.45703 L18.1758,38.2188 Z M40.1484,105.9922 L114.221,105.9922 C124.377,105.9922 129.553,100.9141 129.553,90.85547 L129.553,38.9512 C129.553,28.9414 124.377,23.8633 114.221,23.8633 L40.1484,23.8633 C29.9434,23.8633 24.8164,28.8926 24.8164,38.9512 L24.8164,90.85547 C24.8164,100.9141 29.9434,105.9922 40.1484,105.9922 Z M58.8984,64.3906 C52.6484,64.3906 47.5703,59.3125 47.5703,53.0625 C47.5703,46.8613 52.6484,41.7344 58.8984,41.7344 C65.0996,41.7344 70.1777,46.8613 70.1777,53.0625 C70.1777,59.3125 65.0996,64.3906 58.8984,64.3906 Z M39.6113,98.13086 C35.2168,98.13086 32.6777,95.64062 32.6777,91.19727 L32.6777,87.19336 L41.2227,79.42969 C45.5195,75.5234 48.0586,72.8379 51.4766,72.8379 C54.9922,72.8379 57.7754,75.6211 62.2676,79.47852 L66.8574,83.58008 L82.8242,69.1758 C88.195,64.3418 91.711,61.0703 95.959,61.0703 C100.305,61.0703 103.967,64.2441 109.191,69.1758 L121.691,81.04102 L121.691,91.19727 C121.691,95.64062 119.104,98.13086 114.758,98.13086 L39.6113,98.13086 Z" id="Shape"></path>
                </g>
            </g>
        </g>
    </g>
</svg>
