<?xml version="1.0" encoding="UTF-8"?>
<svg width="100px" height="82px" viewBox="0 0 100 82" version="1.1" xmlns="http://www.w3.org/2000/svg" xmlns:xlink="http://www.w3.org/1999/xlink">
    <title>twitter</title>
    <g id="Page-1" stroke="none" stroke-width="1" fill="none" fill-rule="evenodd">
        <g id="twitter" fill="#000000" fill-rule="nonzero">
            <path d="M31.448,81.2558761 C69.184,81.2558761 89.824,49.9918761 89.824,22.8798761 C89.824,21.9918761 89.824,21.1078761 89.764,20.2278761 C93.7793255,17.3235195 97.2454219,13.7273937 100,9.60787613 C96.2555162,11.2670832 92.2833171,12.3551907 88.216,12.8358761 C92.498976,10.2718044 95.7044941,6.23896407 97.236,1.48787613 C93.20863,3.87769739 88.8025844,5.56192421 84.208,6.46787613 C77.8483311,-0.294546759 67.7428774,-1.94967354 59.5581971,2.43059584 C51.3735168,6.81086521 47.1451,16.137179 49.244,25.1798761 C32.7475829,24.3528743 17.3779031,16.5611692 6.96,3.74387613 C1.51449103,13.118455 4.29595154,25.111314 13.312,31.1318761 C10.0469648,31.0351063 6.85311749,30.1543288 4,28.5638761 C4,28.6478761 4,28.7358761 4,28.8238761 C4.00267253,38.590248 10.887006,47.0020168 20.46,48.9358761 C17.4394784,49.7596363 14.2703223,49.8800533 11.196,49.2878761 C13.8837917,57.6455674 21.5862982,63.3710116 30.364,63.5358761 C23.0989402,69.2456039 14.124238,72.345187 4.884,72.3358761 C3.25161428,72.3327423 1.62081626,72.2339061 0,72.0398761 C9.3825438,78.0609824 20.2996536,81.2547438 31.448,81.2398761" id="Path"></path>
        </g>
    </g>
</svg>