<?xml version="1.0" encoding="UTF-8"?>
<svg width="512px" height="512px" viewBox="0 0 512 512" version="1.1" xmlns="http://www.w3.org/2000/svg" xmlns:xlink="http://www.w3.org/1999/xlink">
    <title>Z Icon</title>
    <g id="Page-1" stroke="none" stroke-width="1" fill="#000000" fill-rule="evenodd"> <path d="M398,0 C436.961106,0 471.357256,19.5449017 491.91858,49.364836 L379.037,162.248 L84.3497249,456.93543 C98.8465407,466.206069 115.999414,471.688599 134.412464,471.987139 L136,472 L376,472 C428.489143,472 471.139383,429.874651 471.987139,377.587536 L472,376 L472,145.651 L511.719099,105.934523 C511.905325,108.598819 512,111.288353 512,114 L512,398 C512,460.960461 460.960461,512 398,512 L114,512 C75.5538658,512 41.5528101,492.968357 20.903963,463.8122 L428.86255,55.8527239 C414.113684,46.1052311 396.516502,40.3197656 377.587536,40.0128613 L376,40 L136,40 C83.5108574,40 40.8606171,82.1253488 40.0128613,134.412464 L40,136 L40,368.347 L0.425769163,407.921647 C0.143874598,404.651938 0,401.342771 0,398 L0,114 C0,51.0395385 51.0395385,0 114,0 L398,0 Z" id="Path"></path>
    </g>
</svg>
