<?xml version="1.0" standalone="no"?>
<!DOCTYPE svg PUBLIC "-//W3C//DTD SVG 20010904//EN"
 "http://www.w3.org/TR/2001/REC-SVG-20010904/DTD/svg10.dtd">
<svg version="1.0" xmlns="http://www.w3.org/2000/svg"
 width="700.000000pt" height="700.000000pt" viewBox="0 0 700.000000 700.000000"
 preserveAspectRatio="xMidYMid meet">
<metadata>
Created by potrace 1.14, written by Peter Selinger 2001-2017
</metadata>
<g transform="translate(0.000000,700.000000) scale(0.100000,-0.100000)"
fill="#000000" stroke="none">
<path d="M1419 6996 c-2 -2 -35 -7 -73 -11 -38 -3 -73 -8 -76 -10 -4 -2 -20
-7 -37 -9 -46 -9 -203 -55 -243 -73 -179 -78 -273 -133 -395 -228 -65 -51
-215 -199 -260 -257 -164 -210 -249 -407 -322 -738 -10 -48 -15 -4227 -5
-4234 5 -3 128 115 274 262 l266 267 0 1640 c0 902 3 1654 6 1670 2 17 8 50
11 75 36 257 171 519 369 716 212 211 449 329 751 375 60 9 505 12 1800 12
946 0 1747 -3 1781 -6 95 -10 204 -33 290 -62 83 -27 243 -103 282 -133 l23
-17 -2787 -2787 -2787 -2787 29 -43 c41 -60 217 -237 294 -295 208 -159 393
-238 720 -309 49 -11 4211 -15 4290 -4 36 5 79 11 95 14 17 3 44 8 60 11 59
11 201 58 286 94 184 80 336 184 485 335 242 244 385 529 438 877 12 80 15
411 15 2154 l1 2060 -274 -274 -274 -273 0 -1617 c0 -889 -3 -1641 -7 -1671
-12 -109 -54 -280 -84 -345 -5 -11 -24 -51 -42 -90 -79 -173 -276 -401 -439
-510 -191 -127 -402 -202 -620 -221 -105 -9 -3478 -9 -3540 0 -123 17 -190 32
-280 63 -85 29 -254 109 -270 128 -8 10 637 661 2770 2794 1529 1529 2780
2783 2780 2787 0 18 -117 158 -193 230 -198 190 -406 311 -658 383 -57 16
-124 33 -149 37 -25 4 -56 9 -70 12 -28 7 -4224 14 -4231 8z"/>
</g>
</svg>
