<?xml version="1.0" encoding="UTF-8"?>
<svg xmlns="http://www.w3.org/2000/svg" xmlns:xlink="http://www.w3.org/1999/xlink" version="1.2" >
<font id="Calluna Semibold">
<font-face  font-family="Calluna" units-per-em="1000" ascent="750" descent="-250" font-style="normal" font-weight="600" font-stretch="normal" cap-height="667" x-height="450" underline-position="-75" underline-thickness="50" />
<missing-glyph  horiz-adv-x="690" d="M120 147 L305 332 L120 518 L159 559 L345 372 L531 559 L570 518 L385 332 L570 147 L530 106 L345 292 L160 106 L120 147 Z M45 -53 L645 -53 L645 720 L45 720 L45 -53 Z " />
<glyph glyph-name="NULL" d="" />
<glyph glyph-name="CR" unicode="&#xd;" horiz-adv-x="250" d="" />
<glyph glyph-name="space" unicode="&#x20;" horiz-adv-x="222" d="" />
<glyph glyph-name="exclam" unicode="&#x21;" horiz-adv-x="287" d="M126 189 L156 189 L197 578 C205 656 218 690 218 690 L213 695 C213 695 162 678 73 657 L126 189 Z M72 55 C72 18 103 -12 140 -12 C177 -12 207 18 207 55 C207 93 177 123 140 123 C103 123 72 93 72 55 L72 55 Z " />
<glyph glyph-name="quotedbl" unicode="&#x22;" horiz-adv-x="359" d="M58 418 L107 418 L154 630 L154 667 L58 667 L58 418 Z M225 418 L274 418 L321 630 L321 667 L225 667 L225 418 Z " />
<glyph glyph-name="numbersign" unicode="&#x23;" horiz-adv-x="646" d="M325 -89 L381 -89 L425 127 L568 127 L577 178 L435 178 L465 323 L607 323 L616 375 L475 375 L517 578 L462 578 L420 375 L263 375 L305 578 L250 578 L208 375 L77 375 L68 323 L197 323 L168 178 L38 178 L29 127 L157 127 L113 -89 L169 -89 L213 127 L369 127 L325 -89 Z M253 323 L409 323 L380 178 L223 178 L253 323 Z " />
<glyph glyph-name="dollar" unicode="&#x24;" horiz-adv-x="443" d="M33 83 C33 23 115 -3 189 -6 L186 -89 L228 -89 L231 -6 C333 1 412 55 412 153 C412 256 323 295 245 332 L253 521 C306 515 343 476 338 401 L371 401 L400 545 C364 550 306 561 254 562 L258 646 L216 646 L212 560 C97 549 41 483 41 404 C41 307 123 267 199 230 L191 35 C139 43 89 77 89 173 L56 173 C38 113 33 97 33 83 L33 83 Z M321 112 C321 63 280 39 233 34 L240 209 C285 185 321 157 321 112 L321 112 Z M131 443 C131 486 163 513 211 520 L204 352 C162 375 131 401 131 443 L131 443 Z " />
<glyph glyph-name="percent" unicode="&#x25;" horiz-adv-x="734" d="M31 508 C31 424 101 355 187 355 C273 355 344 424 344 508 C344 593 273 661 187 661 C101 661 31 593 31 508 L31 508 Z M97 508 C97 560 138 607 187 607 C237 607 278 560 278 508 C278 456 237 410 187 410 C138 410 97 456 97 508 L97 508 Z M106 0 L166 0 L616 647 L575 675 L106 0 Z M392 141 C392 56 462 -13 548 -13 C634 -13 705 56 705 141 C705 226 634 294 548 294 C462 294 392 226 392 141 L392 141 Z M458 141 C458 193 499 239 548 239 C598 239 639 193 639 141 C639 89 598 43 548 43 C499 43 458 89 458 141 L458 141 Z " />
<glyph glyph-name="ampersand" unicode="&#x26;" horiz-adv-x="668" d="M33 154 C33 37 146 -12 247 -12 C324 -12 385 13 433 51 C502 0 574 -36 641 -45 L655 -22 C621 -5 560 45 494 112 C548 181 580 267 602 339 C616 381 622 410 637 437 L632 452 L485 452 L485 425 C529 420 550 401 550 360 C550 293 519 208 466 142 C405 208 343 285 297 360 C369 410 450 473 450 555 C450 628 391 679 295 679 C175 679 123 600 123 526 C123 473 145 408 182 341 C98 287 33 234 33 154 L33 154 Z M281 42 C201 42 134 88 134 190 C134 240 162 275 202 306 C252 225 322 144 398 79 C363 56 324 42 281 42 L281 42 Z M226 553 C226 599 246 640 285 640 C336 640 353 585 353 542 C353 476 324 432 278 393 C246 452 226 507 226 553 L226 553 Z " />
<glyph glyph-name="quotesingle" unicode="&#x27;" horiz-adv-x="192" d="M58 418 L109 418 L153 630 L153 667 L58 667 L58 418 Z " />
<glyph glyph-name="parenleft" unicode="&#x28;" horiz-adv-x="284" d="M40 270 C40 -10 231 -180 231 -180 L266 -162 C266 -162 127 8 127 270 C127 509 243 676 243 676 L206 690 C206 690 40 533 40 270 L40 270 Z " />
<glyph glyph-name="parenright" unicode="&#x29;" horiz-adv-x="282" d="M19 -162 L54 -180 C54 -180 242 -10 242 270 C242 533 79 690 79 690 L42 674 C42 674 156 509 156 270 C156 8 19 -162 19 -162 L19 -162 Z " />
<glyph glyph-name="asterisk" unicode="&#x2a;" horiz-adv-x="500" d="M202 658 L238 541 C242 527 250 518 250 518 C250 518 258 526 262 541 L299 658 C305 678 270 688 250 688 C231 688 195 678 202 658 L202 658 Z M250 271 C270 271 305 281 299 301 L262 418 C258 433 250 442 250 442 C250 442 242 433 238 418 L202 301 C195 281 231 271 250 271 L250 271 Z M72 527 L191 500 C206 496 217 499 217 499 C217 499 214 510 203 521 L120 611 C106 627 80 601 70 584 C60 567 51 531 72 527 L72 527 Z M380 348 C395 333 421 358 431 375 C441 393 450 428 429 433 L309 460 C294 463 283 461 283 461 C283 461 287 449 297 439 L380 348 Z M120 349 L203 439 C214 449 217 461 217 461 C217 461 206 463 191 460 L72 433 C51 428 60 393 70 375 C80 358 105 333 120 349 L120 349 Z M283 499 C283 499 295 496 309 500 L429 527 C450 531 441 567 431 584 C421 601 395 626 380 610 L297 521 C286 510 283 499 283 499 L283 499 Z " />
<glyph glyph-name="plus" unicode="&#x2b;" horiz-adv-x="520" d="M34 222 L229 222 L229 0 L294 0 L294 222 L486 222 L486 284 L294 284 L294 492 L229 492 L229 284 L34 284 L34 222 Z " />
<glyph glyph-name="comma" unicode="&#x2c;" horiz-adv-x="235" d="M51 46 C96 18 118 -9 118 -40 C118 -82 86 -114 46 -149 L74 -180 C136 -128 186 -72 186 13 C186 54 171 95 137 134 L51 88 L51 46 Z " />
<glyph glyph-name="hyphen" unicode="&#x2d;" horiz-adv-x="366" d="M58 216 L308 216 L308 288 L58 288 L58 216 Z " />
<glyph glyph-name="period" unicode="&#x2e;" horiz-adv-x="242" d="M54 55 C54 18 84 -12 121 -12 C159 -12 189 18 189 55 C189 93 159 123 121 123 C84 123 54 93 54 55 L54 55 Z " />
<glyph glyph-name="slash" unicode="&#x2f;" horiz-adv-x="351" d="M-29 -196 L42 -196 L374 667 L304 667 L-29 -196 Z " />
<glyph glyph-name="zero" unicode="0" horiz-adv-x="568" d="M284 42 C199 42 157 138 157 236 C157 332 198 430 285 430 C369 430 411 333 411 238 C411 139 370 42 284 42 L284 42 Z M53 230 C53 109 128 -12 277 -12 C435 -12 515 122 515 248 C515 368 440 484 291 484 C133 484 53 355 53 230 L53 230 Z " />
<glyph glyph-name="one" unicode="1" horiz-adv-x="383" d="M54 -5 L332 0 L336 32 L233 42 C233 42 238 65 238 95 L238 427 L327 438 L331 472 L49 472 L49 436 C120 436 138 423 138 377 L138 95 C138 49 118 31 54 31 L54 -5 Z " />
<glyph glyph-name="two" unicode="2" horiz-adv-x="476" d="M54 0 L406 0 L438 168 L402 168 C387 125 373 83 301 83 L163 83 C287 186 372 275 372 357 C372 437 302 484 225 484 C115 484 47 398 47 398 L67 373 C98 395 142 411 179 411 C225 411 264 388 264 327 C264 212 121 101 46 34 L54 0 Z " />
<glyph glyph-name="three" unicode="3" horiz-adv-x="404" d="M22 -157 L28 -195 C28 -195 42 -196 52 -196 C175 -196 359 -125 359 35 C359 117 290 176 179 187 C243 213 337 275 337 359 C337 435 272 484 190 484 C85 484 20 397 20 397 L39 373 C39 373 92 419 149 419 C201 419 227 384 227 339 C227 265 156 195 77 188 L77 137 C77 137 89 139 106 139 C171 139 247 115 247 21 C247 -114 117 -153 22 -157 L22 -157 Z " />
<glyph glyph-name="four" unicode="4" horiz-adv-x="518" d="M26 32 L279 32 L279 -136 C279 -172 274 -193 274 -193 L278 -196 L375 -186 C375 -186 380 -170 380 -131 L380 32 L477 32 L490 100 L380 100 L380 374 C380 445 388 483 388 483 L384 486 L306 466 L19 64 L26 32 Z M100 100 L283 359 C281 340 279 313 279 293 L279 100 L100 100 Z " />
<glyph glyph-name="five" unicode="5" horiz-adv-x="419" d="M40 -157 L46 -195 C46 -195 59 -196 75 -196 C230 -196 374 -98 374 37 C374 229 94 265 94 265 L102 390 L337 390 L351 478 C351 478 320 472 281 472 L60 472 L44 175 C44 175 270 157 270 14 C270 -83 172 -153 40 -157 L40 -157 Z " />
<glyph glyph-name="six" unicode="6" horiz-adv-x="518" d="M269 -12 C411 -12 484 109 484 222 C484 334 419 425 310 425 C282 425 251 418 227 405 L235 369 C341 399 380 268 380 183 C380 104 347 26 285 26 C207 26 161 152 161 286 C161 451 235 623 424 642 L418 679 C169 679 50 473 50 277 C50 123 122 -12 269 -12 L269 -12 Z " />
<glyph glyph-name="seven" unicode="7" horiz-adv-x="478" d="M136 -86 C110 -124 99 -135 99 -158 C99 -179 112 -196 137 -196 C170 -196 178 -165 202 -111 L411 356 C425 389 463 448 463 448 L458 476 C458 476 433 472 395 472 L55 472 L23 309 L58 309 C81 372 94 374 161 374 L308 374 C328 374 355 376 374 378 L306 230 C217 33 163 -47 136 -86 L136 -86 Z " />
<glyph glyph-name="eight" unicode="8" horiz-adv-x="511" d="M49 152 C49 37 154 -12 249 -12 C370 -12 463 67 463 163 C463 248 386 312 313 373 C384 420 440 468 440 542 C440 623 372 679 265 679 C150 679 73 615 73 528 C73 455 128 398 190 345 C124 303 49 248 49 152 L49 152 Z M144 169 C144 243 177 285 221 319 C292 261 363 205 363 133 C363 65 304 27 253 27 C193 27 144 79 144 169 L144 169 Z M172 555 C172 609 216 640 259 640 C306 640 345 604 345 533 C345 479 320 432 281 399 C223 449 172 497 172 555 L172 555 Z " />
<glyph glyph-name="nine" unicode="9" horiz-adv-x="538" d="M111 -159 L117 -196 C366 -196 485 4 485 198 C485 350 413 484 266 484 C129 484 56 363 56 251 C56 141 121 52 225 52 C254 52 281 58 308 72 L301 108 C196 76 161 211 161 290 C161 368 193 446 251 446 C328 446 374 321 374 189 C374 26 300 -140 111 -159 L111 -159 Z " />
<glyph glyph-name="colon" unicode="&#x3a;" horiz-adv-x="275" d="M70 390 C70 353 100 322 137 322 C174 322 205 353 205 390 C205 427 174 457 137 457 C100 457 70 427 70 390 L70 390 Z M70 55 C70 18 100 -12 137 -12 C174 -12 205 18 205 55 C205 93 174 123 137 123 C100 123 70 93 70 55 L70 55 Z " />
<glyph glyph-name="semicolon" unicode="&#x3b;" horiz-adv-x="272" d="M73 46 C118 18 140 -9 140 -40 C140 -82 108 -114 68 -149 L96 -180 C158 -128 208 -72 208 13 C208 54 193 95 159 134 L73 88 L73 46 Z M67 389 C67 352 97 322 134 322 C172 322 202 352 202 389 C202 427 172 457 134 457 C97 457 67 427 67 389 L67 389 Z " />
<glyph glyph-name="less" unicode="&#x3c;" horiz-adv-x="520" d="M27 228 L453 -10 L470 54 L110 251 L470 439 L453 503 L27 274 L27 228 Z " />
<glyph glyph-name="equal" unicode="&#x3d;" horiz-adv-x="520" d="M38 311 L482 311 L482 373 L38 373 L38 311 Z M38 128 L482 128 L482 190 L38 190 L38 128 Z " />
<glyph glyph-name="greater" unicode="&#x3e;" horiz-adv-x="520" d="M49 54 L66 -10 L492 228 L492 274 L66 503 L49 439 L409 251 L49 54 Z " />
<glyph glyph-name="question" unicode="&#x3f;" horiz-adv-x="363" d="M128 189 L157 189 C157 350 347 412 347 498 C347 609 65 704 65 704 L45 598 C45 598 231 533 231 469 C231 416 123 366 123 241 C123 225 124 207 128 189 L128 189 Z M78 55 C78 18 108 -12 145 -12 C182 -12 213 18 213 55 C213 93 182 123 145 123 C108 123 78 93 78 55 L78 55 Z " />
<glyph glyph-name="at" unicode="&#x40;" horiz-adv-x="829" d="M310 191 C310 400 463 413 463 413 L463 105 C436 82 407 62 379 62 C343 62 310 94 310 191 L310 191 Z M29 185 C29 -7 171 -160 363 -168 L373 -126 C222 -113 113 22 113 202 C113 389 229 549 428 549 C609 549 708 416 708 236 C708 83 637 44 599 44 C576 44 565 59 565 91 L565 359 C565 399 577 445 577 445 C564 449 512 456 478 456 C324 456 201 331 201 165 C201 39 274 -12 336 -12 C391 -12 437 26 467 81 L467 45 C467 20 459 -9 459 -9 L461 -13 L586 2 C736 20 790 158 790 270 C790 458 640 597 445 597 C216 597 29 405 29 185 L29 185 Z " />
<glyph glyph-name="A" unicode="A" horiz-adv-x="624" d="M-15 0 L175 0 L180 31 L95 42 L159 209 L173 219 L400 219 L455 72 C466 42 442 34 414 33 L414 -3 C414 -3 544 0 585 0 L627 0 L631 29 C597 34 580 47 558 105 L337 674 L287 663 L52 77 C44 56 26 35 -15 31 L-15 0 Z M307 472 L383 266 L180 266 L285 540 C290 522 300 493 307 472 L307 472 Z " />
<glyph glyph-name="B" unicode="B" horiz-adv-x="610" d="M49 -3 C49 -3 147 0 205 0 L296 0 C475 0 571 83 571 189 C571 307 451 344 398 356 C446 381 525 437 525 521 C525 600 457 667 283 667 L39 667 L39 640 C113 625 118 615 118 567 L118 93 C118 57 92 36 49 31 L49 -3 Z M221 45 C221 45 226 70 226 100 L226 310 L237 321 L259 321 C330 321 450 293 450 174 C450 106 409 45 281 45 L221 45 Z M226 366 L226 611 L237 622 L276 622 C373 622 407 561 407 500 C407 428 359 368 320 366 L226 366 Z " />
<glyph glyph-name="C" unicode="C" horiz-adv-x="682" d="M40 325 C40 128 194 -12 391 -12 C571 -12 649 111 649 111 L634 134 C634 134 557 64 437 64 C280 64 152 176 152 359 C152 510 239 636 396 636 C482 636 567 602 569 500 L605 500 L635 654 C582 659 490 679 410 679 C180 679 40 514 40 325 L40 325 Z " />
<glyph glyph-name="D" unicode="D" horiz-adv-x="745" d="M49 -3 C49 -3 147 0 205 0 L288 0 C528 0 705 131 705 359 C705 586 521 667 323 667 L39 667 L39 640 C113 625 118 615 118 567 L118 93 C118 57 92 36 49 31 L49 -3 Z M221 45 C221 45 226 71 226 101 L226 611 L237 622 L321 622 C493 622 585 506 585 333 C585 162 496 45 288 45 L221 45 Z " />
<glyph glyph-name="E" unicode="E" horiz-adv-x="588" d="M49 -3 C49 -3 147 0 205 0 L518 0 L555 166 L519 166 C469 61 457 45 371 45 L221 45 C221 45 226 71 226 101 L226 306 L237 317 L402 317 L402 242 L451 242 L451 425 L412 419 L404 361 L226 361 L226 611 L237 622 L360 622 C440 622 473 603 468 500 L504 500 L535 671 C535 671 502 667 461 667 L39 667 L39 640 C113 625 118 615 118 567 L118 93 C118 57 92 36 49 31 L49 -3 Z " />
<glyph glyph-name="F" unicode="F" horiz-adv-x="539" d="M50 -3 L328 3 L332 33 L222 42 C222 42 227 66 227 96 L227 301 L238 312 L399 312 L399 238 L448 238 L448 420 L409 414 L401 357 L227 357 L227 611 L238 622 L355 622 C435 622 468 603 463 500 L499 500 L530 671 C530 671 497 667 456 667 L40 667 L40 640 C114 625 119 615 119 567 L119 96 C119 60 93 36 50 31 L50 -3 Z " />
<glyph glyph-name="G" unicode="G" horiz-adv-x="714" d="M40 320 C40 105 208 -12 410 -12 C488 -12 577 6 643 14 L643 175 C643 252 682 270 682 270 L677 286 L447 286 L447 259 C535 246 539 234 539 186 L539 48 C506 40 475 37 447 37 C273 37 158 166 158 343 C158 498 244 636 414 636 C491 636 580 610 581 500 L618 500 L648 657 C606 660 505 679 419 679 C158 679 40 499 40 320 L40 320 Z " />
<glyph glyph-name="H" unicode="H" horiz-adv-x="806" d="M49 -3 L305 3 L309 33 L221 42 C221 42 226 66 226 96 L226 305 L237 315 L585 315 L585 93 C585 59 558 36 515 31 L515 -3 L772 3 L776 33 L688 42 C688 42 693 66 693 96 L693 544 C693 627 726 666 726 666 L721 670 C721 670 695 667 589 667 L513 667 L513 640 C585 625 585 615 585 567 L585 374 L574 363 L226 363 L226 544 C226 627 259 667 259 667 L254 671 C254 671 228 667 122 667 L47 667 L47 640 C118 625 118 615 118 567 L118 96 C118 60 92 36 49 31 L49 -3 Z " />
<glyph glyph-name="I" unicode="I" horiz-adv-x="339" d="M49 -3 L308 3 L312 33 L221 42 C221 42 226 65 226 94 L226 544 C226 627 259 667 259 667 L254 671 C254 671 228 667 122 667 L47 667 L47 640 C118 625 118 615 118 567 L118 94 C118 60 92 36 49 31 L49 -3 Z " />
<glyph glyph-name="J" unicode="J" horiz-adv-x="314" d="M109 59 C109 -47 57 -129 2 -137 L14 -163 C141 -163 217 -56 217 122 L217 546 C217 629 250 667 250 667 L245 671 C245 671 219 667 113 667 L38 667 L38 640 C109 625 109 615 109 567 L109 59 Z " />
<glyph glyph-name="K" unicode="K" horiz-adv-x="657" d="M49 -3 L305 3 L309 33 L221 42 C221 42 226 64 226 93 L226 322 L244 322 L420 109 C482 34 490 3 490 3 L494 0 L660 0 L664 34 L653 35 C624 38 616 41 573 92 L339 376 L339 389 L524 577 C586 640 639 651 639 651 L634 667 L441 667 L441 640 C491 633 489 609 471 590 L285 402 C268 384 245 370 245 370 L226 370 L226 546 C226 629 259 667 259 667 L254 671 C254 671 228 667 122 667 L47 667 L47 640 C118 625 118 615 118 567 L118 93 C118 59 91 36 49 31 L49 -3 Z " />
<glyph glyph-name="L" unicode="L" horiz-adv-x="569" d="M50 -3 C50 -3 146 0 204 0 L524 0 L566 186 L530 186 C480 79 461 45 377 45 L220 45 C220 45 225 70 225 100 L225 544 C225 627 258 667 258 667 L253 671 C253 671 225 667 121 667 L45 667 L45 640 C117 625 117 615 117 567 L117 93 C117 57 94 36 50 31 L50 -3 Z " />
<glyph glyph-name="M" unicode="M" horiz-adv-x="902" d="M38 -3 L242 3 L246 33 L154 39 C154 39 160 65 161 93 L178 532 C179 551 181 572 181 572 L403 12 L438 0 L672 572 L692 90 C693 56 665 36 622 31 L622 -3 L877 3 L881 33 L795 39 C795 39 799 59 798 90 L779 541 C776 626 811 667 811 667 L806 671 C806 671 772 667 688 667 L652 667 C652 667 638 618 630 597 L451 158 C446 176 439 199 432 216 L293 575 C275 622 264 667 264 667 L260 671 C260 671 217 667 128 667 L51 667 L51 640 C125 624 132 615 130 567 L110 93 C108 57 82 36 38 31 L38 -3 Z " />
<glyph glyph-name="N" unicode="N" horiz-adv-x="773" d="M50 -3 L252 3 L256 33 L166 39 C166 39 171 63 171 93 L171 526 C182 510 196 491 209 477 L635 -5 L668 -5 L668 549 C668 632 737 651 737 651 L732 667 L537 667 L537 637 C617 629 618 605 618 561 L618 172 C606 188 591 207 578 222 L221 619 C195 648 183 671 183 671 C183 671 119 667 70 667 L40 667 L40 640 C106 623 122 601 122 534 L122 93 C122 57 95 36 50 31 L50 -3 Z " />
<glyph glyph-name="O" unicode="O" horiz-adv-x="796" d="M160 351 C160 496 242 635 391 635 C550 635 635 480 635 331 C635 184 553 32 405 32 C248 32 160 202 160 351 L160 351 Z M40 324 C40 148 166 -12 383 -12 C615 -12 756 172 756 357 C756 530 633 679 411 679 C168 679 40 502 40 324 L40 324 Z " />
<glyph glyph-name="P" unicode="P" horiz-adv-x="571" d="M49 -3 L312 3 L316 33 L221 42 C221 42 226 64 226 93 L226 611 L237 622 L256 622 C349 622 430 572 430 459 C430 380 390 315 290 310 L290 278 C407 266 550 335 550 486 C550 628 418 667 301 667 L39 667 L39 640 C113 625 118 615 118 567 L118 93 C118 59 91 36 49 31 L49 -3 Z " />
<glyph glyph-name="Q" unicode="Q" horiz-adv-x="796" d="M298 -3 C354 -14 380 -8 434 -71 C477 -120 550 -231 672 -231 C737 -231 789 -199 789 -199 L789 -169 C776 -171 763 -172 753 -172 C630 -172 559 -39 500 5 C663 57 756 207 756 357 C756 530 633 679 411 679 C168 679 40 502 40 324 C40 172 133 33 298 -3 L298 -3 Z M160 351 C160 495 242 633 391 633 C550 633 635 480 635 331 C635 186 553 34 405 34 C248 34 160 202 160 351 L160 351 Z " />
<glyph glyph-name="R" unicode="R" horiz-adv-x="639" d="M49 -3 L307 3 L311 33 L221 42 C221 42 226 64 226 93 L226 280 L237 291 L297 291 L416 113 C459 50 476 3 476 3 L480 0 L646 0 L650 34 L639 35 C616 37 597 39 555 99 L411 313 L411 328 C461 356 539 417 539 506 C539 591 471 667 293 667 L39 667 L39 640 C113 625 118 615 118 567 L118 93 C118 59 91 36 49 31 L49 -3 Z M226 335 L226 611 L237 622 L269 622 C379 622 420 556 420 478 C420 383 359 335 306 335 L226 335 Z " />
<glyph glyph-name="S" unicode="S" horiz-adv-x="511" d="M42 91 C43 17 153 -12 241 -12 C365 -12 468 47 468 171 C468 389 157 372 157 539 C157 603 208 636 275 636 C360 636 394 575 388 500 L424 500 L456 660 C420 665 351 679 285 679 C133 679 57 601 57 498 C57 291 368 295 368 129 C368 59 309 31 249 31 C183 31 104 63 104 189 L68 189 C45 121 42 104 42 91 L42 91 Z " />
<glyph glyph-name="T" unicode="T" horiz-adv-x="649" d="M198 -3 L466 3 L470 33 L370 42 C370 42 375 66 375 96 L375 611 L386 622 L477 622 C553 622 586 602 583 500 L620 500 L651 673 C651 673 620 667 579 667 L100 667 C59 667 33 673 33 673 L2 500 L38 500 C77 602 107 622 174 622 L267 622 L267 96 C267 60 241 36 198 31 L198 -3 Z " />
<glyph glyph-name="U" unicode="U" horiz-adv-x="735" d="M92 235 C92 52 233 -12 367 -12 C519 -12 643 74 643 239 L643 547 C643 630 714 651 714 651 L709 667 L510 667 L510 637 C587 629 588 606 588 562 L588 236 C588 105 490 39 393 39 C297 39 200 101 200 243 L200 544 C200 628 233 667 233 667 L228 671 C228 671 202 667 96 667 L21 667 L21 640 C92 625 92 615 92 567 L92 235 Z " />
<glyph glyph-name="V" unicode="V" horiz-adv-x="613" d="M281 3 L321 -9 L551 546 C585 630 616 651 616 651 L612 667 L453 667 L453 640 C507 625 519 598 501 553 L330 140 C325 159 318 183 312 201 L172 575 C161 604 166 643 178 667 L174 671 C174 671 122 667 52 667 L-7 667 L-7 640 C-7 640 34 628 51 585 L281 3 Z " />
<glyph glyph-name="W" unicode="W" horiz-adv-x="957" d="M652 3 L700 -9 L875 546 C904 632 941 651 941 651 L937 667 L780 667 L780 640 C833 625 841 599 827 553 L698 146 C693 165 686 189 680 207 L550 575 C539 604 544 643 556 667 L552 671 C552 671 492 667 431 667 L372 667 L372 640 C372 640 413 628 430 585 L448 537 L324 145 C320 164 313 190 306 209 L169 575 C158 604 163 643 175 667 L171 671 C171 671 111 667 50 667 L-9 667 L-9 640 C-9 640 32 628 49 585 L279 3 L326 -9 L476 465 L652 3 Z " />
<glyph glyph-name="X" unicode="X" horiz-adv-x="630" d="M7 0 L215 0 L219 33 L128 45 L297 280 L435 70 C452 45 446 35 406 30 L406 -4 C406 -4 535 0 582 0 L626 0 L630 30 L582 39 L366 359 L533 588 C572 640 608 650 608 650 L603 667 L427 667 L427 640 C470 635 486 608 466 580 L338 401 L211 595 C189 629 204 667 204 667 L200 671 C200 671 141 667 79 667 L19 667 L19 640 C19 640 61 632 85 596 L268 323 L89 75 C73 55 49 35 7 31 L7 0 Z " />
<glyph glyph-name="Y" unicode="Y" horiz-adv-x="590" d="M172 -3 L429 3 L433 33 L345 42 C345 42 350 65 350 94 L350 301 L531 592 C561 639 596 651 596 651 L592 667 L426 667 L426 640 C477 632 482 604 466 578 L323 345 C315 362 304 385 294 401 L176 595 C156 629 174 667 174 667 L170 671 C170 671 125 667 51 667 L1 667 L1 640 C1 640 30 634 54 596 L242 295 L242 94 C242 60 216 36 172 31 L172 -3 Z " />
<glyph glyph-name="Z" unicode="Z" horiz-adv-x="608" d="M31 -4 C31 -4 56 0 95 0 L534 0 L576 186 L540 186 C489 74 467 45 385 45 L160 45 C172 60 188 79 198 95 L508 564 C541 614 558 635 558 635 L554 671 C554 671 529 667 490 667 L77 667 L51 500 L88 500 C126 603 159 622 237 622 L430 622 C418 607 403 588 393 573 L80 103 C46 51 25 32 25 32 L31 -4 Z " />
<glyph glyph-name="bracketleft" unicode="&#x5b;" horiz-adv-x="290" d="M81 -158 L272 -158 L272 -108 L156 -108 L156 617 L272 617 L272 667 L81 667 L81 -158 Z " />
<glyph glyph-name="backslash" unicode="&#x5c;" horiz-adv-x="352" d="M309 -196 L381 -196 L48 667 L-23 667 L309 -196 Z " />
<glyph glyph-name="bracketright" unicode="&#x5d;" horiz-adv-x="290" d="M18 -108 L18 -158 L209 -158 L209 667 L18 667 L18 617 L134 617 L134 -108 L18 -108 Z " />
<glyph glyph-name="asciicircum" unicode="&#x5e;" horiz-adv-x="559" d="M37 250 L107 250 L279 596 L451 250 L523 250 L309 679 L251 679 L37 250 Z " />
<glyph glyph-name="underscore" unicode="&#x5f;" horiz-adv-x="516" d="M8 -37 L8 -90 L508 -90 L508 -37 L8 -37 Z " />
<glyph glyph-name="grave" unicode="&#x60;" horiz-adv-x="500" d="M162 678 L310 506 L345 525 L264 696 L162 705 L162 678 Z " />
<glyph glyph-name="a" unicode="a" horiz-adv-x="469" d="M24 94 C24 31 70 -12 133 -12 C230 -12 282 78 282 78 L282 57 C282 11 314 -12 357 -12 C423 -12 471 41 471 41 L457 65 C457 65 431 46 407 46 C385 46 381 62 381 93 L381 321 C381 425 356 464 257 464 C137 464 60 405 60 405 L79 324 L117 324 C117 324 156 425 219 425 C251 425 268 401 275 368 C280 342 280 289 279 262 L245 257 C142 241 24 192 24 94 L24 94 Z M183 55 C151 55 130 79 130 115 C130 180 195 209 250 218 L279 223 L279 102 C256 83 216 55 183 55 L183 55 Z " />
<glyph glyph-name="b" unicode="b" horiz-adv-x="525" d="M174 43 L174 370 C193 382 225 397 258 397 C345 397 385 307 385 216 C385 110 329 31 236 31 C199 31 174 43 174 43 L174 43 Z M62 3 L65 0 C102 0 170 -12 226 -12 C407 -12 492 121 492 247 C492 356 430 464 307 464 C238 464 196 429 170 395 C170 404 174 428 174 476 L174 626 C174 703 184 740 184 740 L181 743 C181 743 136 723 2 695 L2 666 L42 666 C71 666 72 641 72 599 L72 103 C72 43 62 3 62 3 L62 3 Z " />
<glyph glyph-name="c" unicode="c" horiz-adv-x="444" d="M33 216 C33 100 108 -12 248 -12 C370 -12 419 79 419 79 L408 103 C408 103 363 65 291 65 C179 65 131 152 131 251 C131 344 173 426 248 426 C318 426 321 345 374 345 C401 345 417 365 417 386 C417 442 318 464 258 464 C112 464 33 336 33 216 L33 216 Z " />
<glyph glyph-name="d" unicode="d" horiz-adv-x="547" d="M33 203 C33 89 104 -12 219 -12 C285 -12 332 25 359 67 L359 48 C359 23 354 -6 354 -6 L356 -8 C356 -8 416 0 536 11 L539 40 L513 40 C480 40 457 40 457 97 L457 626 C457 703 467 740 467 740 L464 743 C464 743 420 723 285 695 L285 666 L325 666 C354 666 355 641 355 599 L355 459 C355 459 325 464 292 464 C123 464 33 331 33 203 L33 203 Z M264 56 C180 56 140 149 140 236 C140 341 197 421 293 421 C320 421 355 415 355 368 L355 90 C336 76 303 56 264 56 L264 56 Z " />
<glyph glyph-name="e" unicode="e" horiz-adv-x="461" d="M33 217 C33 99 107 -12 251 -12 C373 -12 426 85 426 85 L415 110 C415 110 367 65 290 65 C182 65 138 146 131 231 L140 243 L373 277 C393 280 428 293 428 293 C424 409 340 464 252 464 C127 464 33 354 33 217 L33 217 Z M234 422 C315 422 321 308 321 308 L131 283 C137 358 173 422 234 422 L234 422 Z " />
<glyph glyph-name="f" unicode="f" horiz-adv-x="335" d="M34 -3 L292 3 L296 30 L191 39 C191 39 196 63 196 93 L196 388 L207 399 L323 399 L332 452 L196 452 L196 507 C196 634 216 683 264 683 C308 683 337 624 378 624 C406 624 425 644 425 668 C425 713 359 732 307 732 C180 732 94 630 94 482 L94 453 L32 431 L32 396 L94 396 L94 93 C94 57 77 33 34 28 L34 -3 Z " />
<glyph glyph-name="g" unicode="g" horiz-adv-x="488" d="M59 71 C59 34 97 15 146 1 C95 -18 20 -48 20 -117 C20 -199 126 -237 215 -237 C337 -237 472 -164 472 -63 C472 22 376 49 290 66 C220 80 161 87 161 114 C161 127 174 144 181 152 C197 149 213 148 230 148 C333 148 427 204 427 298 C427 356 393 386 390 389 C393 389 406 387 424 387 L472 387 L481 457 C481 457 447 444 415 444 L367 444 C315 444 290 464 230 464 C128 464 36 408 36 304 C36 224 91 175 161 156 C125 140 59 118 59 71 L59 71 Z M246 -20 C320 -36 377 -53 377 -102 C377 -159 299 -195 233 -195 C170 -195 112 -162 112 -102 C112 -54 148 -20 169 -4 C194 -9 220 -14 246 -20 L246 -20 Z M232 187 C165 187 139 245 139 306 C139 367 164 425 228 425 C294 425 323 359 323 298 C323 240 298 187 232 187 L232 187 Z " />
<glyph glyph-name="h" unicode="h" horiz-adv-x="570" d="M26 -3 L252 3 L256 30 L183 39 C183 39 188 63 188 93 L188 337 C226 370 278 391 319 391 C358 391 382 373 382 300 L382 93 C382 57 368 33 330 28 L330 -3 L558 3 L562 30 L479 40 C479 40 484 63 484 93 L484 329 C484 426 437 464 368 464 C285 464 220 409 184 360 C184 369 188 393 188 441 L188 626 C188 703 198 740 198 740 L195 743 C195 743 151 723 16 695 L16 666 L56 666 C85 666 86 641 86 599 L86 93 C86 57 70 33 26 28 L26 -3 Z " />
<glyph glyph-name="i" unicode="i" horiz-adv-x="288" d="M35 -3 L271 3 L275 30 L192 39 C192 39 197 63 197 93 L197 361 C197 442 207 475 207 475 L205 478 C205 478 156 457 22 430 L22 401 L65 401 C94 401 95 376 95 334 L95 93 C95 57 78 33 35 28 L35 -3 Z M137 560 C172 560 200 586 200 621 C200 655 172 682 137 682 C102 682 74 655 74 621 C74 586 102 560 137 560 L137 560 Z " />
<glyph glyph-name="j" unicode="j" horiz-adv-x="261" d="M87 -22 C87 -124 35 -203 -20 -211 L-8 -237 C117 -237 189 -141 189 37 L189 363 C189 444 199 475 199 475 L198 478 C198 478 148 457 15 430 L15 401 L57 401 C86 401 87 376 87 334 L87 -22 Z M129 560 C164 560 192 586 192 621 C192 655 164 682 129 682 C94 682 67 655 67 621 C67 586 94 560 129 560 L129 560 Z " />
<glyph glyph-name="k" unicode="k" horiz-adv-x="535" d="M26 -3 L255 3 L259 30 L183 39 C183 39 188 63 188 93 L188 231 L202 231 L338 66 C364 33 376 -3 376 -3 L536 0 L540 32 L529 33 C498 36 487 42 446 90 L303 258 C296 265 288 277 288 277 L288 289 L394 381 C436 418 499 436 499 436 L494 452 L307 452 L307 425 C329 419 339 412 339 401 C339 385 320 370 302 354 L202 269 L188 269 L188 626 C188 703 198 740 198 740 L195 743 C195 743 151 723 16 695 L16 666 L56 666 C85 666 86 641 86 599 L86 93 C86 57 70 33 26 28 L26 -3 Z " />
<glyph glyph-name="l" unicode="l" horiz-adv-x="279" d="M26 -3 L262 3 L266 30 L183 39 C183 39 188 63 188 93 L188 626 C188 703 198 740 198 740 L195 743 C195 743 151 723 16 695 L16 666 L56 666 C85 666 86 641 86 599 L86 93 C86 57 70 33 26 28 L26 -3 Z " />
<glyph glyph-name="m" unicode="m" horiz-adv-x="852" d="M34 -3 L259 3 L263 31 L190 40 C190 40 195 63 195 93 L195 336 C233 371 281 391 321 391 C359 391 378 373 378 300 L378 93 C378 57 366 33 327 28 L327 -3 L544 3 L548 31 L475 40 C475 40 480 63 480 93 L480 310 C480 360 566 391 608 391 C644 391 664 373 664 300 L664 93 C664 57 652 33 614 28 L614 -3 L840 3 L844 30 L761 40 C761 40 766 63 766 93 L766 329 C766 428 721 464 653 464 C575 464 515 413 477 358 C472 432 428 464 366 464 C286 464 225 408 190 359 C194 448 203 475 203 475 L200 478 C200 478 128 449 22 430 L22 401 L63 401 C92 401 93 376 93 334 L93 93 C93 57 77 33 34 28 L34 -3 Z " />
<glyph glyph-name="n" unicode="n" horiz-adv-x="578" d="M35 -3 L261 3 L265 30 L192 40 C192 40 197 63 197 93 L197 336 C235 371 287 391 327 391 C367 391 391 373 391 300 L391 93 C391 57 379 33 339 28 L339 -3 L566 3 L570 30 L488 40 C488 40 493 63 493 93 L493 329 C493 426 445 464 376 464 C293 464 227 408 192 358 C194 447 203 475 203 475 L200 478 C200 478 129 449 22 430 L22 401 L65 401 C94 401 95 376 95 334 L95 93 C95 57 78 33 35 28 L35 -3 Z " />
<glyph glyph-name="o" unicode="o" horiz-adv-x="538" d="M33 216 C33 86 118 -12 261 -12 C425 -12 505 119 505 244 C505 370 423 464 275 464 C102 464 33 334 33 216 L33 216 Z M145 241 C145 335 181 426 264 426 C356 426 392 315 393 220 C393 128 360 26 275 26 C183 26 145 142 145 241 L145 241 Z " />
<glyph glyph-name="p" unicode="p" horiz-adv-x="539" d="M35 -245 C113 -221 280 -201 280 -201 L284 -175 L181 -175 C181 -175 186 -148 186 -118 L186 -7 C197 -9 219 -12 247 -12 C421 -12 506 120 506 248 C506 362 439 464 324 464 C259 464 218 431 183 387 C187 449 194 475 194 475 L191 478 C191 478 121 449 17 430 L17 401 L54 401 C83 401 84 376 84 334 L84 -119 C84 -165 78 -189 35 -214 L35 -245 Z M249 32 C221 32 186 38 186 84 L186 363 C216 383 246 396 277 396 C362 396 399 304 399 215 C399 110 346 32 249 32 L249 32 Z " />
<glyph glyph-name="q" unicode="q" horiz-adv-x="528" d="M33 204 C33 96 99 -12 221 -12 C290 -12 332 22 358 58 C358 48 354 24 354 -24 L354 -120 C354 -166 337 -191 294 -216 L294 -247 C294 -247 396 -221 520 -205 L524 -178 L451 -178 C451 -178 456 -151 456 -122 L456 349 C456 409 464 445 465 449 L462 452 C420 453 356 464 304 464 C125 464 33 333 33 204 L33 204 Z M140 234 C140 342 202 421 292 421 C329 421 354 409 354 409 L354 83 C334 70 302 55 268 55 C182 55 140 145 140 234 L140 234 Z " />
<glyph glyph-name="r" unicode="r" horiz-adv-x="391" d="M35 -3 L281 3 L285 30 L192 39 C192 39 197 63 197 93 L197 328 C209 342 245 375 278 375 C302 375 306 357 333 357 C365 357 387 381 387 412 C387 444 361 464 330 464 C266 464 209 382 192 350 C195 447 204 475 204 475 L201 478 C201 478 129 449 22 429 L22 400 L65 400 C94 400 95 375 95 333 L95 93 C95 57 78 33 35 28 L35 -3 Z " />
<glyph glyph-name="s" unicode="s" horiz-adv-x="387" d="M34 57 C34 2 135 -12 187 -12 C283 -12 354 36 354 126 C354 284 134 263 134 367 C134 399 155 427 202 427 C226 427 286 418 288 338 L320 338 L341 446 C341 446 270 464 211 464 C108 464 45 412 45 331 C45 181 266 191 266 88 C266 49 236 25 192 25 C146 25 87 51 81 136 L49 136 C49 136 34 79 34 57 L34 57 Z " />
<glyph glyph-name="t" unicode="t" horiz-adv-x="356" d="M83 119 C83 27 127 -12 199 -12 C293 -12 354 57 354 57 L340 79 C340 79 296 57 252 57 C199 57 185 90 185 148 L185 388 L196 399 L327 399 L334 452 L184 452 L184 469 C184 542 193 568 193 568 L190 571 L127 573 L90 462 C66 440 21 431 21 431 L21 396 L86 396 C86 396 83 360 83 331 L83 119 Z " />
<glyph glyph-name="u" unicode="u" horiz-adv-x="566" d="M80 122 C80 26 128 -12 199 -12 C290 -12 356 66 376 96 L376 48 C376 23 368 -6 368 -6 L371 -9 C371 -9 432 0 552 11 L555 40 L529 40 C496 40 473 40 473 97 L473 361 C473 438 482 466 482 466 L479 469 C479 469 437 454 312 431 L312 401 L341 401 C370 401 371 376 371 333 L371 119 C347 94 293 59 246 59 C208 59 182 78 182 152 L182 361 C182 438 191 466 191 466 L188 469 C188 469 147 454 18 431 L18 401 L50 401 C79 401 80 376 80 333 L80 122 Z " />
<glyph glyph-name="v" unicode="v" horiz-adv-x="463" d="M199 0 L252 -13 L427 384 C448 430 462 436 462 436 L457 452 L316 452 L316 425 C359 415 386 394 368 352 L258 104 C253 123 246 147 240 165 L167 360 C153 398 162 437 169 452 L165 456 C165 456 119 452 45 452 L-2 452 L-2 425 C-2 425 35 418 55 367 L199 0 Z " />
<glyph glyph-name="w" unicode="w" horiz-adv-x="732" d="M197 0 L244 -13 L369 275 L478 0 L525 -13 L697 383 C717 429 731 436 731 436 L726 452 L587 452 L587 425 C626 416 656 394 638 353 L533 108 C529 127 522 151 516 168 L444 360 C426 410 446 452 446 452 L442 456 C442 456 398 452 324 452 L280 452 L280 425 C280 425 314 418 334 367 L339 353 C345 334 341 314 336 301 L253 107 C248 125 242 147 236 164 L163 360 C145 410 165 452 165 452 L161 456 C161 456 118 452 43 452 L-3 452 L-3 425 C-3 425 33 418 53 367 L197 0 Z " />
<glyph glyph-name="x" unicode="x" horiz-adv-x="495" d="M275 -3 L485 3 L489 29 L446 33 L294 252 L401 386 C435 429 470 436 470 436 L465 452 L302 452 L302 425 C340 419 362 404 344 381 L270 287 L207 380 C182 418 194 452 194 452 L190 456 C190 456 140 452 74 452 L20 452 L20 425 C20 425 60 422 92 374 L202 216 L81 66 C68 51 48 32 13 28 L13 -3 L182 3 L186 30 L113 39 L226 182 L303 68 C321 42 312 30 275 30 L275 -3 Z " />
<glyph glyph-name="y" unicode="y" horiz-adv-x="465" d="M74 -146 C32 -146 18 -169 18 -191 C18 -216 35 -237 67 -237 C171 -237 233 -63 264 8 L428 383 C445 424 462 436 462 436 L457 452 L315 452 L315 425 C352 415 386 393 370 353 L264 109 C259 127 251 151 245 168 L167 360 C156 388 156 428 168 452 L164 456 C164 456 118 452 43 452 L-4 452 L-4 425 C-4 425 32 417 53 367 L184 60 C196 30 206 4 211 -12 L189 -63 C167 -114 131 -146 74 -146 L74 -146 Z " />
<glyph glyph-name="z" unicode="z" horiz-adv-x="445" d="M35 -4 C35 -4 60 0 103 0 L388 0 L415 136 L380 136 C380 136 358 39 261 39 L155 39 C167 54 182 73 192 89 L374 380 C400 421 408 428 408 428 L400 456 C400 456 375 452 333 452 L55 452 L37 330 L72 330 C80 357 106 414 167 414 L286 414 C274 399 259 380 250 366 L63 72 C40 35 27 24 27 24 L35 -4 Z " />
<glyph glyph-name="braceleft" unicode="&#x7b;" horiz-adv-x="345" d="M126 -66 C126 -186 215 -226 335 -226 L340 -188 C223 -178 209 -137 209 -13 C209 171 151 242 98 262 L98 264 C151 284 209 344 209 528 C209 652 223 694 340 703 L335 741 C215 741 126 694 126 581 C126 480 133 284 6 281 L6 244 C133 241 126 35 126 -66 L126 -66 Z " />
<glyph glyph-name="bar" unicode="&#x7c;" horiz-adv-x="236" d="M80 -225 L156 -225 L156 749 L80 749 L80 -225 Z " />
<glyph glyph-name="braceright" unicode="&#x7d;" horiz-adv-x="345" d="M136 -13 C136 -137 123 -178 6 -188 L11 -226 C130 -226 219 -186 219 -66 C219 35 212 241 339 244 L339 281 C212 284 219 480 219 581 C219 694 130 741 11 741 L6 703 C122 694 136 652 136 528 C136 344 194 284 247 264 L247 262 C194 242 136 171 136 -13 L136 -13 Z " />
<glyph glyph-name="asciitilde" unicode="&#x7e;" horiz-adv-x="589" d="M62 172 L126 172 C126 209 137 272 196 272 C273 272 280 168 395 168 C473 168 526 216 526 329 L462 329 C462 292 451 229 392 229 C315 229 308 333 193 333 C115 333 62 285 62 172 L62 172 Z " />
<glyph glyph-name="uni00A0" unicode="&#xa0;" horiz-adv-x="222" d="" />
<glyph glyph-name="exclamdown" unicode="&#xa1;" horiz-adv-x="283" d="M158 264 L128 264 L87 -126 C80 -204 67 -238 67 -238 L71 -243 C71 -243 122 -226 211 -205 L158 264 Z M212 397 C212 434 182 464 145 464 C107 464 77 434 77 397 C77 359 107 329 145 329 C182 329 212 359 212 397 L212 397 Z " />
<glyph glyph-name="cent" unicode="&#xa2;" horiz-adv-x="440" d="M34 274 C34 177 93 83 214 70 L210 -22 L253 -22 L257 69 C368 76 414 161 414 161 L402 184 C363 153 323 139 283 139 C275 139 268 139 261 140 L276 443 C310 421 327 371 365 371 C392 371 406 387 406 413 C406 456 334 481 278 488 L283 579 L240 579 L235 489 C103 482 34 376 34 274 L34 274 Z M137 313 C137 382 171 448 233 453 L219 154 C164 183 137 250 137 313 L137 313 Z " />
<glyph glyph-name="sterling" unicode="&#xa3;" horiz-adv-x="517" d="M52 244 L113 244 L99 121 C91 55 39 31 39 31 L51 0 C81 11 108 16 132 16 C147 16 160 13 173 10 L260 -14 C289 -22 315 -25 337 -25 C458 -25 487 71 496 162 L462 162 L455 129 C442 70 384 53 328 53 C248 53 175 85 175 85 C175 85 208 146 216 240 L216 244 L390 244 L395 286 L220 286 L228 371 C238 491 250 523 293 523 C345 523 356 465 400 465 C428 465 444 483 444 508 C444 552 376 567 324 567 C196 567 143 487 129 374 L118 286 L52 286 L52 244 Z " />
<glyph glyph-name="yen" unicode="&#xa5;" horiz-adv-x="527" d="M69 270 L213 270 L213 204 L69 204 L69 162 L213 162 L213 93 C213 57 197 33 153 28 L153 -3 L382 3 L386 30 L310 39 C310 39 315 63 315 93 L315 162 L465 162 L465 204 L315 204 L315 270 L465 270 L465 312 L334 312 L451 498 C475 536 496 539 496 539 L492 555 L360 555 L360 528 C403 522 404 501 391 480 L291 316 C283 333 273 355 264 371 L186 501 C172 526 184 555 184 555 L181 558 C181 558 131 555 69 555 L29 555 L29 528 C29 528 57 524 75 495 L189 312 L69 312 L69 270 Z " />
<glyph glyph-name="brokenbar" unicode="&#xa6;" horiz-adv-x="219" d="M69 330 L150 330 L150 688 L69 688 L69 330 Z M69 175 L69 -183 L150 -183 L150 175 L69 175 Z " />
<glyph glyph-name="section" unicode="&#xa7;" horiz-adv-x="470" d="M34 -143 L18 -173 C18 -173 79 -237 180 -237 C335 -237 389 -93 363 46 L300 401 C289 462 288 510 299 555 L294 560 C203 528 229 389 241 324 L293 38 C313 -73 281 -181 160 -181 C74 -181 34 -143 34 -143 L34 -143 Z M148 41 C159 -20 160 -68 148 -113 L153 -118 C244 -86 218 53 206 118 L154 404 C134 515 166 623 287 623 C373 623 413 585 413 585 L429 615 C429 615 368 679 267 679 C113 679 60 535 85 396 L148 41 Z " />
<glyph glyph-name="dieresis" unicode="&#xa8;" horiz-adv-x="500" d="M149 561 C183 561 210 587 210 620 C210 654 183 680 149 680 C116 680 89 654 89 620 C89 587 116 561 149 561 L149 561 Z M350 561 C384 561 411 587 411 620 C411 654 384 680 350 680 C316 680 289 654 289 620 C289 587 316 561 350 561 L350 561 Z " />
<glyph glyph-name="copyright" unicode="&#xa9;" horiz-adv-x="754" d="M32 333 C32 143 187 -12 377 -12 C567 -12 722 143 722 333 C722 523 567 678 377 678 C187 678 32 523 32 333 L32 333 Z M80 333 C80 500 211 635 377 635 C544 635 674 500 674 333 C674 166 544 31 377 31 C211 31 80 166 80 333 L80 333 Z M177 329 C177 207 277 133 389 133 C437 133 505 160 537 203 L526 234 C526 234 475 188 408 188 C327 188 266 250 266 353 C266 436 311 505 380 505 C423 505 468 490 470 405 L504 405 L521 515 C494 521 446 542 395 542 C246 542 177 430 177 329 L177 329 Z " />
<glyph glyph-name="ordfeminine" unicode="&#xaa;" horiz-adv-x="391" d="M122 345 C177 345 216 401 216 401 C216 362 241 345 274 345 C321 345 358 385 358 385 L344 406 C344 406 323 389 309 389 C297 389 295 400 295 421 L295 578 C295 652 277 679 205 679 C119 679 64 636 64 636 L78 576 L109 576 C109 576 138 648 178 648 C211 648 214 598 214 563 L214 538 C121 528 40 490 40 420 C40 375 73 345 122 345 L122 345 Z M154 395 C134 395 123 411 123 435 C123 476 163 501 213 507 L213 426 C213 426 180 395 154 395 L154 395 Z " />
<glyph glyph-name="guillemotleft" unicode="&#xab;" horiz-adv-x="515" d="M33 250 C55 234 70 221 245 40 L277 50 C161 237 150 252 150 252 C150 252 161 265 277 454 L245 464 C60 273 54 269 33 254 L33 250 Z M230 250 C252 234 267 221 443 40 L475 50 C359 237 348 252 348 252 C348 252 359 265 475 454 L443 464 C257 273 251 269 230 254 L230 250 Z " />
<glyph glyph-name="logicalnot" unicode="&#xac;" horiz-adv-x="520" d="M23 330 L407 330 L407 111 L473 111 L473 391 L23 391 L23 330 Z " />
<glyph glyph-name="registered" unicode="&#xae;" horiz-adv-x="412" d="M206 358 C301 358 379 436 379 531 C379 626 301 704 206 704 C111 704 33 626 33 531 C33 436 111 358 206 358 L206 358 Z M206 388 C130 388 68 454 68 531 C68 608 130 673 206 673 C280 673 344 608 344 531 C344 454 280 388 206 388 L206 388 Z M126 446 L208 448 L209 462 L184 465 C184 465 186 470 186 477 L186 516 L199 516 L226 476 C237 459 242 446 242 446 L296 447 L297 462 C290 463 283 463 273 477 L251 509 C242 522 237 532 237 532 C251 541 270 557 270 576 C270 599 252 618 196 618 L123 618 L123 606 C141 601 143 599 143 587 L143 477 C143 469 136 463 126 462 L126 446 Z M186 600 L192 600 C215 600 225 586 225 568 C225 544 211 535 205 534 L186 534 L186 600 Z " />
<glyph glyph-name="macron" unicode="&#xaf;" horiz-adv-x="500" d="M129 585 L371 585 L371 650 L129 650 L129 585 Z " />
<glyph glyph-name="degree" unicode="&#xb0;" horiz-adv-x="316" d="M158 488 C120 488 89 519 89 559 C89 599 120 630 158 630 C196 630 227 599 227 559 C227 519 196 488 158 488 L158 488 Z M158 439 C226 439 280 493 280 559 C280 625 226 679 158 679 C90 679 36 625 36 559 C36 493 90 439 158 439 L158 439 Z " />
<glyph glyph-name="plusminus" unicode="&#xb1;" horiz-adv-x="520" d="M41 315 L227 315 L227 120 L293 120 L293 315 L476 315 L476 376 L293 376 L293 558 L227 558 L227 376 L41 376 L41 315 Z M45 0 L476 0 L476 62 L45 62 L45 0 Z " />
<glyph glyph-name="twosuperior" unicode="&#xb2;" horiz-adv-x="336" d="M28 376 L295 376 L312 495 L282 495 C271 459 262 441 223 441 L110 441 C197 528 284 609 284 688 C284 755 223 787 165 787 C80 787 24 716 24 716 L44 693 C67 711 97 723 128 723 C162 723 193 703 193 656 C193 620 179 585 155 548 C121 497 67 449 20 404 L28 376 Z " />
<glyph glyph-name="threesuperior" unicode="&#xb3;" horiz-adv-x="323" d="M129 369 C215 369 296 423 296 495 C296 546 242 590 171 600 C213 620 269 658 269 705 C269 763 214 787 160 787 C84 787 39 733 39 733 L58 710 C77 723 104 732 128 732 C152 732 176 721 176 688 C176 638 134 606 85 601 L85 563 C85 563 102 566 112 566 C167 566 198 532 198 487 C198 444 169 396 136 396 C93 396 91 443 47 443 C31 443 17 434 17 417 C17 381 86 369 129 369 L129 369 Z " />
<glyph glyph-name="acute" unicode="&#xb4;" horiz-adv-x="506" d="M190 506 L338 678 L338 705 L237 696 L156 525 L190 506 Z " />
<glyph glyph-name="mu" unicode="&#xb5;" horiz-adv-x="552" d="M69 -57 C69 -98 65 -134 65 -165 C65 -211 81 -237 115 -237 C138 -237 160 -219 160 -187 C160 -145 126 -65 121 21 C144 -2 172 -12 201 -12 C271 -12 326 39 359 93 L359 55 C359 5 390 -12 433 -12 C469 -12 533 14 533 14 L530 40 L495 40 C461 40 456 57 456 97 L456 356 C456 433 463 462 463 462 L459 465 L347 442 C347 442 354 401 354 338 L354 117 C318 84 272 59 231 59 C197 59 171 80 171 155 L171 354 C171 431 178 460 178 460 L174 463 L62 440 C62 440 69 399 69 336 L69 -57 Z " />
<glyph glyph-name="paragraph" unicode="&#xb6;" horiz-adv-x="647" d="M172 -193 C172 -213 187 -237 222 -237 C302 -237 352 -169 374 -92 C387 -51 388 -7 388 85 L388 612 L463 612 L463 0 L524 0 L524 612 L595 612 L604 671 C584 667 562 667 525 667 L304 667 C113 667 18 539 18 412 C18 283 108 159 309 159 L323 159 L323 15 C323 -92 318 -156 264 -156 C250 -156 234 -148 218 -148 C194 -148 172 -164 172 -193 L172 -193 Z " />
<glyph glyph-name="periodcentered" unicode="&#xb7;" horiz-adv-x="254" d="M127 187 C164 187 194 218 194 254 C194 292 164 322 127 322 C90 322 59 292 59 254 C59 218 90 187 127 187 L127 187 Z " />
<glyph glyph-name="cedilla" unicode="&#xb8;" horiz-adv-x="500" d="M210 -84 C210 -123 285 -125 285 -158 C285 -179 263 -191 236 -191 C199 -191 165 -165 165 -165 L149 -200 C149 -200 184 -237 244 -237 C310 -237 358 -190 358 -139 C358 -70 271 -77 271 -44 C271 -31 282 0 282 0 L249 0 C249 0 210 -54 210 -84 L210 -84 Z " />
<glyph glyph-name="onesuperior" unicode="&#xb9;" horiz-adv-x="280" d="M30 374 L271 378 L274 406 L195 411 C195 411 197 426 197 441 L197 719 C197 766 205 787 205 787 L202 791 C202 791 140 771 19 739 L25 706 L87 720 C100 723 108 726 108 693 L108 441 C108 425 106 408 72 406 L30 404 L30 374 Z " />
<glyph glyph-name="ordmasculine" unicode="&#xba;" horiz-adv-x="412" d="M200 345 C318 345 376 437 376 524 C376 613 316 679 210 679 C86 679 38 587 38 505 C38 414 98 345 200 345 L200 345 Z M211 377 C151 377 126 455 126 523 C126 585 149 647 203 647 C263 647 286 573 286 507 C286 447 266 377 211 377 L211 377 Z " />
<glyph glyph-name="guillemotright" unicode="&#xbb;" horiz-adv-x="515" d="M238 50 L270 40 C445 221 460 234 482 250 L482 254 C461 269 455 273 270 464 L238 454 C353 265 364 252 364 252 C364 252 353 237 238 50 L238 50 Z M40 50 L72 40 C247 221 262 234 284 250 L284 254 C263 269 257 273 72 464 L40 454 C156 265 167 252 167 252 C167 252 156 237 40 50 L40 50 Z " />
<glyph glyph-name="onequarter" unicode="&#xbc;" horiz-adv-x="822" d="M477 110 L639 110 L639 63 C639 43 622 28 594 25 L594 -2 L777 2 L779 28 L724 33 C724 33 726 48 726 63 L726 110 L784 110 L794 156 L726 156 L726 342 C726 388 730 412 730 412 L662 401 L470 147 L477 110 Z M519 156 L639 310 L639 156 L519 156 Z M43 264 L284 268 L287 296 L208 301 C208 301 210 316 210 331 L210 609 C210 656 218 677 218 677 L215 681 C215 681 153 661 32 629 L38 596 L100 610 C113 613 121 616 121 583 L121 331 C121 315 119 298 85 296 L43 294 L43 264 Z M257 0 L639 665 L590 683 L196 0 L257 0 Z " />
<glyph glyph-name="onehalf" unicode="&#xbd;" horiz-adv-x="877" d="M563 0 L830 0 L847 119 L817 119 C806 83 797 65 758 65 L645 65 C732 152 819 233 819 312 C819 379 758 411 700 411 C615 411 559 340 559 340 L579 317 C602 335 632 347 663 347 C697 347 728 327 728 280 C728 244 714 209 690 172 C656 121 602 73 555 28 L563 0 Z M42 264 L283 268 L286 296 L207 301 C207 301 209 316 209 331 L209 609 C209 656 217 677 217 677 L214 681 C214 681 152 661 31 629 L37 596 L99 610 C112 613 120 616 120 583 L120 331 C120 315 118 298 84 296 L42 294 L42 264 Z M265 0 L647 665 L598 683 L204 0 L265 0 Z " />
<glyph glyph-name="threequarters" unicode="&#xbe;" horiz-adv-x="819" d="M472 110 L634 110 L634 63 C634 43 617 28 589 25 L589 -2 L772 2 L774 28 L719 33 C719 33 721 48 721 63 L721 110 L779 110 L789 156 L721 156 L721 342 C721 388 725 412 725 412 L657 401 L465 147 L472 110 Z M142 259 C228 259 309 313 309 385 C309 436 255 480 184 490 C226 510 282 548 282 595 C282 653 227 677 173 677 C97 677 52 623 52 623 L71 600 C90 613 117 622 141 622 C165 622 189 611 189 578 C189 528 147 496 98 491 L98 453 C98 453 115 456 125 456 C180 456 211 422 211 377 C211 334 182 286 149 286 C106 286 104 333 60 333 C44 333 30 324 30 307 C30 271 99 259 142 259 L142 259 Z M252 0 L634 665 L585 683 L191 0 L252 0 Z M514 156 L634 310 L634 156 L514 156 Z " />
<glyph glyph-name="questiondown" unicode="&#xbf;" horiz-adv-x="338" d="M223 263 L194 263 C194 102 4 40 4 -46 C4 -157 285 -252 285 -252 L305 -146 C305 -146 120 -81 120 -17 C120 36 228 86 228 211 C228 227 227 245 223 263 L223 263 Z M273 397 C273 434 243 464 206 464 C168 464 138 434 138 397 C138 359 168 329 206 329 C243 329 273 359 273 397 L273 397 Z " />
<glyph glyph-name="Agrave" unicode="&#xc0;" horiz-adv-x="624" d="M-15 0 L175 0 L180 31 L95 42 L159 209 L173 219 L400 219 L455 72 C466 42 442 34 414 33 L414 -3 C414 -3 544 0 585 0 L627 0 L631 29 C597 34 580 47 558 105 L337 674 L287 663 L52 77 C44 56 26 35 -15 31 L-15 0 Z M307 472 L383 266 L180 266 L285 540 C290 522 300 493 307 472 L307 472 Z M181 778 L391 720 L407 757 L223 865 L218 865 L181 805 L181 778 Z " />
<glyph glyph-name="Aacute" unicode="&#xc1;" horiz-adv-x="624" d="M-15 0 L175 0 L180 31 L95 42 L159 209 L173 219 L400 219 L455 72 C466 42 442 34 414 33 L414 -3 C414 -3 544 0 585 0 L627 0 L631 29 C597 34 580 47 558 105 L337 674 L287 663 L52 77 C44 56 26 35 -15 31 L-15 0 Z M307 472 L383 266 L180 266 L285 540 C290 522 300 493 307 472 L307 472 Z M217 757 L233 720 L443 778 L443 805 L406 865 L401 865 L217 757 Z " />
<glyph glyph-name="Acircumflex" unicode="&#xc2;" horiz-adv-x="624" d="M-15 0 L175 0 L180 31 L95 42 L159 209 L173 219 L400 219 L455 72 C466 42 442 34 414 33 L414 -3 C414 -3 544 0 585 0 L627 0 L631 29 C597 34 580 47 558 105 L337 674 L287 663 L52 77 C44 56 26 35 -15 31 L-15 0 Z M307 472 L383 266 L180 266 L285 540 C290 522 300 493 307 472 L307 472 Z M149 744 L179 718 L309 794 L315 794 L445 718 L475 744 L343 871 L282 871 L149 744 Z " />
<glyph glyph-name="Atilde" unicode="&#xc3;" horiz-adv-x="624" d="M-15 0 L175 0 L180 31 L95 42 L159 209 L173 219 L400 219 L455 72 C466 42 442 34 414 33 L414 -3 C414 -3 544 0 585 0 L627 0 L631 29 C597 34 580 47 558 105 L337 674 L287 663 L52 77 C44 56 26 35 -15 31 L-15 0 Z M307 472 L383 266 L180 266 L285 540 C290 522 300 493 307 472 L307 472 Z M170 732 C170 732 183 788 225 788 C272 788 313 732 382 732 C488 732 493 851 493 851 L454 855 C454 855 444 799 399 799 C351 799 298 855 235 855 C140 855 132 740 132 740 L170 732 Z " />
<glyph glyph-name="Adieresis" unicode="&#xc4;" horiz-adv-x="624" d="M-15 0 L175 0 L180 31 L95 42 L159 209 L173 219 L400 219 L455 72 C466 42 442 34 414 33 L414 -3 C414 -3 544 0 585 0 L627 0 L631 29 C597 34 580 47 558 105 L337 674 L287 663 L52 77 C44 56 26 35 -15 31 L-15 0 Z M307 472 L383 266 L180 266 L285 540 C290 522 300 493 307 472 L307 472 Z M132 793 C132 760 158 734 192 734 C226 734 253 760 253 793 C253 827 226 853 192 853 C158 853 132 827 132 793 L132 793 Z M371 793 C371 760 398 734 432 734 C466 734 492 760 492 793 C492 827 466 853 432 853 C398 853 371 827 371 793 L371 793 Z " />
<glyph glyph-name="Aring" unicode="&#xc5;" horiz-adv-x="624" d="M-15 0 L175 0 L180 31 L95 42 L159 209 L173 219 L400 219 L455 72 C466 42 442 34 414 33 L414 -3 C414 -3 544 0 585 0 L627 0 L631 29 C597 34 580 47 558 105 L337 674 L287 663 L52 77 C44 56 26 35 -15 31 L-15 0 Z M307 472 L383 266 L180 266 L285 540 C290 522 300 493 307 472 L307 472 Z M312 710 C379 710 409 749 409 792 C409 831 379 871 312 871 C245 871 215 831 215 792 C215 749 245 710 312 710 L312 710 Z M312 746 C281 746 266 768 266 791 C266 812 279 834 312 834 C344 834 359 812 359 791 C359 768 342 746 312 746 L312 746 Z " />
<glyph glyph-name="AE" unicode="&#xc6;" horiz-adv-x="884" d="M-21 0 L166 0 L171 31 L85 42 L224 296 L241 307 L414 307 L414 93 C414 57 388 36 344 31 L344 -3 C344 -3 443 0 501 0 L814 0 L851 166 L814 166 C764 61 752 45 666 45 L517 45 C517 45 522 71 522 101 L522 296 L533 307 L697 307 L697 242 L747 242 L747 425 L707 419 L699 351 L522 351 L522 611 L533 622 L655 622 C735 622 768 603 763 500 L800 500 L831 671 C831 671 797 667 756 667 L265 667 L265 640 C327 626 341 608 324 578 L46 77 C34 57 19 35 -21 31 L-21 0 Z M376 572 C388 594 400 607 414 615 L414 351 L254 351 L376 572 Z " />
<glyph glyph-name="Ccedilla" unicode="&#xc7;" horiz-adv-x="682" d="M308 -84 C308 -123 383 -125 383 -158 C383 -179 361 -191 334 -191 C297 -191 263 -165 263 -165 L247 -200 C247 -200 282 -237 342 -237 C408 -237 456 -190 456 -139 C456 -70 369 -77 369 -44 C369 -36 373 -21 376 -11 C381 -11 386 -12 391 -12 C571 -12 649 111 649 111 L634 134 C634 134 557 64 437 64 C280 64 152 176 152 359 C152 510 239 636 396 636 C482 636 567 602 569 500 L605 500 L635 654 C582 659 490 679 410 679 C180 679 40 514 40 325 C40 145 168 12 341 -9 C330 -25 308 -61 308 -84 L308 -84 Z " />
<glyph glyph-name="Egrave" unicode="&#xc8;" horiz-adv-x="588" d="M178 778 L388 720 L404 757 L220 865 L215 865 L178 805 L178 778 Z M49 -3 C49 -3 147 0 205 0 L518 0 L555 166 L519 166 C469 61 457 45 371 45 L221 45 C221 45 226 71 226 101 L226 306 L237 317 L402 317 L402 242 L451 242 L451 425 L412 419 L404 361 L226 361 L226 611 L237 622 L360 622 C440 622 473 603 468 500 L504 500 L535 671 C535 671 502 667 461 667 L39 667 L39 640 C113 625 118 615 118 567 L118 93 C118 57 92 36 49 31 L49 -3 Z " />
<glyph glyph-name="Eacute" unicode="&#xc9;" horiz-adv-x="588" d="M49 -3 C49 -3 147 0 205 0 L518 0 L555 166 L519 166 C469 61 457 45 371 45 L221 45 C221 45 226 71 226 101 L226 306 L237 317 L402 317 L402 242 L451 242 L451 425 L412 419 L404 361 L226 361 L226 611 L237 622 L360 622 C440 622 473 603 468 500 L504 500 L535 671 C535 671 502 667 461 667 L39 667 L39 640 C113 625 118 615 118 567 L118 93 C118 57 92 36 49 31 L49 -3 Z M214 757 L230 720 L440 778 L440 805 L403 865 L398 865 L214 757 Z " />
<glyph glyph-name="Ecircumflex" unicode="&#xca;" horiz-adv-x="588" d="M146 744 L176 718 L306 794 L312 794 L442 718 L472 744 L340 871 L279 871 L146 744 Z M49 -3 C49 -3 147 0 205 0 L518 0 L555 166 L519 166 C469 61 457 45 371 45 L221 45 C221 45 226 71 226 101 L226 306 L237 317 L402 317 L402 242 L451 242 L451 425 L412 419 L404 361 L226 361 L226 611 L237 622 L360 622 C440 622 473 603 468 500 L504 500 L535 671 C535 671 502 667 461 667 L39 667 L39 640 C113 625 118 615 118 567 L118 93 C118 57 92 36 49 31 L49 -3 Z " />
<glyph glyph-name="Edieresis" unicode="&#xcb;" horiz-adv-x="588" d="M49 -3 C49 -3 147 0 205 0 L518 0 L555 166 L519 166 C469 61 457 45 371 45 L221 45 C221 45 226 71 226 101 L226 306 L237 317 L402 317 L402 242 L451 242 L451 425 L412 419 L404 361 L226 361 L226 611 L237 622 L360 622 C440 622 473 603 468 500 L504 500 L535 671 C535 671 502 667 461 667 L39 667 L39 640 C113 625 118 615 118 567 L118 93 C118 57 92 36 49 31 L49 -3 Z M129 793 C129 760 155 734 189 734 C223 734 250 760 250 793 C250 827 223 853 189 853 C155 853 129 827 129 793 L129 793 Z M368 793 C368 760 395 734 429 734 C463 734 489 760 489 793 C489 827 463 853 429 853 C395 853 368 827 368 793 L368 793 Z " />
<glyph glyph-name="Igrave" unicode="&#xcc;" horiz-adv-x="339" d="M49 -3 L308 3 L312 33 L221 42 C221 42 226 65 226 94 L226 544 C226 627 259 667 259 667 L254 671 C254 671 228 667 122 667 L47 667 L47 640 C118 625 118 615 118 567 L118 94 C118 60 92 36 49 31 L49 -3 Z M35 778 L245 720 L261 757 L77 865 L72 865 L35 805 L35 778 Z " />
<glyph glyph-name="Iacute" unicode="&#xcd;" horiz-adv-x="339" d="M49 -3 L308 3 L312 33 L221 42 C221 42 226 65 226 94 L226 544 C226 627 259 667 259 667 L254 671 C254 671 228 667 122 667 L47 667 L47 640 C118 625 118 615 118 567 L118 94 C118 60 92 36 49 31 L49 -3 Z M71 757 L87 720 L297 778 L297 805 L260 865 L255 865 L71 757 Z " />
<glyph glyph-name="Icircumflex" unicode="&#xce;" horiz-adv-x="339" d="M49 -3 L308 3 L312 33 L221 42 C221 42 226 65 226 94 L226 544 C226 627 259 667 259 667 L254 671 C254 671 228 667 122 667 L47 667 L47 640 C118 625 118 615 118 567 L118 94 C118 60 92 36 49 31 L49 -3 Z M3 744 L33 718 L163 794 L169 794 L299 718 L329 744 L197 871 L136 871 L3 744 Z " />
<glyph glyph-name="Idieresis" unicode="&#xcf;" horiz-adv-x="339" d="M10 793 C10 760 37 734 70 734 C104 734 131 760 131 793 C131 827 104 853 70 853 C37 853 10 827 10 793 L10 793 Z M200 793 C200 760 226 734 260 734 C294 734 321 760 321 793 C321 827 294 853 260 853 C226 853 200 827 200 793 L200 793 Z M49 -3 L308 3 L312 33 L221 42 C221 42 226 65 226 94 L226 544 C226 627 259 667 259 667 L254 671 C254 671 228 667 122 667 L47 667 L47 640 C118 625 118 615 118 567 L118 94 C118 60 92 36 49 31 L49 -3 Z " />
<glyph glyph-name="Eth" unicode="&#xd0;" horiz-adv-x="745" d="M29 315 L118 315 L118 93 C118 57 92 36 48 31 L48 -3 C48 -3 147 0 205 0 L288 0 C527 0 705 131 705 359 C705 586 521 667 322 667 L38 667 L38 640 C113 625 118 615 118 567 L118 363 L29 363 L29 315 Z M221 45 C221 45 226 71 226 101 L226 315 L383 315 L383 363 L226 363 L226 611 L237 622 L321 622 C493 622 585 506 585 333 C585 162 496 45 288 45 L221 45 Z " />
<glyph glyph-name="Ntilde" unicode="&#xd1;" horiz-adv-x="773" d="M50 -3 L252 3 L256 33 L166 39 C166 39 171 63 171 93 L171 526 C182 510 196 491 209 477 L635 -5 L668 -5 L668 549 C668 632 737 651 737 651 L732 667 L537 667 L537 637 C617 629 618 605 618 561 L618 172 C606 188 591 207 578 222 L221 619 C195 648 183 671 183 671 C183 671 119 667 70 667 L40 667 L40 640 C106 623 122 601 122 534 L122 93 C122 57 95 36 50 31 L50 -3 Z M253 732 C253 732 266 788 308 788 C355 788 396 732 465 732 C571 732 576 851 576 851 L537 855 C537 855 527 799 482 799 C434 799 381 855 318 855 C223 855 215 740 215 740 L253 732 Z " />
<glyph glyph-name="Ograve" unicode="&#xd2;" horiz-adv-x="796" d="M265 778 L475 720 L491 757 L307 865 L302 865 L265 805 L265 778 Z M160 351 C160 496 242 635 391 635 C550 635 635 480 635 331 C635 184 553 32 405 32 C248 32 160 202 160 351 L160 351 Z M40 324 C40 148 166 -12 383 -12 C615 -12 756 172 756 357 C756 530 633 679 411 679 C168 679 40 502 40 324 L40 324 Z " />
<glyph glyph-name="Oacute" unicode="&#xd3;" horiz-adv-x="796" d="M301 757 L317 720 L527 778 L527 805 L490 865 L485 865 L301 757 Z M160 351 C160 496 242 635 391 635 C550 635 635 480 635 331 C635 184 553 32 405 32 C248 32 160 202 160 351 L160 351 Z M40 324 C40 148 166 -12 383 -12 C615 -12 756 172 756 357 C756 530 633 679 411 679 C168 679 40 502 40 324 L40 324 Z " />
<glyph glyph-name="Ocircumflex" unicode="&#xd4;" horiz-adv-x="796" d="M233 744 L263 718 L393 794 L399 794 L529 718 L559 744 L427 871 L366 871 L233 744 Z M160 351 C160 496 242 635 391 635 C550 635 635 480 635 331 C635 184 553 32 405 32 C248 32 160 202 160 351 L160 351 Z M40 324 C40 148 166 -12 383 -12 C615 -12 756 172 756 357 C756 530 633 679 411 679 C168 679 40 502 40 324 L40 324 Z " />
<glyph glyph-name="Otilde" unicode="&#xd5;" horiz-adv-x="796" d="M160 351 C160 496 242 635 391 635 C550 635 635 480 635 331 C635 184 553 32 405 32 C248 32 160 202 160 351 L160 351 Z M40 324 C40 148 166 -12 383 -12 C615 -12 756 172 756 357 C756 530 633 679 411 679 C168 679 40 502 40 324 L40 324 Z M254 732 C254 732 267 788 309 788 C356 788 397 732 466 732 C572 732 577 851 577 851 L538 855 C538 855 528 799 483 799 C435 799 382 855 319 855 C224 855 216 740 216 740 L254 732 Z " />
<glyph glyph-name="Odieresis" unicode="&#xd6;" horiz-adv-x="796" d="M160 351 C160 496 242 635 391 635 C550 635 635 480 635 331 C635 184 553 32 405 32 C248 32 160 202 160 351 L160 351 Z M40 324 C40 148 166 -12 383 -12 C615 -12 756 172 756 357 C756 530 633 679 411 679 C168 679 40 502 40 324 L40 324 Z M216 793 C216 760 242 734 276 734 C310 734 337 760 337 793 C337 827 310 853 276 853 C242 853 216 827 216 793 L216 793 Z M455 793 C455 760 482 734 516 734 C550 734 576 760 576 793 C576 827 550 853 516 853 C482 853 455 827 455 793 L455 793 Z " />
<glyph glyph-name="multiply" unicode="&#xd7;" horiz-adv-x="520" d="M33 435 L216 252 L32 68 L76 23 L260 208 L444 24 L489 68 L304 252 L486 435 L443 480 L260 296 L77 480 L33 435 Z " />
<glyph glyph-name="Oslash" unicode="&#xd8;" horiz-adv-x="796" d="M40 324 C40 223 82 126 158 63 L87 -30 L147 -30 L197 36 C248 6 310 -12 383 -12 C615 -12 756 172 756 357 C756 458 714 551 634 611 L700 697 L641 697 L594 636 C544 663 482 679 411 679 C168 679 40 502 40 324 L40 324 Z M635 331 C635 184 553 32 405 32 C341 32 289 60 249 104 L576 534 C615 477 635 403 635 331 L635 331 Z M160 351 C160 496 242 635 391 635 C454 635 506 610 545 571 L219 143 C180 203 160 279 160 351 L160 351 Z " />
<glyph glyph-name="Ugrave" unicode="&#xd9;" horiz-adv-x="735" d="M248 778 L458 720 L474 757 L290 865 L285 865 L248 805 L248 778 Z M92 235 C92 52 233 -12 367 -12 C519 -12 643 74 643 239 L643 547 C643 630 714 651 714 651 L709 667 L510 667 L510 637 C587 629 588 606 588 562 L588 236 C588 105 490 39 393 39 C297 39 200 101 200 243 L200 544 C200 628 233 667 233 667 L228 671 C228 671 202 667 96 667 L21 667 L21 640 C92 625 92 615 92 567 L92 235 Z " />
<glyph glyph-name="Uacute" unicode="&#xda;" horiz-adv-x="735" d="M92 235 C92 52 233 -12 367 -12 C519 -12 643 74 643 239 L643 547 C643 630 714 651 714 651 L709 667 L510 667 L510 637 C587 629 588 606 588 562 L588 236 C588 105 490 39 393 39 C297 39 200 101 200 243 L200 544 C200 628 233 667 233 667 L228 671 C228 671 202 667 96 667 L21 667 L21 640 C92 625 92 615 92 567 L92 235 Z M284 757 L300 720 L510 778 L510 805 L473 865 L468 865 L284 757 Z " />
<glyph glyph-name="Ucircumflex" unicode="&#xdb;" horiz-adv-x="735" d="M216 744 L246 718 L376 794 L382 794 L512 718 L542 744 L410 871 L349 871 L216 744 Z M92 235 C92 52 233 -12 367 -12 C519 -12 643 74 643 239 L643 547 C643 630 714 651 714 651 L709 667 L510 667 L510 637 C587 629 588 606 588 562 L588 236 C588 105 490 39 393 39 C297 39 200 101 200 243 L200 544 C200 628 233 667 233 667 L228 671 C228 671 202 667 96 667 L21 667 L21 640 C92 625 92 615 92 567 L92 235 Z " />
<glyph glyph-name="Udieresis" unicode="&#xdc;" horiz-adv-x="735" d="M92 235 C92 52 233 -12 367 -12 C519 -12 643 74 643 239 L643 547 C643 630 714 651 714 651 L709 667 L510 667 L510 637 C587 629 588 606 588 562 L588 236 C588 105 490 39 393 39 C297 39 200 101 200 243 L200 544 C200 628 233 667 233 667 L228 671 C228 671 202 667 96 667 L21 667 L21 640 C92 625 92 615 92 567 L92 235 Z M199 793 C199 760 225 734 259 734 C293 734 320 760 320 793 C320 827 293 853 259 853 C225 853 199 827 199 793 L199 793 Z M438 793 C438 760 465 734 499 734 C533 734 559 760 559 793 C559 827 533 853 499 853 C465 853 438 827 438 793 L438 793 Z " />
<glyph glyph-name="Yacute" unicode="&#xdd;" horiz-adv-x="590" d="M172 -3 L429 3 L433 33 L345 42 C345 42 350 65 350 94 L350 301 L531 592 C561 639 596 651 596 651 L592 667 L426 667 L426 640 C477 632 482 604 466 578 L323 345 C315 362 304 385 294 401 L176 595 C156 629 174 667 174 667 L170 671 C170 671 125 667 51 667 L1 667 L1 640 C1 640 30 634 54 596 L242 295 L242 94 C242 60 216 36 172 31 L172 -3 Z M207 757 L223 720 L433 778 L433 805 L396 865 L391 865 L207 757 Z " />
<glyph glyph-name="Thorn" unicode="&#xde;" horiz-adv-x="571" d="M290 156 C407 144 550 209 550 349 C550 472 415 515 297 515 L226 515 L226 544 C226 627 259 667 259 667 L254 671 C254 671 228 667 122 667 L47 667 L47 640 C118 625 118 615 118 567 L118 94 C118 60 92 36 49 31 L49 -3 L308 3 L312 33 L221 42 C221 42 226 65 226 94 L226 460 L237 471 L256 471 C349 471 430 425 430 323 C430 253 390 193 290 188 L290 156 Z " />
<glyph glyph-name="germandbls" unicode="&#xdf;" horiz-adv-x="569" d="M35 -3 L197 2 L200 5 C200 5 196 23 196 53 L196 495 C196 611 223 676 298 676 C354 676 389 634 389 575 C389 481 290 448 290 350 C290 219 463 192 463 94 C463 45 419 25 382 25 C339 25 306 54 295 121 L262 121 C262 121 248 85 248 61 C248 5 333 -12 383 -12 C474 -12 551 43 551 137 C551 282 368 311 368 400 C368 466 476 520 476 604 C476 679 410 721 319 721 C162 721 94 591 94 478 L94 453 L32 431 L32 396 L94 396 L94 88 C94 55 78 31 35 26 L35 -3 Z " />
<glyph glyph-name="agrave" unicode="&#xe0;" horiz-adv-x="469" d="M24 94 C24 31 70 -12 133 -12 C230 -12 282 78 282 78 L282 57 C282 11 314 -12 357 -12 C423 -12 471 41 471 41 L457 65 C457 65 431 46 407 46 C385 46 381 62 381 93 L381 321 C381 425 356 464 257 464 C137 464 60 405 60 405 L79 324 L117 324 C117 324 156 425 219 425 C251 425 268 401 275 368 C280 342 280 289 279 262 L245 257 C142 241 24 192 24 94 L24 94 Z M183 55 C151 55 130 79 130 115 C130 180 195 209 250 218 L279 223 L279 102 C256 83 216 55 183 55 L183 55 Z M88 678 L236 506 L271 525 L190 696 L88 705 L88 678 Z " />
<glyph glyph-name="aacute" unicode="&#xe1;" horiz-adv-x="469" d="M24 94 C24 31 70 -12 133 -12 C230 -12 282 78 282 78 L282 57 C282 11 314 -12 357 -12 C423 -12 471 41 471 41 L457 65 C457 65 431 46 407 46 C385 46 381 62 381 93 L381 321 C381 425 356 464 257 464 C137 464 60 405 60 405 L79 324 L117 324 C117 324 156 425 219 425 C251 425 268 401 275 368 C280 342 280 289 279 262 L245 257 C142 241 24 192 24 94 L24 94 Z M183 55 C151 55 130 79 130 115 C130 180 195 209 250 218 L279 223 L279 102 C256 83 216 55 183 55 L183 55 Z M214 506 L362 678 L362 705 L261 696 L180 525 L214 506 Z " />
<glyph glyph-name="acircumflex" unicode="&#xe2;" horiz-adv-x="469" d="M24 94 C24 31 70 -12 133 -12 C230 -12 282 78 282 78 L282 57 C282 11 314 -12 357 -12 C423 -12 471 41 471 41 L457 65 C457 65 431 46 407 46 C385 46 381 62 381 93 L381 321 C381 425 356 464 257 464 C137 464 60 405 60 405 L79 324 L117 324 C117 324 156 425 219 425 C251 425 268 401 275 368 C280 342 280 289 279 262 L245 257 C142 241 24 192 24 94 L24 94 Z M86 525 L119 503 L226 616 L333 503 L366 525 L249 701 L204 701 L86 525 Z M183 55 C151 55 130 79 130 115 C130 180 195 209 250 218 L279 223 L279 102 C256 83 216 55 183 55 L183 55 Z " />
<glyph glyph-name="atilde" unicode="&#xe3;" horiz-adv-x="469" d="M24 94 C24 31 70 -12 133 -12 C230 -12 282 78 282 78 L282 57 C282 11 314 -12 357 -12 C423 -12 471 41 471 41 L457 65 C457 65 431 46 407 46 C385 46 381 62 381 93 L381 321 C381 425 356 464 257 464 C137 464 60 405 60 405 L79 324 L117 324 C117 324 156 425 219 425 C251 425 268 401 275 368 C280 342 280 289 279 262 L245 257 C142 241 24 192 24 94 L24 94 Z M183 55 C151 55 130 79 130 115 C130 180 195 209 250 218 L279 223 L279 102 C256 83 216 55 183 55 L183 55 Z M75 560 L116 560 C116 560 114 623 160 623 C204 623 218 550 286 550 C389 550 378 684 378 684 L337 684 C337 684 339 618 292 618 C248 618 232 690 163 690 C62 690 75 560 75 560 L75 560 Z " />
<glyph glyph-name="adieresis" unicode="&#xe4;" horiz-adv-x="469" d="M24 94 C24 31 70 -12 133 -12 C230 -12 282 78 282 78 L282 57 C282 11 314 -12 357 -12 C423 -12 471 41 471 41 L457 65 C457 65 431 46 407 46 C385 46 381 62 381 93 L381 321 C381 425 356 464 257 464 C137 464 60 405 60 405 L79 324 L117 324 C117 324 156 425 219 425 C251 425 268 401 275 368 C280 342 280 289 279 262 L245 257 C142 241 24 192 24 94 L24 94 Z M183 55 C151 55 130 79 130 115 C130 180 195 209 250 218 L279 223 L279 102 C256 83 216 55 183 55 L183 55 Z M125 561 C159 561 186 587 186 620 C186 654 159 680 125 680 C92 680 65 654 65 620 C65 587 92 561 125 561 L125 561 Z M326 561 C360 561 387 587 387 620 C387 654 360 680 326 680 C292 680 265 654 265 620 C265 587 292 561 326 561 L326 561 Z " />
<glyph glyph-name="aring" unicode="&#xe5;" horiz-adv-x="469" d="M24 94 C24 31 70 -12 133 -12 C230 -12 282 78 282 78 L282 57 C282 11 314 -12 357 -12 C423 -12 471 41 471 41 L457 65 C457 65 431 46 407 46 C385 46 381 62 381 93 L381 321 C381 425 356 464 257 464 C137 464 60 405 60 405 L79 324 L117 324 C117 324 156 425 219 425 C251 425 268 401 275 368 C280 342 280 289 279 262 L245 257 C142 241 24 192 24 94 L24 94 Z M226 536 C293 536 323 582 323 623 C323 664 293 707 226 707 C159 707 129 664 129 623 C129 582 159 536 226 536 L226 536 Z M183 55 C151 55 130 79 130 115 C130 180 195 209 250 218 L279 223 L279 102 C256 83 216 55 183 55 L183 55 Z M226 573 C195 573 180 597 180 622 C180 646 193 669 226 669 C258 669 273 646 273 622 C273 597 256 573 226 573 L226 573 Z " />
<glyph glyph-name="ae" unicode="&#xe6;" horiz-adv-x="709" d="M22 95 C22 30 73 -12 148 -12 C237 -12 292 51 313 111 C341 34 405 -12 492 -12 C619 -12 676 85 676 85 L665 110 C665 110 617 65 539 65 C427 65 383 154 380 242 L619 280 C638 283 673 295 673 295 C670 409 589 464 501 464 C444 464 400 440 367 405 C353 444 326 464 260 464 C144 464 66 405 66 405 L85 324 L123 324 C123 324 160 425 226 425 C279 425 286 363 286 294 L286 269 C139 248 22 193 22 95 L22 95 Z M181 55 C147 55 128 80 128 115 C128 188 209 217 285 229 L285 186 C285 102 227 55 181 55 L181 55 Z M483 422 C562 422 566 313 566 313 L381 284 C389 358 426 422 483 422 L483 422 Z " />
<glyph glyph-name="ccedilla" unicode="&#xe7;" horiz-adv-x="444" d="M178 -84 C178 -123 253 -125 253 -158 C253 -179 231 -191 204 -191 C167 -191 133 -165 133 -165 L117 -200 C117 -200 152 -237 212 -237 C278 -237 326 -190 326 -139 C326 -70 239 -77 239 -44 C239 -36 243 -22 246 -12 L248 -12 C370 -12 419 79 419 79 L408 103 C408 103 363 65 291 65 C179 65 131 152 131 251 C131 344 173 426 248 426 C318 426 321 345 374 345 C401 345 417 365 417 386 C417 442 318 464 258 464 C112 464 33 336 33 216 C33 110 95 9 211 -9 C200 -25 178 -61 178 -84 L178 -84 Z " />
<glyph glyph-name="egrave" unicode="&#xe8;" horiz-adv-x="461" d="M33 217 C33 99 107 -12 251 -12 C373 -12 426 85 426 85 L415 110 C415 110 367 65 290 65 C182 65 138 146 131 231 L140 243 L373 277 C393 280 428 293 428 293 C424 409 340 464 252 464 C127 464 33 354 33 217 L33 217 Z M234 422 C315 422 321 308 321 308 L131 283 C137 358 173 422 234 422 L234 422 Z M101 678 L249 506 L284 525 L203 696 L101 705 L101 678 Z " />
<glyph glyph-name="eacute" unicode="&#xe9;" horiz-adv-x="461" d="M33 217 C33 99 107 -12 251 -12 C373 -12 426 85 426 85 L415 110 C415 110 367 65 290 65 C182 65 138 146 131 231 L140 243 L373 277 C393 280 428 293 428 293 C424 409 340 464 252 464 C127 464 33 354 33 217 L33 217 Z M234 422 C315 422 321 308 321 308 L131 283 C137 358 173 422 234 422 L234 422 Z M227 506 L375 678 L375 705 L274 696 L193 525 L227 506 Z " />
<glyph glyph-name="ecircumflex" unicode="&#xea;" horiz-adv-x="461" d="M33 217 C33 99 107 -12 251 -12 C373 -12 426 85 426 85 L415 110 C415 110 367 65 290 65 C182 65 138 146 131 231 L140 243 L373 277 C393 280 428 293 428 293 C424 409 340 464 252 464 C127 464 33 354 33 217 L33 217 Z M98 525 L131 503 L238 616 L345 503 L378 525 L261 701 L216 701 L98 525 Z M234 422 C315 422 321 308 321 308 L131 283 C137 358 173 422 234 422 L234 422 Z " />
<glyph glyph-name="edieresis" unicode="&#xeb;" horiz-adv-x="461" d="M33 217 C33 99 107 -12 251 -12 C373 -12 426 85 426 85 L415 110 C415 110 367 65 290 65 C182 65 138 146 131 231 L140 243 L373 277 C393 280 428 293 428 293 C424 409 340 464 252 464 C127 464 33 354 33 217 L33 217 Z M234 422 C315 422 321 308 321 308 L131 283 C137 358 173 422 234 422 L234 422 Z M338 561 C372 561 399 587 399 620 C399 654 372 680 338 680 C304 680 277 654 277 620 C277 587 304 561 338 561 L338 561 Z M137 561 C171 561 198 587 198 620 C198 654 171 680 137 680 C104 680 77 654 77 620 C77 587 104 561 137 561 L137 561 Z " />
<glyph glyph-name="igrave" unicode="&#xec;" horiz-adv-x="288" d="M35 -3 L271 3 L275 30 L192 39 C192 39 197 63 197 93 L197 361 C197 442 207 475 207 475 L205 478 C205 478 156 457 22 430 L22 401 L65 401 C94 401 95 376 95 334 L95 93 C95 57 78 33 35 28 L35 -3 Z M0 678 L148 506 L183 525 L102 696 L0 705 L0 678 Z " />
<glyph glyph-name="iacute" unicode="&#xed;" horiz-adv-x="288" d="M127 506 L275 678 L275 705 L174 696 L93 525 L127 506 Z M35 -3 L271 3 L275 30 L192 39 C192 39 197 63 197 93 L197 361 C197 442 207 475 207 475 L205 478 C205 478 156 457 22 430 L22 401 L65 401 C94 401 95 376 95 334 L95 93 C95 57 78 33 35 28 L35 -3 Z " />
<glyph glyph-name="icircumflex" unicode="&#xee;" horiz-adv-x="288" d="M-3 525 L30 503 L137 616 L244 503 L277 525 L160 701 L115 701 L-3 525 Z M35 -3 L271 3 L275 30 L192 39 C192 39 197 63 197 93 L197 361 C197 442 207 475 207 475 L205 478 C205 478 156 457 22 430 L22 401 L65 401 C94 401 95 376 95 334 L95 93 C95 57 78 33 35 28 L35 -3 Z " />
<glyph glyph-name="idieresis" unicode="&#xef;" horiz-adv-x="288" d="M-15 620 C-15 587 12 561 46 561 C79 561 106 587 106 620 C106 654 79 680 46 680 C12 680 -15 654 -15 620 L-15 620 Z M167 620 C167 587 193 561 227 561 C261 561 288 587 288 620 C288 654 261 680 227 680 C193 680 167 654 167 620 L167 620 Z M35 -3 L271 3 L275 30 L192 39 C192 39 197 63 197 93 L197 361 C197 442 207 475 207 475 L205 478 C205 478 156 457 22 430 L22 401 L65 401 C94 401 95 376 95 334 L95 93 C95 57 78 33 35 28 L35 -3 Z " />
<glyph glyph-name="eth" unicode="&#xf0;" horiz-adv-x="529" d="M125 511 L259 590 C296 548 323 500 342 450 C323 457 297 464 263 464 C119 464 32 335 32 209 C32 94 105 -12 245 -12 C399 -12 485 115 485 282 C485 413 429 540 327 629 L446 700 L426 739 L289 659 C232 698 165 726 88 741 L77 711 C137 691 187 660 228 622 L104 550 L125 511 Z M138 227 C138 340 194 424 276 424 C336 424 363 376 371 337 C377 308 378 281 378 253 C378 104 319 26 253 26 C174 26 138 138 138 227 L138 227 Z " />
<glyph glyph-name="ntilde" unicode="&#xf1;" horiz-adv-x="578" d="M35 -3 L261 3 L265 30 L192 40 C192 40 197 63 197 93 L197 336 C235 371 287 391 327 391 C367 391 391 373 391 300 L391 93 C391 57 379 33 339 28 L339 -3 L566 3 L570 30 L488 40 C488 40 493 63 493 93 L493 329 C493 426 445 464 376 464 C293 464 227 408 192 358 C194 447 203 475 203 475 L200 478 C200 478 129 449 22 430 L22 401 L65 401 C94 401 95 376 95 334 L95 93 C95 57 78 33 35 28 L35 -3 Z M142 560 L183 560 C183 560 181 623 227 623 C271 623 285 550 353 550 C456 550 445 684 445 684 L404 684 C404 684 406 618 359 618 C315 618 299 690 230 690 C129 690 142 560 142 560 L142 560 Z " />
<glyph glyph-name="ograve" unicode="&#xf2;" horiz-adv-x="538" d="M33 216 C33 86 118 -12 261 -12 C425 -12 505 119 505 244 C505 370 423 464 275 464 C102 464 33 334 33 216 L33 216 Z M145 241 C145 335 181 426 264 426 C356 426 392 315 393 220 C393 128 360 26 275 26 C183 26 145 142 145 241 L145 241 Z M131 678 L279 506 L314 525 L233 696 L131 705 L131 678 Z " />
<glyph glyph-name="oacute" unicode="&#xf3;" horiz-adv-x="538" d="M257 506 L405 678 L405 705 L304 696 L223 525 L257 506 Z M33 216 C33 86 118 -12 261 -12 C425 -12 505 119 505 244 C505 370 423 464 275 464 C102 464 33 334 33 216 L33 216 Z M145 241 C145 335 181 426 264 426 C356 426 392 315 393 220 C393 128 360 26 275 26 C183 26 145 142 145 241 L145 241 Z " />
<glyph glyph-name="ocircumflex" unicode="&#xf4;" horiz-adv-x="538" d="M128 525 L161 503 L268 616 L375 503 L408 525 L291 701 L246 701 L128 525 Z M33 216 C33 86 118 -12 261 -12 C425 -12 505 119 505 244 C505 370 423 464 275 464 C102 464 33 334 33 216 L33 216 Z M145 241 C145 335 181 426 264 426 C356 426 392 315 393 220 C393 128 360 26 275 26 C183 26 145 142 145 241 L145 241 Z " />
<glyph glyph-name="otilde" unicode="&#xf5;" horiz-adv-x="538" d="M33 216 C33 86 118 -12 261 -12 C425 -12 505 119 505 244 C505 370 423 464 275 464 C102 464 33 334 33 216 L33 216 Z M145 241 C145 335 181 426 264 426 C356 426 392 315 393 220 C393 128 360 26 275 26 C183 26 145 142 145 241 L145 241 Z M117 560 L158 560 C158 560 156 623 202 623 C246 623 260 550 328 550 C431 550 420 684 420 684 L379 684 C379 684 381 618 334 618 C290 618 274 690 205 690 C104 690 117 560 117 560 L117 560 Z " />
<glyph glyph-name="odieresis" unicode="&#xf6;" horiz-adv-x="538" d="M167 561 C201 561 228 587 228 620 C228 654 201 680 167 680 C134 680 107 654 107 620 C107 587 134 561 167 561 L167 561 Z M368 561 C402 561 429 587 429 620 C429 654 402 680 368 680 C334 680 307 654 307 620 C307 587 334 561 368 561 L368 561 Z M33 216 C33 86 118 -12 261 -12 C425 -12 505 119 505 244 C505 370 423 464 275 464 C102 464 33 334 33 216 L33 216 Z M145 241 C145 335 181 426 264 426 C356 426 392 315 393 220 C393 128 360 26 275 26 C183 26 145 142 145 241 L145 241 Z " />
<glyph glyph-name="divide" unicode="&#xf7;" horiz-adv-x="520" d="M36 221 L484 221 L484 283 L36 283 L36 221 Z M196 62 C196 27 225 -2 260 -2 C296 -2 324 27 324 62 C324 98 296 127 260 127 C225 127 196 98 196 62 L196 62 Z M260 377 C296 377 324 406 324 441 C324 476 296 505 260 505 C225 505 196 476 196 441 C196 406 225 377 260 377 L260 377 Z " />
<glyph glyph-name="oslash" unicode="&#xf8;" horiz-adv-x="538" d="M49 -30 L106 -30 L141 17 C174 -1 214 -12 261 -12 C425 -12 505 119 505 244 C505 313 480 372 434 411 L486 482 L431 482 L397 437 C363 454 322 464 275 464 C102 464 33 334 33 216 C33 145 58 84 103 43 L49 -30 Z M393 220 C393 128 360 26 275 26 C236 26 207 46 186 77 L374 331 C387 297 392 257 393 220 L393 220 Z M145 241 C145 335 181 426 264 426 C302 426 331 406 352 376 L164 124 C151 160 145 202 145 241 L145 241 Z " />
<glyph glyph-name="ugrave" unicode="&#xf9;" horiz-adv-x="566" d="M80 122 C80 26 128 -12 199 -12 C290 -12 356 66 376 96 L376 48 C376 23 368 -6 368 -6 L371 -9 C371 -9 432 0 552 11 L555 40 L529 40 C496 40 473 40 473 97 L473 361 C473 438 482 466 482 466 L479 469 C479 469 437 454 312 431 L312 401 L341 401 C370 401 371 376 371 333 L371 119 C347 94 293 59 246 59 C208 59 182 78 182 152 L182 361 C182 438 191 466 191 466 L188 469 C188 469 147 454 18 431 L18 401 L50 401 C79 401 80 376 80 333 L80 122 Z M139 678 L287 506 L322 525 L241 696 L139 705 L139 678 Z " />
<glyph glyph-name="uacute" unicode="&#xfa;" horiz-adv-x="566" d="M265 506 L413 678 L413 705 L312 696 L231 525 L265 506 Z M80 122 C80 26 128 -12 199 -12 C290 -12 356 66 376 96 L376 48 C376 23 368 -6 368 -6 L371 -9 C371 -9 432 0 552 11 L555 40 L529 40 C496 40 473 40 473 97 L473 361 C473 438 482 466 482 466 L479 469 C479 469 437 454 312 431 L312 401 L341 401 C370 401 371 376 371 333 L371 119 C347 94 293 59 246 59 C208 59 182 78 182 152 L182 361 C182 438 191 466 191 466 L188 469 C188 469 147 454 18 431 L18 401 L50 401 C79 401 80 376 80 333 L80 122 Z " />
<glyph glyph-name="ucircumflex" unicode="&#xfb;" horiz-adv-x="566" d="M136 525 L169 503 L276 616 L383 503 L416 525 L299 701 L254 701 L136 525 Z M80 122 C80 26 128 -12 199 -12 C290 -12 356 66 376 96 L376 48 C376 23 368 -6 368 -6 L371 -9 C371 -9 432 0 552 11 L555 40 L529 40 C496 40 473 40 473 97 L473 361 C473 438 482 466 482 466 L479 469 C479 469 437 454 312 431 L312 401 L341 401 C370 401 371 376 371 333 L371 119 C347 94 293 59 246 59 C208 59 182 78 182 152 L182 361 C182 438 191 466 191 466 L188 469 C188 469 147 454 18 431 L18 401 L50 401 C79 401 80 376 80 333 L80 122 Z " />
<glyph glyph-name="udieresis" unicode="&#xfc;" horiz-adv-x="566" d="M175 561 C209 561 236 587 236 620 C236 654 209 680 175 680 C142 680 115 654 115 620 C115 587 142 561 175 561 L175 561 Z M376 561 C410 561 437 587 437 620 C437 654 410 680 376 680 C342 680 315 654 315 620 C315 587 342 561 376 561 L376 561 Z M80 122 C80 26 128 -12 199 -12 C290 -12 356 66 376 96 L376 48 C376 23 368 -6 368 -6 L371 -9 C371 -9 432 0 552 11 L555 40 L529 40 C496 40 473 40 473 97 L473 361 C473 438 482 466 482 466 L479 469 C479 469 437 454 312 431 L312 401 L341 401 C370 401 371 376 371 333 L371 119 C347 94 293 59 246 59 C208 59 182 78 182 152 L182 361 C182 438 191 466 191 466 L188 469 C188 469 147 454 18 431 L18 401 L50 401 C79 401 80 376 80 333 L80 122 Z " />
<glyph glyph-name="yacute" unicode="&#xfd;" horiz-adv-x="465" d="M74 -146 C32 -146 18 -169 18 -191 C18 -216 35 -237 67 -237 C171 -237 233 -63 264 8 L428 383 C445 424 462 436 462 436 L457 452 L315 452 L315 425 C352 415 386 393 370 353 L264 109 C259 127 251 151 245 168 L167 360 C156 388 156 428 168 452 L164 456 C164 456 118 452 43 452 L-4 452 L-4 425 C-4 425 32 417 53 367 L184 60 C196 30 206 4 211 -12 L189 -63 C167 -114 131 -146 74 -146 L74 -146 Z M237 506 L385 678 L385 705 L284 696 L203 525 L237 506 Z " />
<glyph glyph-name="thorn" unicode="&#xfe;" horiz-adv-x="526" d="M174 84 L174 363 C203 383 233 396 264 396 C349 396 386 304 386 215 C386 110 333 32 237 32 C208 32 174 38 174 84 L174 84 Z M72 -119 C72 -165 65 -189 22 -214 L22 -245 C101 -221 267 -201 267 -201 L271 -175 L169 -175 C169 -175 174 -148 174 -118 L174 -7 C192 -9 211 -12 235 -12 C408 -12 493 120 493 248 C493 362 426 464 311 464 C246 464 205 431 171 387 C171 387 174 435 174 475 L174 626 C174 703 184 740 184 740 L181 743 C181 743 136 723 2 695 L2 666 L42 666 C71 666 72 641 72 599 L72 -119 Z " />
<glyph glyph-name="ydieresis" unicode="&#xff;" horiz-adv-x="465" d="M74 -146 C32 -146 18 -169 18 -191 C18 -216 35 -237 67 -237 C171 -237 233 -63 264 8 L428 383 C445 424 462 436 462 436 L457 452 L315 452 L315 425 C352 415 386 393 370 353 L264 109 C259 127 251 151 245 168 L167 360 C156 388 156 428 168 452 L164 456 C164 456 118 452 43 452 L-4 452 L-4 425 C-4 425 32 417 53 367 L184 60 C196 30 206 4 211 -12 L189 -63 C167 -114 131 -146 74 -146 L74 -146 Z M349 561 C383 561 410 587 410 620 C410 654 383 680 349 680 C315 680 288 654 288 620 C288 587 315 561 349 561 L349 561 Z M148 561 C182 561 209 587 209 620 C209 654 182 680 148 680 C115 680 88 654 88 620 C88 587 115 561 148 561 L148 561 Z " />
<glyph glyph-name="Amacron" unicode="&#x100;" horiz-adv-x="624" d="M-15 0 L175 0 L180 31 L95 42 L159 209 L173 219 L400 219 L455 72 C466 42 442 34 414 33 L414 -3 C414 -3 544 0 585 0 L627 0 L631 29 C597 34 580 47 558 105 L337 674 L287 663 L52 77 C44 56 26 35 -15 31 L-15 0 Z M307 472 L383 266 L180 266 L285 540 C290 522 300 493 307 472 L307 472 Z M176 762 L448 762 L448 827 L176 827 L176 762 Z " />
<glyph glyph-name="amacron" unicode="&#x101;" horiz-adv-x="469" d="M24 94 C24 31 70 -12 133 -12 C230 -12 282 78 282 78 L282 57 C282 11 314 -12 357 -12 C423 -12 471 41 471 41 L457 65 C457 65 431 46 407 46 C385 46 381 62 381 93 L381 321 C381 425 356 464 257 464 C137 464 60 405 60 405 L79 324 L117 324 C117 324 156 425 219 425 C251 425 268 401 275 368 C280 342 280 289 279 262 L245 257 C142 241 24 192 24 94 L24 94 Z M183 55 C151 55 130 79 130 115 C130 180 195 209 250 218 L279 223 L279 102 C256 83 216 55 183 55 L183 55 Z M105 585 L347 585 L347 650 L105 650 L105 585 Z " />
<glyph glyph-name="Abreve" unicode="&#x102;" horiz-adv-x="624" d="M-15 0 L175 0 L180 31 L95 42 L159 209 L173 219 L400 219 L455 72 C466 42 442 34 414 33 L414 -3 C414 -3 544 0 585 0 L627 0 L631 29 C597 34 580 47 558 105 L337 674 L287 663 L52 77 C44 56 26 35 -15 31 L-15 0 Z M307 472 L383 266 L180 266 L285 540 C290 522 300 493 307 472 L307 472 Z M312 718 C397 718 455 767 455 838 C455 848 454 859 451 871 L410 871 C413 802 357 789 312 789 C266 789 208 804 213 871 L173 871 C170 858 168 847 168 836 C168 764 228 718 312 718 L312 718 Z " />
<glyph glyph-name="abreve" unicode="&#x103;" horiz-adv-x="469" d="M24 94 C24 31 70 -12 133 -12 C230 -12 282 78 282 78 L282 57 C282 11 314 -12 357 -12 C423 -12 471 41 471 41 L457 65 C457 65 431 46 407 46 C385 46 381 62 381 93 L381 321 C381 425 356 464 257 464 C137 464 60 405 60 405 L79 324 L117 324 C117 324 156 425 219 425 C251 425 268 401 275 368 C280 342 280 289 279 262 L245 257 C142 241 24 192 24 94 L24 94 Z M226 541 C303 541 360 591 360 662 C360 674 358 686 355 700 L316 700 L316 690 C316 653 292 611 226 611 C160 611 136 653 136 690 L136 700 L97 700 C93 686 92 674 92 662 C92 591 149 541 226 541 L226 541 Z M183 55 C151 55 130 79 130 115 C130 180 195 209 250 218 L279 223 L279 102 C256 83 216 55 183 55 L183 55 Z " />
<glyph glyph-name="Aogonek" unicode="&#x104;" horiz-adv-x="624" d="M-15 0 L175 0 L180 31 L95 42 L159 209 L173 219 L400 219 L455 72 C466 42 442 34 414 33 L414 -3 C414 -3 475 -1 527 0 C464 -58 411 -101 411 -155 C411 -201 452 -237 512 -237 C538 -237 568 -231 596 -220 L588 -191 C588 -191 576 -193 566 -193 C535 -193 502 -173 502 -132 C502 -74 569 0 605 0 L627 0 L631 29 C597 34 580 47 558 105 L337 674 L287 663 L52 77 C44 56 26 35 -15 31 L-15 0 Z M307 472 L383 266 L180 266 L285 540 C290 522 300 493 307 472 L307 472 Z " />
<glyph glyph-name="aogonek" unicode="&#x105;" horiz-adv-x="470" d="M24 94 C24 31 70 -12 133 -12 C230 -12 282 78 282 78 L282 57 C282 11 313 -11 355 -12 C297 -64 251 -104 251 -155 C251 -201 292 -237 352 -237 C378 -237 408 -231 436 -220 L428 -191 C428 -191 414 -193 406 -193 C375 -193 342 -174 342 -131 C342 -74 407 -11 439 14 C458 27 471 41 471 41 L457 65 C457 65 431 46 407 46 C385 46 381 62 381 93 L381 321 C381 425 356 464 257 464 C137 464 60 405 60 405 L79 324 L117 324 C117 324 156 425 219 425 C251 425 268 401 275 368 C280 342 280 289 279 262 L245 257 C142 241 24 192 24 94 L24 94 Z M183 55 C151 55 130 79 130 115 C130 180 195 209 250 218 L279 223 L279 102 C256 83 216 55 183 55 L183 55 Z " />
<glyph glyph-name="Cacute" unicode="&#x106;" horiz-adv-x="682" d="M40 325 C40 128 194 -12 391 -12 C571 -12 649 111 649 111 L634 134 C634 134 557 64 437 64 C280 64 152 176 152 359 C152 510 239 636 396 636 C482 636 567 602 569 500 L605 500 L635 654 C582 659 490 679 410 679 C180 679 40 514 40 325 L40 325 Z M279 757 L295 720 L505 778 L505 805 L468 865 L463 865 L279 757 Z " />
<glyph glyph-name="cacute" unicode="&#x107;" horiz-adv-x="444" d="M229 506 L377 678 L377 705 L276 696 L195 525 L229 506 Z M33 216 C33 100 108 -12 248 -12 C370 -12 419 79 419 79 L408 103 C408 103 363 65 291 65 C179 65 131 152 131 251 C131 344 173 426 248 426 C318 426 321 345 374 345 C401 345 417 365 417 386 C417 442 318 464 258 464 C112 464 33 336 33 216 L33 216 Z " />
<glyph glyph-name="Ccircumflex" unicode="&#x108;" horiz-adv-x="682" d="M40 325 C40 128 194 -12 391 -12 C571 -12 649 111 649 111 L634 134 C634 134 557 64 437 64 C280 64 152 176 152 359 C152 510 239 636 396 636 C482 636 567 602 569 500 L605 500 L635 654 C582 659 490 679 410 679 C180 679 40 514 40 325 L40 325 Z M211 744 L241 718 L371 794 L377 794 L507 718 L537 744 L405 871 L344 871 L211 744 Z " />
<glyph glyph-name="ccircumflex" unicode="&#x109;" horiz-adv-x="444" d="M101 525 L134 503 L241 616 L348 503 L381 525 L264 701 L219 701 L101 525 Z M33 216 C33 100 108 -12 248 -12 C370 -12 419 79 419 79 L408 103 C408 103 363 65 291 65 C179 65 131 152 131 251 C131 344 173 426 248 426 C318 426 321 345 374 345 C401 345 417 365 417 386 C417 442 318 464 258 464 C112 464 33 336 33 216 L33 216 Z " />
<glyph glyph-name="Cdotaccent" unicode="&#x10a;" horiz-adv-x="682" d="M374 733 C409 733 437 760 437 794 C437 829 409 855 374 855 C339 855 311 829 311 794 C311 760 339 733 374 733 L374 733 Z M40 325 C40 128 194 -12 391 -12 C571 -12 649 111 649 111 L634 134 C634 134 557 64 437 64 C280 64 152 176 152 359 C152 510 239 636 396 636 C482 636 567 602 569 500 L605 500 L635 654 C582 659 490 679 410 679 C180 679 40 514 40 325 L40 325 Z " />
<glyph glyph-name="cdotaccent" unicode="&#x10b;" horiz-adv-x="444" d="M33 216 C33 100 108 -12 248 -12 C370 -12 419 79 419 79 L408 103 C408 103 363 65 291 65 C179 65 131 152 131 251 C131 344 173 426 248 426 C318 426 321 345 374 345 C401 345 417 365 417 386 C417 442 318 464 258 464 C112 464 33 336 33 216 L33 216 Z M241 560 C276 560 304 586 304 621 C304 655 276 682 241 682 C206 682 178 655 178 621 C178 586 206 560 241 560 L241 560 Z " />
<glyph glyph-name="Ccaron" unicode="&#x10c;" horiz-adv-x="682" d="M40 325 C40 128 194 -12 391 -12 C571 -12 649 111 649 111 L634 134 C634 134 557 64 437 64 C280 64 152 176 152 359 C152 510 239 636 396 636 C482 636 567 602 569 500 L605 500 L635 654 C582 659 490 679 410 679 C180 679 40 514 40 325 L40 325 Z M211 845 L343 718 L405 718 L537 845 L507 871 L377 794 L371 794 L241 871 L211 845 Z " />
<glyph glyph-name="ccaron" unicode="&#x10d;" horiz-adv-x="444" d="M219 523 L264 523 L381 690 L348 712 L241 607 L134 712 L101 690 L219 523 Z M33 216 C33 100 108 -12 248 -12 C370 -12 419 79 419 79 L408 103 C408 103 363 65 291 65 C179 65 131 152 131 251 C131 344 173 426 248 426 C318 426 321 345 374 345 C401 345 417 365 417 386 C417 442 318 464 258 464 C112 464 33 336 33 216 L33 216 Z " />
<glyph glyph-name="Dcaron" unicode="&#x10e;" horiz-adv-x="745" d="M49 -3 C49 -3 147 0 205 0 L288 0 C528 0 705 131 705 359 C705 586 521 667 323 667 L39 667 L39 640 C113 625 118 615 118 567 L118 93 C118 57 92 36 49 31 L49 -3 Z M221 45 C221 45 226 71 226 101 L226 611 L237 622 L321 622 C493 622 585 506 585 333 C585 162 496 45 288 45 L221 45 Z M194 845 L326 718 L388 718 L520 845 L490 871 L360 794 L354 794 L224 871 L194 845 Z " />
<glyph glyph-name="dcaron" unicode="&#x10f;" horiz-adv-x="547" d="M516 545 L560 545 L640 721 L640 747 L541 737 L516 545 Z M33 203 C33 89 104 -12 219 -12 C285 -12 332 25 359 67 L359 48 C359 23 354 -6 354 -6 L356 -8 C356 -8 416 0 536 11 L539 40 L513 40 C480 40 457 40 457 97 L457 626 C457 703 467 740 467 740 L464 743 C464 743 420 723 285 695 L285 666 L325 666 C354 666 355 641 355 599 L355 459 C355 459 325 464 292 464 C123 464 33 331 33 203 L33 203 Z M264 56 C180 56 140 149 140 236 C140 341 197 421 293 421 C320 421 355 415 355 368 L355 90 C336 76 303 56 264 56 L264 56 Z " />
<glyph glyph-name="Dcroat" unicode="&#x110;" horiz-adv-x="745" d="M29 315 L118 315 L118 93 C118 57 92 36 48 31 L48 -3 C48 -3 147 0 205 0 L288 0 C527 0 705 131 705 359 C705 586 521 667 322 667 L38 667 L38 640 C113 625 118 615 118 567 L118 363 L29 363 L29 315 Z M221 45 C221 45 226 71 226 101 L226 315 L383 315 L383 363 L226 363 L226 611 L237 622 L321 622 C493 622 585 506 585 333 C585 162 496 45 288 45 L221 45 Z " />
<glyph glyph-name="dcroat" unicode="&#x111;" horiz-adv-x="547" d="M218 527 L355 527 L355 459 C355 459 325 464 292 464 C123 464 33 331 33 203 C33 89 104 -12 219 -12 C285 -12 332 25 359 67 L359 48 C359 23 354 -6 354 -6 L356 -8 C356 -8 416 0 536 11 L539 40 L513 40 C480 40 457 40 457 97 L457 527 L532 527 L532 575 L457 575 L457 626 C457 703 467 740 467 740 L464 743 C464 743 420 723 285 695 L285 666 L325 666 C354 666 355 641 355 599 L355 575 L218 575 L218 527 Z M264 56 C180 56 140 149 140 236 C140 341 197 421 293 421 C320 421 355 415 355 368 L355 90 C336 76 303 56 264 56 L264 56 Z " />
<glyph glyph-name="Emacron" unicode="&#x112;" horiz-adv-x="588" d="M49 -3 C49 -3 147 0 205 0 L518 0 L555 166 L519 166 C469 61 457 45 371 45 L221 45 C221 45 226 71 226 101 L226 306 L237 317 L402 317 L402 242 L451 242 L451 425 L412 419 L404 361 L226 361 L226 611 L237 622 L360 622 C440 622 473 603 468 500 L504 500 L535 671 C535 671 502 667 461 667 L39 667 L39 640 C113 625 118 615 118 567 L118 93 C118 57 92 36 49 31 L49 -3 Z M173 762 L445 762 L445 827 L173 827 L173 762 Z " />
<glyph glyph-name="emacron" unicode="&#x113;" horiz-adv-x="461" d="M33 217 C33 99 107 -12 251 -12 C373 -12 426 85 426 85 L415 110 C415 110 367 65 290 65 C182 65 138 146 131 231 L140 243 L373 277 C393 280 428 293 428 293 C424 409 340 464 252 464 C127 464 33 354 33 217 L33 217 Z M234 422 C315 422 321 308 321 308 L131 283 C137 358 173 422 234 422 L234 422 Z M117 585 L359 585 L359 650 L117 650 L117 585 Z " />
<glyph glyph-name="Ebreve" unicode="&#x114;" horiz-adv-x="588" d="M49 -3 C49 -3 147 0 205 0 L518 0 L555 166 L519 166 C469 61 457 45 371 45 L221 45 C221 45 226 71 226 101 L226 306 L237 317 L402 317 L402 242 L451 242 L451 425 L412 419 L404 361 L226 361 L226 611 L237 622 L360 622 C440 622 473 603 468 500 L504 500 L535 671 C535 671 502 667 461 667 L39 667 L39 640 C113 625 118 615 118 567 L118 93 C118 57 92 36 49 31 L49 -3 Z M309 718 C394 718 452 767 452 838 C452 848 451 859 448 871 L407 871 C410 802 354 789 309 789 C263 789 205 804 210 871 L170 871 C167 858 165 847 165 836 C165 764 225 718 309 718 L309 718 Z " />
<glyph glyph-name="ebreve" unicode="&#x115;" horiz-adv-x="461" d="M33 217 C33 99 107 -12 251 -12 C373 -12 426 85 426 85 L415 110 C415 110 367 65 290 65 C182 65 138 146 131 231 L140 243 L373 277 C393 280 428 293 428 293 C424 409 340 464 252 464 C127 464 33 354 33 217 L33 217 Z M238 541 C315 541 372 591 372 662 C372 674 370 686 367 700 L328 700 L328 690 C328 653 304 611 238 611 C172 611 148 653 148 690 L148 700 L109 700 C105 686 104 674 104 662 C104 591 161 541 238 541 L238 541 Z M234 422 C315 422 321 308 321 308 L131 283 C137 358 173 422 234 422 L234 422 Z " />
<glyph glyph-name="Edotaccent" unicode="&#x116;" horiz-adv-x="588" d="M309 733 C344 733 372 760 372 794 C372 829 344 855 309 855 C274 855 246 829 246 794 C246 760 274 733 309 733 L309 733 Z M49 -3 C49 -3 147 0 205 0 L518 0 L555 166 L519 166 C469 61 457 45 371 45 L221 45 C221 45 226 71 226 101 L226 306 L237 317 L402 317 L402 242 L451 242 L451 425 L412 419 L404 361 L226 361 L226 611 L237 622 L360 622 C440 622 473 603 468 500 L504 500 L535 671 C535 671 502 667 461 667 L39 667 L39 640 C113 625 118 615 118 567 L118 93 C118 57 92 36 49 31 L49 -3 Z " />
<glyph glyph-name="edotaccent" unicode="&#x117;" horiz-adv-x="461" d="M33 217 C33 99 107 -12 251 -12 C373 -12 426 85 426 85 L415 110 C415 110 367 65 290 65 C182 65 138 146 131 231 L140 243 L373 277 C393 280 428 293 428 293 C424 409 340 464 252 464 C127 464 33 354 33 217 L33 217 Z M234 422 C315 422 321 308 321 308 L131 283 C137 358 173 422 234 422 L234 422 Z M238 560 C273 560 301 586 301 621 C301 655 273 682 238 682 C203 682 175 655 175 621 C175 586 203 560 238 560 L238 560 Z " />
<glyph glyph-name="Eogonek" unicode="&#x118;" horiz-adv-x="588" d="M49 -3 C49 -3 147 0 205 0 L440 0 C376 -58 323 -101 323 -155 C323 -201 364 -237 424 -237 C450 -237 480 -231 508 -220 L500 -191 C500 -191 488 -193 479 -193 C447 -193 414 -173 414 -132 C414 -74 481 0 517 0 L518 0 L555 166 L519 166 C469 61 457 45 371 45 L221 45 C221 45 226 71 226 101 L226 306 L237 317 L402 317 L402 242 L451 242 L451 425 L412 419 L404 361 L226 361 L226 611 L237 622 L360 622 C440 622 473 603 468 500 L504 500 L535 671 C535 671 502 667 461 667 L39 667 L39 640 C113 625 118 615 118 567 L118 93 C118 57 92 36 49 31 L49 -3 Z " />
<glyph glyph-name="eogonek" unicode="&#x119;" horiz-adv-x="461" d="M33 217 C33 99 107 -12 251 -12 C258 -12 265 -11 272 -11 C214 -64 168 -104 168 -155 C168 -201 208 -237 268 -237 C295 -237 324 -231 352 -220 L344 -191 C344 -191 331 -193 322 -193 C292 -193 258 -174 258 -131 C258 -70 334 0 362 20 C404 48 426 85 426 85 L415 110 C415 110 367 65 290 65 C182 65 138 146 131 231 L140 243 L373 277 C393 280 428 293 428 293 C424 409 340 464 252 464 C127 464 33 354 33 217 L33 217 Z M234 422 C315 422 321 308 321 308 L131 283 C137 358 173 422 234 422 L234 422 Z " />
<glyph glyph-name="Ecaron" unicode="&#x11a;" horiz-adv-x="588" d="M49 -3 C49 -3 147 0 205 0 L518 0 L555 166 L519 166 C469 61 457 45 371 45 L221 45 C221 45 226 71 226 101 L226 306 L237 317 L402 317 L402 242 L451 242 L451 425 L412 419 L404 361 L226 361 L226 611 L237 622 L360 622 C440 622 473 603 468 500 L504 500 L535 671 C535 671 502 667 461 667 L39 667 L39 640 C113 625 118 615 118 567 L118 93 C118 57 92 36 49 31 L49 -3 Z M146 845 L278 718 L340 718 L472 845 L442 871 L312 794 L306 794 L176 871 L146 845 Z " />
<glyph glyph-name="ecaron" unicode="&#x11b;" horiz-adv-x="461" d="M33 217 C33 99 107 -12 251 -12 C373 -12 426 85 426 85 L415 110 C415 110 367 65 290 65 C182 65 138 146 131 231 L140 243 L373 277 C393 280 428 293 428 293 C424 409 340 464 252 464 C127 464 33 354 33 217 L33 217 Z M216 523 L261 523 L378 690 L345 712 L238 607 L131 712 L98 690 L216 523 Z M234 422 C315 422 321 308 321 308 L131 283 C137 358 173 422 234 422 L234 422 Z " />
<glyph glyph-name="Gcircumflex" unicode="&#x11c;" horiz-adv-x="714" d="M226 744 L256 718 L386 794 L392 794 L522 718 L552 744 L420 871 L359 871 L226 744 Z M40 320 C40 105 208 -12 410 -12 C488 -12 577 6 643 14 L643 175 C643 252 682 270 682 270 L677 286 L447 286 L447 259 C535 246 539 234 539 186 L539 48 C506 40 475 37 447 37 C273 37 158 166 158 343 C158 498 244 636 414 636 C491 636 580 610 581 500 L618 500 L648 657 C606 660 505 679 419 679 C158 679 40 499 40 320 L40 320 Z " />
<glyph glyph-name="gcircumflex" unicode="&#x11d;" horiz-adv-x="488" d="M59 71 C59 34 97 15 146 1 C95 -18 20 -48 20 -117 C20 -199 126 -237 215 -237 C337 -237 472 -164 472 -63 C472 22 376 49 290 66 C220 80 161 87 161 114 C161 127 174 144 181 152 C197 149 213 148 230 148 C333 148 427 204 427 298 C427 356 393 386 390 389 C393 389 406 387 424 387 L472 387 L481 457 C481 457 447 444 415 444 L367 444 C315 444 290 464 230 464 C128 464 36 408 36 304 C36 224 91 175 161 156 C125 140 59 118 59 71 L59 71 Z M246 -20 C320 -36 377 -53 377 -102 C377 -159 299 -195 233 -195 C170 -195 112 -162 112 -102 C112 -54 148 -20 169 -4 C194 -9 220 -14 246 -20 L246 -20 Z M232 187 C165 187 139 245 139 306 C139 367 164 425 228 425 C294 425 323 359 323 298 C323 240 298 187 232 187 L232 187 Z M99 525 L132 503 L239 616 L346 503 L379 525 L262 701 L217 701 L99 525 Z " />
<glyph glyph-name="Gbreve" unicode="&#x11e;" horiz-adv-x="714" d="M40 320 C40 105 208 -12 410 -12 C488 -12 577 6 643 14 L643 175 C643 252 682 270 682 270 L677 286 L447 286 L447 259 C535 246 539 234 539 186 L539 48 C506 40 475 37 447 37 C273 37 158 166 158 343 C158 498 244 636 414 636 C491 636 580 610 581 500 L618 500 L648 657 C606 660 505 679 419 679 C158 679 40 499 40 320 L40 320 Z M389 718 C474 718 532 767 532 838 C532 848 531 859 528 871 L487 871 C490 802 434 789 389 789 C343 789 285 804 290 871 L250 871 C247 858 245 847 245 836 C245 764 305 718 389 718 L389 718 Z " />
<glyph glyph-name="gbreve" unicode="&#x11f;" horiz-adv-x="488" d="M59 71 C59 34 97 15 146 1 C95 -18 20 -48 20 -117 C20 -199 126 -237 215 -237 C337 -237 472 -164 472 -63 C472 22 376 49 290 66 C220 80 161 87 161 114 C161 127 174 144 181 152 C197 149 213 148 230 148 C333 148 427 204 427 298 C427 356 393 386 390 389 C393 389 406 387 424 387 L472 387 L481 457 C481 457 447 444 415 444 L367 444 C315 444 290 464 230 464 C128 464 36 408 36 304 C36 224 91 175 161 156 C125 140 59 118 59 71 L59 71 Z M246 -20 C320 -36 377 -53 377 -102 C377 -159 299 -195 233 -195 C170 -195 112 -162 112 -102 C112 -54 148 -20 169 -4 C194 -9 220 -14 246 -20 L246 -20 Z M232 187 C165 187 139 245 139 306 C139 367 164 425 228 425 C294 425 323 359 323 298 C323 240 298 187 232 187 L232 187 Z M239 541 C316 541 373 591 373 662 C373 674 371 686 368 700 L329 700 L329 690 C329 653 305 611 239 611 C173 611 149 653 149 690 L149 700 L110 700 C106 686 105 674 105 662 C105 591 162 541 239 541 L239 541 Z " />
<glyph glyph-name="Gdotaccent" unicode="&#x120;" horiz-adv-x="714" d="M389 733 C424 733 452 760 452 794 C452 829 424 855 389 855 C354 855 326 829 326 794 C326 760 354 733 389 733 L389 733 Z M40 320 C40 105 208 -12 410 -12 C488 -12 577 6 643 14 L643 175 C643 252 682 270 682 270 L677 286 L447 286 L447 259 C535 246 539 234 539 186 L539 48 C506 40 475 37 447 37 C273 37 158 166 158 343 C158 498 244 636 414 636 C491 636 580 610 581 500 L618 500 L648 657 C606 660 505 679 419 679 C158 679 40 499 40 320 L40 320 Z " />
<glyph glyph-name="gdotaccent" unicode="&#x121;" horiz-adv-x="488" d="M59 71 C59 34 97 15 146 1 C95 -18 20 -48 20 -117 C20 -199 126 -237 215 -237 C337 -237 472 -164 472 -63 C472 22 376 49 290 66 C220 80 161 87 161 114 C161 127 174 144 181 152 C197 149 213 148 230 148 C333 148 427 204 427 298 C427 356 393 386 390 389 C393 389 406 387 424 387 L472 387 L481 457 C481 457 447 444 415 444 L367 444 C315 444 290 464 230 464 C128 464 36 408 36 304 C36 224 91 175 161 156 C125 140 59 118 59 71 L59 71 Z M246 -20 C320 -36 377 -53 377 -102 C377 -159 299 -195 233 -195 C170 -195 112 -162 112 -102 C112 -54 148 -20 169 -4 C194 -9 220 -14 246 -20 L246 -20 Z M232 187 C165 187 139 245 139 306 C139 367 164 425 228 425 C294 425 323 359 323 298 C323 240 298 187 232 187 L232 187 Z M239 560 C274 560 302 586 302 621 C302 655 274 682 239 682 C204 682 176 655 176 621 C176 586 204 560 239 560 L239 560 Z " />
<glyph glyph-name="Gcommaaccent" unicode="&#x122;" horiz-adv-x="714" d="M333 -66 C358 -96 376 -126 376 -148 C376 -173 357 -193 318 -215 L340 -246 C398 -219 459 -168 459 -111 C459 -75 436 -43 436 -43 L343 -43 L333 -66 Z M40 320 C40 105 208 -12 410 -12 C488 -12 577 6 643 14 L643 175 C643 252 682 270 682 270 L677 286 L447 286 L447 259 C535 246 539 234 539 186 L539 48 C506 40 475 37 447 37 C273 37 158 166 158 343 C158 498 244 636 414 636 C491 636 580 610 581 500 L618 500 L648 657 C606 660 505 679 419 679 C158 679 40 499 40 320 L40 320 Z " />
<glyph glyph-name="gcommaaccent" unicode="&#x123;" horiz-adv-x="488" d="M285 534 C260 564 242 594 242 616 C242 641 261 661 300 683 L278 714 C220 687 159 636 159 579 C159 543 182 511 182 511 L275 511 L285 534 Z M59 71 C59 34 97 15 146 1 C95 -18 20 -48 20 -117 C20 -199 126 -237 215 -237 C337 -237 472 -164 472 -63 C472 22 376 49 290 66 C220 80 161 87 161 114 C161 127 174 144 181 152 C197 149 213 148 230 148 C333 148 427 204 427 298 C427 356 393 386 390 389 C393 389 406 387 424 387 L472 387 L481 457 C481 457 447 444 415 444 L367 444 C315 444 290 464 230 464 C128 464 36 408 36 304 C36 224 91 175 161 156 C125 140 59 118 59 71 L59 71 Z M246 -20 C320 -36 377 -53 377 -102 C377 -159 299 -195 233 -195 C170 -195 112 -162 112 -102 C112 -54 148 -20 169 -4 C194 -9 220 -14 246 -20 L246 -20 Z M232 187 C165 187 139 245 139 306 C139 367 164 425 228 425 C294 425 323 359 323 298 C323 240 298 187 232 187 L232 187 Z " />
<glyph glyph-name="Hcircumflex" unicode="&#x124;" horiz-adv-x="806" d="M49 -3 L305 3 L309 33 L221 42 C221 42 226 66 226 96 L226 305 L237 315 L585 315 L585 93 C585 59 558 36 515 31 L515 -3 L772 3 L776 33 L688 42 C688 42 693 66 693 96 L693 544 C693 627 726 666 726 666 L721 670 C721 670 695 667 589 667 L513 667 L513 640 C585 625 585 615 585 567 L585 374 L574 363 L226 363 L226 544 C226 627 259 667 259 667 L254 671 C254 671 228 667 122 667 L47 667 L47 640 C118 625 118 615 118 567 L118 96 C118 60 92 36 49 31 L49 -3 Z M242 744 L272 718 L402 794 L408 794 L538 718 L568 744 L436 871 L375 871 L242 744 Z " />
<glyph glyph-name="hcircumflex" unicode="&#x125;" horiz-adv-x="570" d="M26 -3 L252 3 L256 30 L183 39 C183 39 188 63 188 93 L188 337 C226 370 278 391 319 391 C358 391 382 373 382 300 L382 93 C382 57 368 33 330 28 L330 -3 L558 3 L562 30 L479 40 C479 40 484 63 484 93 L484 329 C484 426 437 464 368 464 C285 464 220 409 184 360 C184 369 188 393 188 441 L188 626 C188 703 198 740 198 740 L195 743 C195 743 151 723 16 695 L16 666 L56 666 C85 666 86 641 86 599 L86 93 C86 57 70 33 26 28 L26 -3 Z M12 758 L136 831 L140 831 L265 758 L290 789 L164 907 L113 907 L-14 789 L12 758 Z " />
<glyph glyph-name="Hbar" unicode="&#x126;" horiz-adv-x="806" d="M39 473 L118 473 L118 96 C118 60 92 36 49 31 L49 -3 L305 3 L309 33 L221 42 C221 42 226 66 226 96 L226 305 L237 315 L585 315 L585 93 C585 59 558 36 515 31 L515 -3 L772 3 L776 33 L688 42 C688 42 693 66 693 96 L693 473 L773 473 L773 518 L693 518 L693 544 C693 627 726 666 726 666 L721 670 C721 670 695 667 589 667 L513 667 L513 640 C585 625 585 615 585 567 L585 518 L226 518 L226 544 C226 627 259 667 259 667 L254 671 C254 671 228 667 122 667 L47 667 L47 640 C118 625 118 615 118 567 L118 518 L39 518 L39 473 Z M574 363 L226 363 L226 473 L585 473 L585 374 L574 363 Z " />
<glyph glyph-name="hbar" unicode="&#x127;" horiz-adv-x="570" d="M21 527 L86 527 L86 93 C86 57 70 33 26 28 L26 -3 L252 3 L256 30 L183 39 C183 39 188 63 188 93 L188 337 C226 370 278 391 319 391 C358 391 382 373 382 300 L382 93 C382 57 368 33 330 28 L330 -3 L558 3 L562 30 L479 40 C479 40 484 63 484 93 L484 329 C484 426 437 464 368 464 C285 464 220 409 184 360 C184 369 188 393 188 441 L188 527 L336 527 L336 575 L188 575 L188 626 C188 703 198 740 198 740 L195 743 C195 743 151 723 16 695 L16 666 L56 666 C85 666 86 641 86 599 L86 575 L21 575 L21 527 Z " />
<glyph glyph-name="Itilde" unicode="&#x128;" horiz-adv-x="339" d="M49 -3 L308 3 L312 33 L221 42 C221 42 226 65 226 94 L226 544 C226 627 259 667 259 667 L254 671 C254 671 228 667 122 667 L47 667 L47 640 C118 625 118 615 118 567 L118 94 C118 60 92 36 49 31 L49 -3 Z M24 732 C24 732 37 788 79 788 C126 788 167 732 236 732 C342 732 347 851 347 851 L308 855 C308 855 298 799 253 799 C205 799 152 855 89 855 C-6 855 -14 740 -14 740 L24 732 Z " />
<glyph glyph-name="itilde" unicode="&#x129;" horiz-adv-x="288" d="M35 -3 L271 3 L275 30 L192 39 C192 39 197 63 197 93 L197 361 C197 442 207 475 207 475 L205 478 C205 478 156 457 22 430 L22 401 L65 401 C94 401 95 376 95 334 L95 93 C95 57 78 33 35 28 L35 -3 Z M-13 560 L28 560 C28 560 26 623 72 623 C116 623 130 550 198 550 C301 550 290 684 290 684 L249 684 C249 684 251 618 204 618 C160 618 144 690 75 690 C-26 690 -13 560 -13 560 L-13 560 Z " />
<glyph glyph-name="Imacron" unicode="&#x12a;" horiz-adv-x="339" d="M49 -3 L308 3 L312 33 L221 42 C221 42 226 65 226 94 L226 544 C226 627 259 667 259 667 L254 671 C254 671 228 667 122 667 L47 667 L47 640 C118 625 118 615 118 567 L118 94 C118 60 92 36 49 31 L49 -3 Z M30 762 L302 762 L302 827 L30 827 L30 762 Z " />
<glyph glyph-name="imacron" unicode="&#x12b;" horiz-adv-x="288" d="M35 -3 L271 3 L275 30 L192 39 C192 39 197 63 197 93 L197 361 C197 442 207 475 207 475 L205 478 C205 478 156 457 22 430 L22 401 L65 401 C94 401 95 376 95 334 L95 93 C95 57 78 33 35 28 L35 -3 Z M16 585 L258 585 L258 650 L16 650 L16 585 Z " />
<glyph glyph-name="Ibreve" unicode="&#x12c;" horiz-adv-x="339" d="M49 -3 L308 3 L312 33 L221 42 C221 42 226 65 226 94 L226 544 C226 627 259 667 259 667 L254 671 C254 671 228 667 122 667 L47 667 L47 640 C118 625 118 615 118 567 L118 94 C118 60 92 36 49 31 L49 -3 Z M166 718 C251 718 309 767 309 838 C309 848 308 859 305 871 L264 871 C267 802 211 789 166 789 C120 789 62 804 67 871 L27 871 C24 858 22 847 22 836 C22 764 82 718 166 718 L166 718 Z " />
<glyph glyph-name="ibreve" unicode="&#x12d;" horiz-adv-x="288" d="M35 -3 L271 3 L275 30 L192 39 C192 39 197 63 197 93 L197 361 C197 442 207 475 207 475 L205 478 C205 478 156 457 22 430 L22 401 L65 401 C94 401 95 376 95 334 L95 93 C95 57 78 33 35 28 L35 -3 Z M137 541 C214 541 271 591 271 662 C271 674 269 686 266 700 L227 700 L227 690 C227 653 203 611 137 611 C71 611 47 653 47 690 L47 700 L8 700 C4 686 3 674 3 662 C3 591 60 541 137 541 L137 541 Z " />
<glyph glyph-name="Iogonek" unicode="&#x12e;" horiz-adv-x="339" d="M49 -3 L181 0 C117 -58 65 -101 65 -155 C65 -201 105 -237 165 -237 C191 -237 222 -231 249 -220 L241 -191 C241 -191 229 -193 220 -193 C188 -193 155 -173 155 -132 C155 -74 222 0 258 2 L308 3 L312 33 L221 42 C221 42 226 65 226 94 L226 544 C226 627 259 667 259 667 L254 671 C254 671 228 667 122 667 L47 667 L47 640 C118 625 118 615 118 567 L118 94 C118 60 92 36 49 31 L49 -3 Z " />
<glyph glyph-name="iogonek" unicode="&#x12f;" horiz-adv-x="288" d="M35 -3 L152 0 C88 -58 35 -101 35 -155 C35 -201 76 -237 136 -237 C162 -237 192 -231 220 -220 L212 -191 C212 -191 200 -193 190 -193 C159 -193 126 -173 126 -132 C126 -74 193 0 229 2 L271 3 L275 30 L192 39 C192 39 197 63 197 93 L197 361 C197 442 207 475 207 475 L205 478 C205 478 156 457 22 430 L22 401 L65 401 C94 401 95 376 95 334 L95 93 C95 57 78 33 35 28 L35 -3 Z M137 560 C172 560 200 586 200 621 C200 655 172 682 137 682 C102 682 74 655 74 621 C74 586 102 560 137 560 L137 560 Z " />
<glyph glyph-name="Idotaccent" unicode="&#x130;" horiz-adv-x="339" d="M49 -3 L308 3 L312 33 L221 42 C221 42 226 65 226 94 L226 544 C226 627 259 667 259 667 L254 671 C254 671 228 667 122 667 L47 667 L47 640 C118 625 118 615 118 567 L118 94 C118 60 92 36 49 31 L49 -3 Z M166 733 C201 733 229 760 229 794 C229 829 201 855 166 855 C131 855 103 829 103 794 C103 760 131 733 166 733 L166 733 Z " />
<glyph glyph-name="dotlessi" unicode="&#x131;" horiz-adv-x="288" d="M35 -3 L271 3 L275 30 L192 39 C192 39 197 63 197 93 L197 361 C197 442 207 475 207 475 L205 478 C205 478 156 457 22 430 L22 401 L65 401 C94 401 95 376 95 334 L95 93 C95 57 78 33 35 28 L35 -3 Z " />
<glyph glyph-name="IJ" unicode="&#x132;" horiz-adv-x="649" d="M49 -3 L308 3 L312 33 L221 42 C221 42 226 65 226 94 L226 544 C226 627 259 667 259 667 L254 671 C254 671 228 667 122 667 L47 667 L47 640 C118 625 118 615 118 567 L118 94 C118 60 92 36 49 31 L49 -3 Z M444 59 C444 -47 392 -129 337 -137 L349 -163 C476 -163 552 -56 552 122 L552 546 C552 629 585 667 585 667 L580 671 C580 671 554 667 448 667 L373 667 L373 640 C444 625 444 615 444 567 L444 59 Z " />
<glyph glyph-name="ij" unicode="&#x133;" horiz-adv-x="546" d="M35 -3 L271 3 L275 30 L192 39 C192 39 197 63 197 93 L197 361 C197 442 207 475 207 475 L205 478 C205 478 156 457 22 430 L22 401 L65 401 C94 401 95 376 95 334 L95 93 C95 57 78 33 35 28 L35 -3 Z M137 560 C172 560 200 586 200 621 C200 655 172 682 137 682 C102 682 74 655 74 621 C74 586 102 560 137 560 L137 560 Z M372 -22 C372 -124 320 -203 265 -211 L277 -237 C402 -237 474 -141 474 37 L474 363 C474 444 484 475 484 475 L483 478 C483 478 433 457 300 430 L300 401 L342 401 C371 401 372 376 372 334 L372 -22 Z M414 560 C449 560 477 586 477 621 C477 655 449 682 414 682 C379 682 352 655 352 621 C352 586 379 560 414 560 L414 560 Z " />
<glyph glyph-name="Jcircumflex" unicode="&#x134;" horiz-adv-x="314" d="M109 59 C109 -47 57 -129 2 -137 L14 -163 C141 -163 217 -56 217 122 L217 546 C217 629 250 667 250 667 L245 671 C245 671 219 667 113 667 L38 667 L38 640 C109 625 109 615 109 567 L109 59 Z M1 744 L31 718 L161 794 L167 794 L297 718 L327 744 L195 871 L134 871 L1 744 Z " />
<glyph glyph-name="jcircumflex" unicode="&#x135;" horiz-adv-x="261" d="M87 -22 C87 -124 35 -203 -20 -211 L-8 -237 C117 -237 189 -141 189 37 L189 363 C189 444 199 475 199 475 L198 478 C198 478 148 457 15 430 L15 401 L57 401 C86 401 87 376 87 334 L87 -22 Z M-8 525 L25 503 L132 616 L239 503 L272 525 L155 701 L110 701 L-8 525 Z " />
<glyph glyph-name="Kcommaaccent" unicode="&#x136;" horiz-adv-x="657" d="M292 -66 C317 -96 335 -126 335 -148 C335 -173 316 -193 277 -215 L299 -246 C357 -219 418 -168 418 -111 C418 -75 395 -43 395 -43 L302 -43 L292 -66 Z M49 -3 L305 3 L309 33 L221 42 C221 42 226 64 226 93 L226 322 L244 322 L420 109 C482 34 490 3 490 3 L494 0 L660 0 L664 34 L653 35 C624 38 616 41 573 92 L339 376 L339 389 L524 577 C586 640 639 651 639 651 L634 667 L441 667 L441 640 C491 633 489 609 471 590 L285 402 C268 384 245 370 245 370 L226 370 L226 546 C226 629 259 667 259 667 L254 671 C254 671 228 667 122 667 L47 667 L47 640 C118 625 118 615 118 567 L118 93 C118 59 91 36 49 31 L49 -3 Z " />
<glyph glyph-name="kcommaaccent" unicode="&#x137;" horiz-adv-x="535" d="M219 -66 C244 -96 262 -126 262 -148 C262 -173 243 -193 204 -215 L226 -246 C284 -219 345 -168 345 -111 C345 -75 322 -43 322 -43 L229 -43 L219 -66 Z M26 -3 L255 3 L259 30 L183 39 C183 39 188 63 188 93 L188 231 L202 231 L338 66 C364 33 376 -3 376 -3 L536 0 L540 32 L529 33 C498 36 487 42 446 90 L303 258 C296 265 288 277 288 277 L288 289 L394 381 C436 418 499 436 499 436 L494 452 L307 452 L307 425 C329 419 339 412 339 401 C339 385 320 370 302 354 L202 269 L188 269 L188 626 C188 703 198 740 198 740 L195 743 C195 743 151 723 16 695 L16 666 L56 666 C85 666 86 641 86 599 L86 93 C86 57 70 33 26 28 L26 -3 Z " />
<glyph glyph-name="kgreenlandic" unicode="&#x138;" horiz-adv-x="538" d="M35 -3 L256 3 L260 30 L192 39 C192 39 197 63 197 93 L197 211 L210 211 L330 66 C357 34 368 -3 368 -3 L528 0 L532 32 L521 33 C490 36 479 42 438 90 L311 237 C304 244 296 256 296 256 L296 267 L426 381 C465 416 521 436 521 436 L516 452 L338 452 L338 425 C360 419 370 412 370 401 C370 385 352 370 333 354 L212 249 L197 249 L197 361 C197 442 207 475 207 475 L205 478 C205 478 156 457 22 430 L22 401 L65 401 C94 401 95 376 95 334 L95 93 C95 57 78 33 35 28 L35 -3 Z " />
<glyph glyph-name="Lacute" unicode="&#x139;" horiz-adv-x="569" d="M77 757 L93 720 L303 778 L303 805 L266 865 L261 865 L77 757 Z M50 -3 C50 -3 146 0 204 0 L524 0 L566 186 L530 186 C480 79 461 45 377 45 L220 45 C220 45 225 70 225 100 L225 544 C225 627 258 667 258 667 L253 671 C253 671 225 667 121 667 L45 667 L45 640 C117 625 117 615 117 567 L117 93 C117 57 94 36 50 31 L50 -3 Z " />
<glyph glyph-name="lacute" unicode="&#x13a;" horiz-adv-x="279" d="M26 -3 L262 3 L266 30 L183 39 C183 39 188 63 188 93 L188 626 C188 703 198 740 198 740 L195 743 C195 743 151 723 16 695 L16 666 L56 666 C85 666 86 641 86 599 L86 93 C86 57 70 33 26 28 L26 -3 Z " />
<glyph glyph-name="Lcommaaccent" unicode="&#x13b;" horiz-adv-x="569" d="M250 -66 C275 -96 293 -126 293 -148 C293 -173 274 -193 235 -215 L257 -246 C315 -219 376 -168 376 -111 C376 -75 353 -43 353 -43 L260 -43 L250 -66 Z M50 -3 C50 -3 146 0 204 0 L524 0 L566 186 L530 186 C480 79 461 45 377 45 L220 45 C220 45 225 70 225 100 L225 544 C225 627 258 667 258 667 L253 671 C253 671 225 667 121 667 L45 667 L45 640 C117 625 117 615 117 567 L117 93 C117 57 94 36 50 31 L50 -3 Z " />
<glyph glyph-name="lcommaaccent" unicode="&#x13c;" horiz-adv-x="279" d="M82 -66 C107 -96 125 -126 125 -148 C125 -173 106 -193 67 -215 L89 -246 C147 -219 208 -168 208 -111 C208 -75 185 -43 185 -43 L92 -43 L82 -66 Z M26 -3 L262 3 L266 30 L183 39 C183 39 188 63 188 93 L188 626 C188 703 198 740 198 740 L195 743 C195 743 151 723 16 695 L16 666 L56 666 C85 666 86 641 86 599 L86 93 C86 57 70 33 26 28 L26 -3 Z " />
<glyph glyph-name="Lcaron" unicode="&#x13d;" horiz-adv-x="569" d="M315 546 L359 546 L439 722 L439 748 L340 738 L315 546 Z M50 -3 C50 -3 146 0 204 0 L524 0 L566 186 L530 186 C480 79 461 45 377 45 L220 45 C220 45 225 70 225 100 L225 544 C225 627 258 667 258 667 L253 671 C253 671 225 667 121 667 L45 667 L45 640 C117 625 117 615 117 567 L117 93 C117 57 94 36 50 31 L50 -3 Z " />
<glyph glyph-name="lcaron" unicode="&#x13e;" horiz-adv-x="279" d="M246 546 L290 546 L370 722 L370 748 L271 738 L246 546 Z M26 -3 L262 3 L266 30 L183 39 C183 39 188 63 188 93 L188 626 C188 703 198 740 198 740 L195 743 C195 743 151 723 16 695 L16 666 L56 666 C85 666 86 641 86 599 L86 93 C86 57 70 33 26 28 L26 -3 Z " />
<glyph glyph-name="Ldot" unicode="&#x13f;" horiz-adv-x="569" d="M50 -3 C50 -3 146 0 204 0 L524 0 L566 186 L530 186 C480 79 461 45 377 45 L220 45 C220 45 225 70 225 100 L225 544 C225 627 258 667 258 667 L253 671 C253 671 225 667 121 667 L45 667 L45 640 C117 625 117 615 117 567 L117 93 C117 57 94 36 50 31 L50 -3 Z M451 290 C488 290 518 321 518 357 C518 395 488 425 451 425 C414 425 383 395 383 357 C383 321 414 290 451 290 L451 290 Z " />
<glyph glyph-name="ldot" unicode="&#x140;" horiz-adv-x="391" d="M26 -3 L262 3 L266 30 L183 39 C183 39 188 63 188 93 L188 626 C188 703 198 740 198 740 L195 743 C195 743 151 723 16 695 L16 666 L56 666 C85 666 86 641 86 599 L86 93 C86 57 70 33 26 28 L26 -3 Z M331 290 C368 290 398 321 398 357 C398 395 368 425 331 425 C294 425 263 395 263 357 C263 321 294 290 331 290 L331 290 Z " />
<glyph glyph-name="Lslash" unicode="&#x141;" horiz-adv-x="569" d="M29 229 L117 289 L117 93 C117 57 94 36 50 31 L50 -3 C50 -3 146 0 204 0 L524 0 L566 186 L530 186 C480 79 461 45 377 45 L220 45 C220 45 225 70 225 100 L225 359 L373 459 L373 515 L225 413 L225 544 C225 627 258 667 258 667 L253 671 C253 671 225 667 121 667 L45 667 L45 640 C117 625 117 615 117 567 L117 344 L29 284 L29 229 Z " />
<glyph glyph-name="lslash" unicode="&#x142;" horiz-adv-x="296" d="M16 225 L96 283 L96 93 C96 57 79 33 36 28 L36 -3 L271 3 L275 30 L193 39 C193 39 198 63 198 93 L198 353 L278 413 L278 467 L198 408 L198 626 C198 703 208 740 208 740 L205 743 C205 743 160 723 26 695 L26 666 L66 666 C95 666 96 641 96 599 L96 338 L16 279 L16 225 Z " />
<glyph glyph-name="Nacute" unicode="&#x143;" horiz-adv-x="773" d="M300 757 L316 720 L526 778 L526 805 L489 865 L484 865 L300 757 Z M50 -3 L252 3 L256 33 L166 39 C166 39 171 63 171 93 L171 526 C182 510 196 491 209 477 L635 -5 L668 -5 L668 549 C668 632 737 651 737 651 L732 667 L537 667 L537 637 C617 629 618 605 618 561 L618 172 C606 188 591 207 578 222 L221 619 C195 648 183 671 183 671 C183 671 119 667 70 667 L40 667 L40 640 C106 623 122 601 122 534 L122 93 C122 57 95 36 50 31 L50 -3 Z " />
<glyph glyph-name="nacute" unicode="&#x144;" horiz-adv-x="578" d="M283 506 L431 678 L431 705 L330 696 L249 525 L283 506 Z M35 -3 L261 3 L265 30 L192 40 C192 40 197 63 197 93 L197 336 C235 371 287 391 327 391 C367 391 391 373 391 300 L391 93 C391 57 379 33 339 28 L339 -3 L566 3 L570 30 L488 40 C488 40 493 63 493 93 L493 329 C493 426 445 464 376 464 C293 464 227 408 192 358 C194 447 203 475 203 475 L200 478 C200 478 129 449 22 430 L22 401 L65 401 C94 401 95 376 95 334 L95 93 C95 57 78 33 35 28 L35 -3 Z " />
<glyph glyph-name="Ncommaaccent" unicode="&#x145;" horiz-adv-x="773" d="M50 -3 L252 3 L256 33 L166 39 C166 39 171 63 171 93 L171 526 C182 510 196 491 209 477 L635 -5 L668 -5 L668 549 C668 632 737 651 737 651 L732 667 L537 667 L537 637 C617 629 618 605 618 561 L618 172 C606 188 591 207 578 222 L221 619 C195 648 183 671 183 671 C183 671 119 667 70 667 L40 667 L40 640 C106 623 122 601 122 534 L122 93 C122 57 95 36 50 31 L50 -3 Z M339 -66 C364 -96 382 -126 382 -148 C382 -173 363 -193 324 -215 L346 -246 C404 -219 465 -168 465 -111 C465 -75 442 -43 442 -43 L349 -43 L339 -66 Z " />
<glyph glyph-name="ncommaaccent" unicode="&#x146;" horiz-adv-x="578" d="M237 -66 C262 -96 280 -126 280 -148 C280 -173 261 -193 222 -215 L244 -246 C302 -219 363 -168 363 -111 C363 -75 340 -43 340 -43 L247 -43 L237 -66 Z M35 -3 L261 3 L265 30 L192 40 C192 40 197 63 197 93 L197 336 C235 371 287 391 327 391 C367 391 391 373 391 300 L391 93 C391 57 379 33 339 28 L339 -3 L566 3 L570 30 L488 40 C488 40 493 63 493 93 L493 329 C493 426 445 464 376 464 C293 464 227 408 192 358 C194 447 203 475 203 475 L200 478 C200 478 129 449 22 430 L22 401 L65 401 C94 401 95 376 95 334 L95 93 C95 57 78 33 35 28 L35 -3 Z " />
<glyph glyph-name="Ncaron" unicode="&#x147;" horiz-adv-x="773" d="M50 -3 L252 3 L256 33 L166 39 C166 39 171 63 171 93 L171 526 C182 510 196 491 209 477 L635 -5 L668 -5 L668 549 C668 632 737 651 737 651 L732 667 L537 667 L537 637 C617 629 618 605 618 561 L618 172 C606 188 591 207 578 222 L221 619 C195 648 183 671 183 671 C183 671 119 667 70 667 L40 667 L40 640 C106 623 122 601 122 534 L122 93 C122 57 95 36 50 31 L50 -3 Z M232 845 L364 718 L426 718 L558 845 L528 871 L398 794 L392 794 L262 871 L232 845 Z " />
<glyph glyph-name="ncaron" unicode="&#x148;" horiz-adv-x="578" d="M271 523 L316 523 L433 690 L400 712 L293 607 L186 712 L153 690 L271 523 Z M35 -3 L261 3 L265 30 L192 40 C192 40 197 63 197 93 L197 336 C235 371 287 391 327 391 C367 391 391 373 391 300 L391 93 C391 57 379 33 339 28 L339 -3 L566 3 L570 30 L488 40 C488 40 493 63 493 93 L493 329 C493 426 445 464 376 464 C293 464 227 408 192 358 C194 447 203 475 203 475 L200 478 C200 478 129 449 22 430 L22 401 L65 401 C94 401 95 376 95 334 L95 93 C95 57 78 33 35 28 L35 -3 Z " />
<glyph glyph-name="napostrophe" unicode="&#x149;" horiz-adv-x="578" d="M47 714 C72 684 90 654 90 632 C90 607 71 587 32 565 L54 534 C112 561 173 612 173 669 C173 705 150 737 150 737 L57 737 L47 714 Z M35 -3 L261 3 L265 30 L192 40 C192 40 197 63 197 93 L197 336 C235 371 287 391 327 391 C367 391 391 373 391 300 L391 93 C391 57 379 33 339 28 L339 -3 L566 3 L570 30 L488 40 C488 40 493 63 493 93 L493 329 C493 426 445 464 376 464 C293 464 227 408 192 358 C194 447 203 475 203 475 L200 478 C200 478 129 449 22 430 L22 401 L65 401 C94 401 95 376 95 334 L95 93 C95 57 78 33 35 28 L35 -3 Z " />
<glyph glyph-name="Eng" unicode="&#x14a;" horiz-adv-x="774" d="M668 549 C668 632 737 651 737 651 L732 667 L537 667 L537 637 C617 629 618 605 618 561 L618 172 C606 188 591 207 578 222 L221 619 C195 648 183 671 183 671 C183 671 119 667 70 667 L40 667 L40 640 C106 623 122 601 122 534 L122 93 C122 57 95 36 50 31 L50 -3 L252 3 L256 33 L166 39 C166 39 171 63 171 93 L171 526 C182 510 196 491 209 477 L617 15 L617 1 C617 -70 568 -82 548 -91 C538 -95 514 -106 514 -134 C514 -157 529 -179 561 -179 C648 -179 668 -26 668 58 L668 549 Z " />
<glyph glyph-name="eng" unicode="&#x14b;" horiz-adv-x="558" d="M35 -3 L261 3 L265 30 L192 40 C192 40 197 63 197 93 L197 336 C235 371 287 391 327 391 C367 391 391 373 391 300 L391 -9 C391 -168 284 -211 284 -211 L296 -237 C296 -237 493 -207 493 55 L493 329 C493 426 445 464 376 464 C293 464 227 408 192 358 C194 447 203 475 203 475 L200 478 C200 478 156 457 22 430 L22 401 L65 401 C94 401 95 376 95 334 L95 93 C95 57 78 33 35 28 L35 -3 Z " />
<glyph glyph-name="Omacron" unicode="&#x14c;" horiz-adv-x="796" d="M160 351 C160 496 242 635 391 635 C550 635 635 480 635 331 C635 184 553 32 405 32 C248 32 160 202 160 351 L160 351 Z M40 324 C40 148 166 -12 383 -12 C615 -12 756 172 756 357 C756 530 633 679 411 679 C168 679 40 502 40 324 L40 324 Z M260 762 L532 762 L532 827 L260 827 L260 762 Z " />
<glyph glyph-name="omacron" unicode="&#x14d;" horiz-adv-x="538" d="M147 585 L389 585 L389 650 L147 650 L147 585 Z M33 216 C33 86 118 -12 261 -12 C425 -12 505 119 505 244 C505 370 423 464 275 464 C102 464 33 334 33 216 L33 216 Z M145 241 C145 335 181 426 264 426 C356 426 392 315 393 220 C393 128 360 26 275 26 C183 26 145 142 145 241 L145 241 Z " />
<glyph glyph-name="Obreve" unicode="&#x14e;" horiz-adv-x="796" d="M160 351 C160 496 242 635 391 635 C550 635 635 480 635 331 C635 184 553 32 405 32 C248 32 160 202 160 351 L160 351 Z M40 324 C40 148 166 -12 383 -12 C615 -12 756 172 756 357 C756 530 633 679 411 679 C168 679 40 502 40 324 L40 324 Z M396 718 C481 718 539 767 539 838 C539 848 538 859 535 871 L494 871 C497 802 441 789 396 789 C350 789 292 804 297 871 L257 871 C254 858 252 847 252 836 C252 764 312 718 396 718 L396 718 Z " />
<glyph glyph-name="obreve" unicode="&#x14f;" horiz-adv-x="538" d="M33 216 C33 86 118 -12 261 -12 C425 -12 505 119 505 244 C505 370 423 464 275 464 C102 464 33 334 33 216 L33 216 Z M145 241 C145 335 181 426 264 426 C356 426 392 315 393 220 C393 128 360 26 275 26 C183 26 145 142 145 241 L145 241 Z M268 541 C345 541 402 591 402 662 C402 674 400 686 397 700 L358 700 L358 690 C358 653 334 611 268 611 C202 611 178 653 178 690 L178 700 L139 700 C135 686 134 674 134 662 C134 591 191 541 268 541 L268 541 Z " />
<glyph glyph-name="Ohungarumlaut" unicode="&#x150;" horiz-adv-x="796" d="M305 718 L439 847 L439 874 L331 865 L272 739 L305 718 Z M477 718 L620 847 L620 874 L512 865 L443 739 L477 718 Z M160 351 C160 496 242 635 391 635 C550 635 635 480 635 331 C635 184 553 32 405 32 C248 32 160 202 160 351 L160 351 Z M40 324 C40 148 166 -12 383 -12 C615 -12 756 172 756 357 C756 530 633 679 411 679 C168 679 40 502 40 324 L40 324 Z " />
<glyph glyph-name="ohungarumlaut" unicode="&#x151;" horiz-adv-x="538" d="M193 506 L323 678 L323 705 L233 696 L158 525 L193 506 Z M342 506 L472 678 L472 705 L383 696 L307 525 L342 506 Z M33 216 C33 86 118 -12 261 -12 C425 -12 505 119 505 244 C505 370 423 464 275 464 C102 464 33 334 33 216 L33 216 Z M145 241 C145 335 181 426 264 426 C356 426 392 315 393 220 C393 128 360 26 275 26 C183 26 145 142 145 241 L145 241 Z " />
<glyph glyph-name="OE" unicode="&#x152;" horiz-adv-x="996" d="M40 323 C40 148 168 -12 389 -12 C450 -12 522 0 581 0 L926 0 L963 166 L927 166 C877 61 865 45 779 45 L629 45 C629 45 634 71 634 101 L634 306 L645 317 L810 317 L810 242 L859 242 L859 425 L820 419 L812 361 L634 361 L634 611 L645 622 L768 622 C848 622 881 603 876 500 L912 500 L943 671 C943 671 910 667 869 667 L571 667 C526 667 468 679 408 679 C173 679 40 501 40 323 L40 323 Z M160 353 C160 498 237 636 417 636 C473 636 526 617 526 566 L526 93 C526 35 446 32 422 32 C243 32 160 202 160 353 L160 353 Z " />
<glyph glyph-name="oe" unicode="&#x153;" horiz-adv-x="826" d="M33 216 C33 86 118 -12 261 -12 C347 -12 406 26 445 82 C478 25 531 -12 607 -12 C735 -12 791 85 791 85 L780 110 C780 110 732 65 654 65 C547 65 502 145 495 230 L505 243 L738 277 C758 280 793 293 793 293 C789 409 705 464 616 464 C548 464 489 429 451 375 C417 430 358 464 275 464 C102 464 33 334 33 216 L33 216 Z M145 241 C145 335 181 426 264 426 C356 426 392 315 393 220 C393 128 360 26 275 26 C183 26 145 142 145 241 L145 241 Z M599 422 C680 422 686 308 686 308 L496 283 C503 358 537 422 599 422 L599 422 Z " />
<glyph glyph-name="Racute" unicode="&#x154;" horiz-adv-x="639" d="M49 -3 L307 3 L311 33 L221 42 C221 42 226 64 226 93 L226 280 L237 291 L297 291 L416 113 C459 50 476 3 476 3 L480 0 L646 0 L650 34 L639 35 C616 37 597 39 555 99 L411 313 L411 328 C461 356 539 417 539 506 C539 591 471 667 293 667 L39 667 L39 640 C113 625 118 615 118 567 L118 93 C118 59 91 36 49 31 L49 -3 Z M226 335 L226 611 L237 622 L269 622 C379 622 420 556 420 478 C420 383 359 335 306 335 L226 335 Z M205 757 L221 720 L431 778 L431 805 L394 865 L389 865 L205 757 Z " />
<glyph glyph-name="racute" unicode="&#x155;" horiz-adv-x="391" d="M193 506 L341 678 L341 705 L240 696 L159 525 L193 506 Z M35 -3 L281 3 L285 30 L192 39 C192 39 197 63 197 93 L197 328 C209 342 245 375 278 375 C302 375 306 357 333 357 C365 357 387 381 387 412 C387 444 361 464 330 464 C266 464 209 382 192 350 C195 447 204 475 204 475 L201 478 C201 478 129 449 22 429 L22 400 L65 400 C94 400 95 375 95 333 L95 93 C95 57 78 33 35 28 L35 -3 Z " />
<glyph glyph-name="Rcommaaccent" unicode="&#x156;" horiz-adv-x="639" d="M286 -66 C311 -96 329 -126 329 -148 C329 -173 310 -193 271 -215 L293 -246 C351 -219 412 -168 412 -111 C412 -75 389 -43 389 -43 L296 -43 L286 -66 Z M49 -3 L307 3 L311 33 L221 42 C221 42 226 64 226 93 L226 280 L237 291 L297 291 L416 113 C459 50 476 3 476 3 L480 0 L646 0 L650 34 L639 35 C616 37 597 39 555 99 L411 313 L411 328 C461 356 539 417 539 506 C539 591 471 667 293 667 L39 667 L39 640 C113 625 118 615 118 567 L118 93 C118 59 91 36 49 31 L49 -3 Z M226 335 L226 611 L237 622 L269 622 C379 622 420 556 420 478 C420 383 359 335 306 335 L226 335 Z " />
<glyph glyph-name="rcommaaccent" unicode="&#x157;" horiz-adv-x="391" d="M90 -66 C115 -96 133 -126 133 -148 C133 -173 114 -193 75 -215 L97 -246 C155 -219 216 -168 216 -111 C216 -75 193 -43 193 -43 L100 -43 L90 -66 Z M35 -3 L281 3 L285 30 L192 39 C192 39 197 63 197 93 L197 328 C209 342 245 375 278 375 C302 375 306 357 333 357 C365 357 387 381 387 412 C387 444 361 464 330 464 C266 464 209 382 192 350 C195 447 204 475 204 475 L201 478 C201 478 129 449 22 429 L22 400 L65 400 C94 400 95 375 95 333 L95 93 C95 57 78 33 35 28 L35 -3 Z " />
<glyph glyph-name="Rcaron" unicode="&#x158;" horiz-adv-x="639" d="M49 -3 L307 3 L311 33 L221 42 C221 42 226 64 226 93 L226 280 L237 291 L297 291 L416 113 C459 50 476 3 476 3 L480 0 L646 0 L650 34 L639 35 C616 37 597 39 555 99 L411 313 L411 328 C461 356 539 417 539 506 C539 591 471 667 293 667 L39 667 L39 640 C113 625 118 615 118 567 L118 93 C118 59 91 36 49 31 L49 -3 Z M226 335 L226 611 L237 622 L269 622 C379 622 420 556 420 478 C420 383 359 335 306 335 L226 335 Z M137 845 L269 718 L331 718 L463 845 L433 871 L303 794 L297 794 L167 871 L137 845 Z " />
<glyph glyph-name="rcaron" unicode="&#x159;" horiz-adv-x="391" d="M183 523 L228 523 L345 690 L312 712 L205 607 L98 712 L65 690 L183 523 Z M35 -3 L281 3 L285 30 L192 39 C192 39 197 63 197 93 L197 328 C209 342 245 375 278 375 C302 375 306 357 333 357 C365 357 387 381 387 412 C387 444 361 464 330 464 C266 464 209 382 192 350 C195 447 204 475 204 475 L201 478 C201 478 129 449 22 429 L22 400 L65 400 C94 400 95 375 95 333 L95 93 C95 57 78 33 35 28 L35 -3 Z " />
<glyph glyph-name="Sacute" unicode="&#x15a;" horiz-adv-x="511" d="M42 91 C43 17 153 -12 241 -12 C365 -12 468 47 468 171 C468 389 157 372 157 539 C157 603 208 636 275 636 C360 636 394 575 388 500 L424 500 L456 660 C420 665 351 679 285 679 C133 679 57 601 57 498 C57 291 368 295 368 129 C368 59 309 31 249 31 C183 31 104 63 104 189 L68 189 C45 121 42 104 42 91 L42 91 Z M174 757 L190 720 L400 778 L400 805 L363 865 L358 865 L174 757 Z " />
<glyph glyph-name="sacute" unicode="&#x15b;" horiz-adv-x="387" d="M189 506 L337 678 L337 705 L236 696 L155 525 L189 506 Z M34 57 C34 2 135 -12 187 -12 C283 -12 354 36 354 126 C354 284 134 263 134 367 C134 399 155 427 202 427 C226 427 286 418 288 338 L320 338 L341 446 C341 446 270 464 211 464 C108 464 45 412 45 331 C45 181 266 191 266 88 C266 49 236 25 192 25 C146 25 87 51 81 136 L49 136 C49 136 34 79 34 57 L34 57 Z " />
<glyph glyph-name="Scircumflex" unicode="&#x15c;" horiz-adv-x="511" d="M42 91 C43 17 153 -12 241 -12 C365 -12 468 47 468 171 C468 389 157 372 157 539 C157 603 208 636 275 636 C360 636 394 575 388 500 L424 500 L456 660 C420 665 351 679 285 679 C133 679 57 601 57 498 C57 291 368 295 368 129 C368 59 309 31 249 31 C183 31 104 63 104 189 L68 189 C45 121 42 104 42 91 L42 91 Z M106 744 L136 718 L266 794 L272 794 L402 718 L432 744 L300 871 L239 871 L106 744 Z " />
<glyph glyph-name="scircumflex" unicode="&#x15d;" horiz-adv-x="387" d="M60 525 L93 503 L200 616 L307 503 L340 525 L223 701 L178 701 L60 525 Z M34 57 C34 2 135 -12 187 -12 C283 -12 354 36 354 126 C354 284 134 263 134 367 C134 399 155 427 202 427 C226 427 286 418 288 338 L320 338 L341 446 C341 446 270 464 211 464 C108 464 45 412 45 331 C45 181 266 191 266 88 C266 49 236 25 192 25 C146 25 87 51 81 136 L49 136 C49 136 34 79 34 57 L34 57 Z " />
<glyph glyph-name="Scedilla" unicode="&#x15e;" horiz-adv-x="511" d="M191 -84 C191 -123 266 -125 266 -158 C266 -179 244 -191 217 -191 C180 -191 146 -165 146 -165 L130 -200 C130 -200 165 -237 225 -237 C291 -237 339 -190 339 -139 C339 -70 252 -77 252 -44 C252 -36 256 -21 259 -11 C375 -6 468 53 468 171 C468 389 157 372 157 539 C157 603 208 636 275 636 C360 636 394 575 388 500 L424 500 L456 660 C420 665 351 679 285 679 C133 679 57 601 57 498 C57 291 368 295 368 129 C368 59 309 31 249 31 C183 31 104 63 104 189 L68 189 C45 121 42 104 42 91 C43 22 138 -7 222 -11 C210 -29 191 -62 191 -84 L191 -84 Z " />
<glyph glyph-name="scedilla" unicode="&#x15f;" horiz-adv-x="387" d="M133 -84 C133 -123 208 -125 208 -158 C208 -179 186 -191 159 -191 C122 -191 88 -165 88 -165 L72 -200 C72 -200 107 -237 167 -237 C233 -237 281 -190 281 -139 C281 -70 194 -77 194 -44 C194 -36 198 -21 201 -11 C289 -7 354 40 354 126 C354 284 134 263 134 367 C134 399 155 427 202 427 C226 427 286 418 288 338 L320 338 L341 446 C341 446 270 464 211 464 C108 464 45 412 45 331 C45 181 266 191 266 88 C266 49 236 25 192 25 C146 25 87 51 81 136 L49 136 C49 136 34 79 34 57 C34 9 110 -8 164 -11 C153 -29 133 -62 133 -84 L133 -84 Z " />
<glyph glyph-name="Scaron" unicode="&#x160;" horiz-adv-x="511" d="M42 91 C43 17 153 -12 241 -12 C365 -12 468 47 468 171 C468 389 157 372 157 539 C157 603 208 636 275 636 C360 636 394 575 388 500 L424 500 L456 660 C420 665 351 679 285 679 C133 679 57 601 57 498 C57 291 368 295 368 129 C368 59 309 31 249 31 C183 31 104 63 104 189 L68 189 C45 121 42 104 42 91 L42 91 Z M106 845 L238 718 L300 718 L432 845 L402 871 L272 794 L266 794 L136 871 L106 845 Z " />
<glyph glyph-name="scaron" unicode="&#x161;" horiz-adv-x="387" d="M178 523 L223 523 L340 690 L307 712 L200 607 L93 712 L60 690 L178 523 Z M34 57 C34 2 135 -12 187 -12 C283 -12 354 36 354 126 C354 284 134 263 134 367 C134 399 155 427 202 427 C226 427 286 418 288 338 L320 338 L341 446 C341 446 270 464 211 464 C108 464 45 412 45 331 C45 181 266 191 266 88 C266 49 236 25 192 25 C146 25 87 51 81 136 L49 136 C49 136 34 79 34 57 L34 57 Z " />
<glyph glyph-name="Tcommaaccent" unicode="&#x162;" horiz-adv-x="649" d="M198 -3 L309 0 C306 -5 271 -55 271 -84 C271 -123 346 -125 346 -158 C346 -179 324 -191 297 -191 C260 -191 226 -165 226 -165 L210 -200 C210 -200 245 -237 305 -237 C371 -237 419 -190 419 -139 C419 -70 332 -77 332 -44 C332 -31 343 0 343 0 L332 0 L466 3 L470 33 L370 42 C370 42 375 66 375 96 L375 611 L386 622 L477 622 C553 622 586 602 583 500 L620 500 L651 673 C651 673 620 667 579 667 L100 667 C59 667 33 673 33 673 L2 500 L38 500 C77 602 107 622 174 622 L267 622 L267 96 C267 60 241 36 198 31 L198 -3 Z " />
<glyph glyph-name="tcommaaccent" unicode="&#x163;" horiz-adv-x="356" d="M142 -84 C142 -123 217 -125 217 -158 C217 -179 195 -191 168 -191 C131 -191 97 -165 97 -165 L81 -200 C81 -200 116 -237 176 -237 C242 -237 290 -190 290 -139 C290 -70 203 -77 203 -44 C203 -36 207 -21 210 -11 C297 -6 354 57 354 57 L340 79 C340 79 296 57 252 57 C199 57 185 90 185 148 L185 388 L196 399 L327 399 L334 452 L184 452 L184 469 C184 542 193 568 193 568 L190 571 L127 573 L90 462 C66 440 21 431 21 431 L21 396 L86 396 C86 396 83 360 83 331 L83 119 C83 38 117 -2 174 -10 C163 -27 142 -62 142 -84 L142 -84 Z " />
<glyph glyph-name="Tcaron" unicode="&#x164;" horiz-adv-x="649" d="M198 -3 L466 3 L470 33 L370 42 C370 42 375 66 375 96 L375 611 L386 622 L477 622 C553 622 586 602 583 500 L620 500 L651 673 C651 673 620 667 579 667 L100 667 C59 667 33 673 33 673 L2 500 L38 500 C77 602 107 622 174 622 L267 622 L267 96 C267 60 241 36 198 31 L198 -3 Z M158 845 L290 718 L352 718 L484 845 L454 871 L324 794 L318 794 L188 871 L158 845 Z " />
<glyph glyph-name="tcaron" unicode="&#x165;" horiz-adv-x="356" d="M252 545 L296 545 L376 721 L376 747 L277 737 L252 545 Z M83 119 C83 27 127 -12 199 -12 C293 -12 354 57 354 57 L340 79 C340 79 296 57 252 57 C199 57 185 90 185 148 L185 388 L196 399 L327 399 L334 452 L184 452 L184 469 C184 542 193 568 193 568 L190 571 L127 573 L90 462 C66 440 21 431 21 431 L21 396 L86 396 C86 396 83 360 83 331 L83 119 Z " />
<glyph glyph-name="Tbar" unicode="&#x166;" horiz-adv-x="649" d="M118 319 L267 319 L267 96 C267 60 241 36 198 31 L198 -3 L466 3 L470 33 L370 42 C370 42 375 66 375 96 L375 319 L524 319 L524 366 L375 366 L375 611 L386 622 L477 622 C553 622 586 602 583 500 L620 500 L651 673 C651 673 620 667 579 667 L100 667 C59 667 33 673 33 673 L2 500 L38 500 C77 602 107 622 174 622 L267 622 L267 366 L118 366 L118 319 Z " />
<glyph glyph-name="tbar" unicode="&#x167;" horiz-adv-x="356" d="M21 243 L83 243 L83 119 C83 27 127 -12 199 -12 C293 -12 354 57 354 57 L340 79 C340 79 296 57 252 57 C199 57 185 90 185 148 L185 243 L327 243 L327 290 L185 290 L185 388 L196 399 L327 399 L334 452 L184 452 L184 469 C184 542 193 568 193 568 L190 571 L127 573 L90 462 C66 440 21 431 21 431 L21 396 L86 396 C86 396 83 360 83 331 L83 290 L21 290 L21 243 Z " />
<glyph glyph-name="Utilde" unicode="&#x168;" horiz-adv-x="735" d="M92 235 C92 52 233 -12 367 -12 C519 -12 643 74 643 239 L643 547 C643 630 714 651 714 651 L709 667 L510 667 L510 637 C587 629 588 606 588 562 L588 236 C588 105 490 39 393 39 C297 39 200 101 200 243 L200 544 C200 628 233 667 233 667 L228 671 C228 671 202 667 96 667 L21 667 L21 640 C92 625 92 615 92 567 L92 235 Z M237 732 C237 732 250 788 292 788 C339 788 380 732 449 732 C555 732 560 851 560 851 L521 855 C521 855 511 799 466 799 C418 799 365 855 302 855 C207 855 199 740 199 740 L237 732 Z " />
<glyph glyph-name="utilde" unicode="&#x169;" horiz-adv-x="566" d="M80 122 C80 26 128 -12 199 -12 C290 -12 356 66 376 96 L376 48 C376 23 368 -6 368 -6 L371 -9 C371 -9 432 0 552 11 L555 40 L529 40 C496 40 473 40 473 97 L473 361 C473 438 482 466 482 466 L479 469 C479 469 437 454 312 431 L312 401 L341 401 C370 401 371 376 371 333 L371 119 C347 94 293 59 246 59 C208 59 182 78 182 152 L182 361 C182 438 191 466 191 466 L188 469 C188 469 147 454 18 431 L18 401 L50 401 C79 401 80 376 80 333 L80 122 Z M125 560 L166 560 C166 560 164 623 210 623 C254 623 268 550 336 550 C439 550 428 684 428 684 L387 684 C387 684 389 618 342 618 C298 618 282 690 213 690 C112 690 125 560 125 560 L125 560 Z " />
<glyph glyph-name="Umacron" unicode="&#x16a;" horiz-adv-x="735" d="M92 235 C92 52 233 -12 367 -12 C519 -12 643 74 643 239 L643 547 C643 630 714 651 714 651 L709 667 L510 667 L510 637 C587 629 588 606 588 562 L588 236 C588 105 490 39 393 39 C297 39 200 101 200 243 L200 544 C200 628 233 667 233 667 L228 671 C228 671 202 667 96 667 L21 667 L21 640 C92 625 92 615 92 567 L92 235 Z M243 762 L515 762 L515 827 L243 827 L243 762 Z " />
<glyph glyph-name="umacron" unicode="&#x16b;" horiz-adv-x="566" d="M80 122 C80 26 128 -12 199 -12 C290 -12 356 66 376 96 L376 48 C376 23 368 -6 368 -6 L371 -9 C371 -9 432 0 552 11 L555 40 L529 40 C496 40 473 40 473 97 L473 361 C473 438 482 466 482 466 L479 469 C479 469 437 454 312 431 L312 401 L341 401 C370 401 371 376 371 333 L371 119 C347 94 293 59 246 59 C208 59 182 78 182 152 L182 361 C182 438 191 466 191 466 L188 469 C188 469 147 454 18 431 L18 401 L50 401 C79 401 80 376 80 333 L80 122 Z M155 585 L397 585 L397 650 L155 650 L155 585 Z " />
<glyph glyph-name="Ubreve" unicode="&#x16c;" horiz-adv-x="735" d="M92 235 C92 52 233 -12 367 -12 C519 -12 643 74 643 239 L643 547 C643 630 714 651 714 651 L709 667 L510 667 L510 637 C587 629 588 606 588 562 L588 236 C588 105 490 39 393 39 C297 39 200 101 200 243 L200 544 C200 628 233 667 233 667 L228 671 C228 671 202 667 96 667 L21 667 L21 640 C92 625 92 615 92 567 L92 235 Z M379 718 C464 718 522 767 522 838 C522 848 521 859 518 871 L477 871 C480 802 424 789 379 789 C333 789 275 804 280 871 L240 871 C237 858 235 847 235 836 C235 764 295 718 379 718 L379 718 Z " />
<glyph glyph-name="ubreve" unicode="&#x16d;" horiz-adv-x="566" d="M80 122 C80 26 128 -12 199 -12 C290 -12 356 66 376 96 L376 48 C376 23 368 -6 368 -6 L371 -9 C371 -9 432 0 552 11 L555 40 L529 40 C496 40 473 40 473 97 L473 361 C473 438 482 466 482 466 L479 469 C479 469 437 454 312 431 L312 401 L341 401 C370 401 371 376 371 333 L371 119 C347 94 293 59 246 59 C208 59 182 78 182 152 L182 361 C182 438 191 466 191 466 L188 469 C188 469 147 454 18 431 L18 401 L50 401 C79 401 80 376 80 333 L80 122 Z M276 541 C353 541 410 591 410 662 C410 674 408 686 405 700 L366 700 L366 690 C366 653 342 611 276 611 C210 611 186 653 186 690 L186 700 L147 700 C143 686 142 674 142 662 C142 591 199 541 276 541 L276 541 Z " />
<glyph glyph-name="Uring" unicode="&#x16e;" horiz-adv-x="735" d="M379 686 C446 686 476 732 476 773 C476 814 446 857 379 857 C312 857 282 814 282 773 C282 732 312 686 379 686 L379 686 Z M379 723 C348 723 333 747 333 772 C333 796 346 819 379 819 C411 819 426 796 426 772 C426 747 409 723 379 723 L379 723 Z M92 235 C92 52 233 -12 367 -12 C519 -12 643 74 643 239 L643 547 C643 630 714 651 714 651 L709 667 L510 667 L510 637 C587 629 588 606 588 562 L588 236 C588 105 490 39 393 39 C297 39 200 101 200 243 L200 544 C200 628 233 667 233 667 L228 671 C228 671 202 667 96 667 L21 667 L21 640 C92 625 92 615 92 567 L92 235 Z " />
<glyph glyph-name="uring" unicode="&#x16f;" horiz-adv-x="566" d="M276 536 C343 536 373 582 373 623 C373 664 343 707 276 707 C209 707 179 664 179 623 C179 582 209 536 276 536 L276 536 Z M276 573 C245 573 230 597 230 622 C230 646 243 669 276 669 C308 669 323 646 323 622 C323 597 306 573 276 573 L276 573 Z M80 122 C80 26 128 -12 199 -12 C290 -12 356 66 376 96 L376 48 C376 23 368 -6 368 -6 L371 -9 C371 -9 432 0 552 11 L555 40 L529 40 C496 40 473 40 473 97 L473 361 C473 438 482 466 482 466 L479 469 C479 469 437 454 312 431 L312 401 L341 401 C370 401 371 376 371 333 L371 119 C347 94 293 59 246 59 C208 59 182 78 182 152 L182 361 C182 438 191 466 191 466 L188 469 C188 469 147 454 18 431 L18 401 L50 401 C79 401 80 376 80 333 L80 122 Z " />
<glyph glyph-name="Uhungarumlaut" unicode="&#x170;" horiz-adv-x="735" d="M288 718 L422 847 L422 874 L314 865 L255 739 L288 718 Z M460 718 L603 847 L603 874 L495 865 L426 739 L460 718 Z M92 235 C92 52 233 -12 367 -12 C519 -12 643 74 643 239 L643 547 C643 630 714 651 714 651 L709 667 L510 667 L510 637 C587 629 588 606 588 562 L588 236 C588 105 490 39 393 39 C297 39 200 101 200 243 L200 544 C200 628 233 667 233 667 L228 671 C228 671 202 667 96 667 L21 667 L21 640 C92 625 92 615 92 567 L92 235 Z " />
<glyph glyph-name="uhungarumlaut" unicode="&#x171;" horiz-adv-x="566" d="M80 122 C80 26 128 -12 199 -12 C290 -12 356 66 376 96 L376 48 C376 23 368 -6 368 -6 L371 -9 C371 -9 432 0 552 11 L555 40 L529 40 C496 40 473 40 473 97 L473 361 C473 438 482 466 482 466 L479 469 C479 469 437 454 312 431 L312 401 L341 401 C370 401 371 376 371 333 L371 119 C347 94 293 59 246 59 C208 59 182 78 182 152 L182 361 C182 438 191 466 191 466 L188 469 C188 469 147 454 18 431 L18 401 L50 401 C79 401 80 376 80 333 L80 122 Z M201 506 L331 678 L331 705 L241 696 L166 525 L201 506 Z M350 506 L480 678 L480 705 L391 696 L315 525 L350 506 Z " />
<glyph glyph-name="Uogonek" unicode="&#x172;" horiz-adv-x="736" d="M92 235 C92 52 233 -12 367 -12 C388 -12 408 -10 428 -7 C368 -62 320 -103 320 -155 C320 -201 360 -237 420 -237 C447 -237 476 -231 504 -220 L496 -191 C496 -191 483 -193 474 -193 C444 -193 410 -174 410 -131 C410 -68 492 4 517 22 C592 61 643 134 643 239 L643 547 C643 630 714 651 714 651 L709 667 L510 667 L510 637 C587 629 588 606 588 562 L588 236 C588 105 490 39 393 39 C297 39 200 101 200 243 L200 544 C200 628 233 667 233 667 L228 671 C228 671 202 667 96 667 L21 667 L21 640 C92 625 92 615 92 567 L92 235 Z " />
<glyph glyph-name="uogonek" unicode="&#x173;" horiz-adv-x="566" d="M80 122 C80 26 128 -12 199 -12 C290 -12 356 66 376 96 L376 48 C376 24 369 -2 368 -5 C307 -61 257 -102 257 -155 C257 -201 298 -237 358 -237 C384 -237 414 -231 442 -220 L434 -191 C434 -191 422 -193 412 -193 C381 -193 348 -173 348 -132 C348 -79 403 -13 440 0 C469 3 506 7 552 11 L555 40 L529 40 C496 40 473 40 473 97 L473 361 C473 438 482 466 482 466 L479 469 C479 469 437 454 312 431 L312 401 L341 401 C370 401 371 376 371 333 L371 119 C347 94 293 59 246 59 C208 59 182 78 182 152 L182 361 C182 438 191 466 191 466 L188 469 C188 469 147 454 18 431 L18 401 L50 401 C79 401 80 376 80 333 L80 122 Z " />
<glyph glyph-name="Wcircumflex" unicode="&#x174;" horiz-adv-x="957" d="M317 744 L347 718 L477 794 L483 794 L613 718 L643 744 L511 871 L450 871 L317 744 Z M652 3 L700 -9 L875 546 C904 632 941 651 941 651 L937 667 L780 667 L780 640 C833 625 841 599 827 553 L698 146 C693 165 686 189 680 207 L550 575 C539 604 544 643 556 667 L552 671 C552 671 492 667 431 667 L372 667 L372 640 C372 640 413 628 430 585 L448 537 L324 145 C320 164 313 190 306 209 L169 575 C158 604 163 643 175 667 L171 671 C171 671 111 667 50 667 L-9 667 L-9 640 C-9 640 32 628 49 585 L279 3 L326 -9 L476 465 L652 3 Z " />
<glyph glyph-name="wcircumflex" unicode="&#x175;" horiz-adv-x="732" d="M239 525 L272 503 L379 616 L486 503 L519 525 L402 701 L357 701 L239 525 Z M197 0 L244 -13 L369 275 L478 0 L525 -13 L697 383 C717 429 731 436 731 436 L726 452 L587 452 L587 425 C626 416 656 394 638 353 L533 108 C529 127 522 151 516 168 L444 360 C426 410 446 452 446 452 L442 456 C442 456 398 452 324 452 L280 452 L280 425 C280 425 314 418 334 367 L339 353 C345 334 341 314 336 301 L253 107 C248 125 242 147 236 164 L163 360 C145 410 165 452 165 452 L161 456 C161 456 118 452 43 452 L-3 452 L-3 425 C-3 425 33 418 53 367 L197 0 Z " />
<glyph glyph-name="Ycircumflex" unicode="&#x176;" horiz-adv-x="590" d="M172 -3 L429 3 L433 33 L345 42 C345 42 350 65 350 94 L350 301 L531 592 C561 639 596 651 596 651 L592 667 L426 667 L426 640 C477 632 482 604 466 578 L323 345 C315 362 304 385 294 401 L176 595 C156 629 174 667 174 667 L170 671 C170 671 125 667 51 667 L1 667 L1 640 C1 640 30 634 54 596 L242 295 L242 94 C242 60 216 36 172 31 L172 -3 Z M139 744 L169 718 L299 794 L305 794 L435 718 L465 744 L333 871 L272 871 L139 744 Z " />
<glyph glyph-name="ycircumflex" unicode="&#x177;" horiz-adv-x="465" d="M74 -146 C32 -146 18 -169 18 -191 C18 -216 35 -237 67 -237 C171 -237 233 -63 264 8 L428 383 C445 424 462 436 462 436 L457 452 L315 452 L315 425 C352 415 386 393 370 353 L264 109 C259 127 251 151 245 168 L167 360 C156 388 156 428 168 452 L164 456 C164 456 118 452 43 452 L-4 452 L-4 425 C-4 425 32 417 53 367 L184 60 C196 30 206 4 211 -12 L189 -63 C167 -114 131 -146 74 -146 L74 -146 Z M109 525 L142 503 L249 616 L356 503 L389 525 L272 701 L227 701 L109 525 Z " />
<glyph glyph-name="Ydieresis" unicode="&#x178;" horiz-adv-x="590" d="M172 -3 L429 3 L433 33 L345 42 C345 42 350 65 350 94 L350 301 L531 592 C561 639 596 651 596 651 L592 667 L426 667 L426 640 C477 632 482 604 466 578 L323 345 C315 362 304 385 294 401 L176 595 C156 629 174 667 174 667 L170 671 C170 671 125 667 51 667 L1 667 L1 640 C1 640 30 634 54 596 L242 295 L242 94 C242 60 216 36 172 31 L172 -3 Z M122 793 C122 760 148 734 182 734 C216 734 243 760 243 793 C243 827 216 853 182 853 C148 853 122 827 122 793 L122 793 Z M361 793 C361 760 388 734 422 734 C456 734 482 760 482 793 C482 827 456 853 422 853 C388 853 361 827 361 793 L361 793 Z " />
<glyph glyph-name="Zacute" unicode="&#x179;" horiz-adv-x="608" d="M31 -4 C31 -4 56 0 95 0 L534 0 L576 186 L540 186 C489 74 467 45 385 45 L160 45 C172 60 188 79 198 95 L508 564 C541 614 558 635 558 635 L554 671 C554 671 529 667 490 667 L77 667 L51 500 L88 500 C126 603 159 622 237 622 L430 622 C418 607 403 588 393 573 L80 103 C46 51 25 32 25 32 L31 -4 Z M226 757 L242 720 L452 778 L452 805 L415 865 L410 865 L226 757 Z " />
<glyph glyph-name="zacute" unicode="&#x17a;" horiz-adv-x="445" d="M35 -4 C35 -4 60 0 103 0 L388 0 L415 136 L380 136 C380 136 358 39 261 39 L155 39 C167 54 182 73 192 89 L374 380 C400 421 408 428 408 428 L400 456 C400 456 375 452 333 452 L55 452 L37 330 L72 330 C80 357 106 414 167 414 L286 414 C274 399 259 380 250 366 L63 72 C40 35 27 24 27 24 L35 -4 Z M229 506 L377 678 L377 705 L276 696 L195 525 L229 506 Z " />
<glyph glyph-name="Zdotaccent" unicode="&#x17b;" horiz-adv-x="608" d="M321 733 C356 733 384 760 384 794 C384 829 356 855 321 855 C286 855 258 829 258 794 C258 760 286 733 321 733 L321 733 Z M31 -4 C31 -4 56 0 95 0 L534 0 L576 186 L540 186 C489 74 467 45 385 45 L160 45 C172 60 188 79 198 95 L508 564 C541 614 558 635 558 635 L554 671 C554 671 529 667 490 667 L77 667 L51 500 L88 500 C126 603 159 622 237 622 L430 622 C418 607 403 588 393 573 L80 103 C46 51 25 32 25 32 L31 -4 Z " />
<glyph glyph-name="zdotaccent" unicode="&#x17c;" horiz-adv-x="445" d="M35 -4 C35 -4 60 0 103 0 L388 0 L415 136 L380 136 C380 136 358 39 261 39 L155 39 C167 54 182 73 192 89 L374 380 C400 421 408 428 408 428 L400 456 C400 456 375 452 333 452 L55 452 L37 330 L72 330 C80 357 106 414 167 414 L286 414 C274 399 259 380 250 366 L63 72 C40 35 27 24 27 24 L35 -4 Z M241 560 C276 560 304 586 304 621 C304 655 276 682 241 682 C206 682 178 655 178 621 C178 586 206 560 241 560 L241 560 Z " />
<glyph glyph-name="Zcaron" unicode="&#x17d;" horiz-adv-x="608" d="M31 -4 C31 -4 56 0 95 0 L534 0 L576 186 L540 186 C489 74 467 45 385 45 L160 45 C172 60 188 79 198 95 L508 564 C541 614 558 635 558 635 L554 671 C554 671 529 667 490 667 L77 667 L51 500 L88 500 C126 603 159 622 237 622 L430 622 C418 607 403 588 393 573 L80 103 C46 51 25 32 25 32 L31 -4 Z M158 845 L290 718 L352 718 L484 845 L454 871 L324 794 L318 794 L188 871 L158 845 Z " />
<glyph glyph-name="zcaron" unicode="&#x17e;" horiz-adv-x="445" d="M219 523 L264 523 L381 690 L348 712 L241 607 L134 712 L101 690 L219 523 Z M35 -4 C35 -4 60 0 103 0 L388 0 L415 136 L380 136 C380 136 358 39 261 39 L155 39 C167 54 182 73 192 89 L374 380 C400 421 408 428 408 428 L400 456 C400 456 375 452 333 452 L55 452 L37 330 L72 330 C80 357 106 414 167 414 L286 414 C274 399 259 380 250 366 L63 72 C40 35 27 24 27 24 L35 -4 Z " />
<glyph glyph-name="longs" unicode="&#x17f;" horiz-adv-x="296" d="M34 -3 L292 3 L296 30 L191 39 C191 39 196 63 196 93 L196 507 C196 634 216 683 264 683 C308 683 337 624 378 624 C406 624 425 644 425 668 C425 713 359 732 307 732 C180 732 94 630 94 482 L94 453 L32 431 L32 396 L94 396 L94 93 C94 57 77 33 34 28 L34 -3 Z " />
<glyph glyph-name="florin" unicode="&#x192;" horiz-adv-x="467" d="M43 301 L174 301 C172 290 171 279 170 268 C129 -124 118 -145 87 -145 C51 -145 30 -112 -17 -112 C-41 -112 -62 -127 -62 -152 C-62 -188 -19 -199 27 -199 C164 -199 234 -87 272 268 L275 301 L419 301 L434 343 L280 343 C309 609 320 625 350 625 C385 625 406 592 453 592 C477 592 499 607 499 632 C499 668 456 679 409 679 C284 679 215 586 179 343 L43 343 L43 301 Z " />
<glyph glyph-name="Aringacute" unicode="&#x1fa;" horiz-adv-x="625" d="M-15 0 L175 0 L180 31 L95 42 L159 209 L173 219 L400 219 L455 72 C466 42 442 34 414 33 L414 -3 C414 -3 544 0 585 0 L627 0 L631 29 C597 34 580 47 558 105 L350 641 C390 653 409 684 409 718 C409 757 379 797 312 797 C245 797 215 757 215 718 C215 683 234 651 278 640 L52 77 C44 56 26 35 -15 31 L-15 0 Z M307 472 L383 266 L180 266 L285 540 C290 522 300 493 307 472 L307 472 Z M200 838 L216 801 L426 859 L426 886 L389 946 L384 946 L200 838 Z M312 672 C281 672 266 694 266 717 C266 738 279 760 312 760 C344 760 359 738 359 717 C359 694 342 672 312 672 L312 672 Z " />
<glyph glyph-name="aringacute" unicode="&#x1fb;" horiz-adv-x="469" d="M24 94 C24 31 70 -12 133 -12 C230 -12 282 78 282 78 L282 57 C282 11 314 -12 357 -12 C423 -12 471 41 471 41 L457 65 C457 65 431 46 407 46 C385 46 381 62 381 93 L381 321 C381 410 362 452 294 462 C316 479 327 505 327 529 C327 570 297 613 230 613 C163 613 133 570 133 529 C133 501 146 471 175 455 C104 438 60 405 60 405 L79 324 L117 324 C117 324 156 425 219 425 C251 425 268 401 275 368 C280 342 280 289 279 262 L245 257 C142 241 24 192 24 94 L24 94 Z M183 55 C151 55 130 79 130 115 C130 180 195 209 250 218 L279 223 L279 102 C256 83 216 55 183 55 L183 55 Z M132 621 L342 679 L342 706 L305 766 L300 766 L116 657 L132 621 Z M230 479 C199 479 184 503 184 528 C184 552 197 575 230 575 C262 575 277 552 277 528 C277 503 260 479 230 479 L230 479 Z " />
<glyph glyph-name="AEacute" unicode="&#x1fc;" horiz-adv-x="884" d="M-21 0 L166 0 L171 31 L85 42 L224 296 L241 307 L414 307 L414 93 C414 57 388 36 344 31 L344 -3 C344 -3 443 0 501 0 L814 0 L851 166 L814 166 C764 61 752 45 666 45 L517 45 C517 45 522 71 522 101 L522 296 L533 307 L697 307 L697 242 L747 242 L747 425 L707 419 L699 351 L522 351 L522 611 L533 622 L655 622 C735 622 768 603 763 500 L800 500 L831 671 C831 671 797 667 756 667 L265 667 L265 640 C327 626 341 608 324 578 L46 77 C34 57 19 35 -21 31 L-21 0 Z M376 572 C388 594 400 607 414 615 L414 351 L254 351 L376 572 Z M477 757 L493 720 L703 778 L703 805 L666 865 L661 865 L477 757 Z " />
<glyph glyph-name="aeacute" unicode="&#x1fd;" horiz-adv-x="709" d="M363 506 L511 678 L511 705 L410 696 L329 525 L363 506 Z M22 95 C22 30 73 -12 148 -12 C237 -12 292 51 313 111 C341 34 405 -12 492 -12 C619 -12 676 85 676 85 L665 110 C665 110 617 65 539 65 C427 65 383 154 380 242 L619 280 C638 283 673 295 673 295 C670 409 589 464 501 464 C444 464 400 440 367 405 C353 444 326 464 260 464 C144 464 66 405 66 405 L85 324 L123 324 C123 324 160 425 226 425 C279 425 286 363 286 294 L286 269 C139 248 22 193 22 95 L22 95 Z M181 55 C147 55 128 80 128 115 C128 188 209 217 285 229 L285 186 C285 102 227 55 181 55 L181 55 Z M483 422 C562 422 566 313 566 313 L381 284 C389 358 426 422 483 422 L483 422 Z " />
<glyph glyph-name="Oslashacute" unicode="&#x1fe;" horiz-adv-x="796" d="M40 324 C40 223 82 126 158 63 L87 -30 L147 -30 L197 36 C248 6 310 -12 383 -12 C615 -12 756 172 756 357 C756 458 714 551 634 611 L700 697 L641 697 L594 636 C544 663 482 679 411 679 C168 679 40 502 40 324 L40 324 Z M635 331 C635 184 553 32 405 32 C341 32 289 60 249 104 L576 534 C615 477 635 403 635 331 L635 331 Z M160 351 C160 496 242 635 391 635 C454 635 506 610 545 571 L219 143 C180 203 160 279 160 351 L160 351 Z M301 757 L317 720 L527 778 L527 805 L490 865 L485 865 L301 757 Z " />
<glyph glyph-name="oslashacute" unicode="&#x1ff;" horiz-adv-x="538" d="M49 -30 L106 -30 L141 17 C174 -1 214 -12 261 -12 C425 -12 505 119 505 244 C505 313 480 372 434 411 L486 482 L431 482 L397 437 C363 454 322 464 275 464 C102 464 33 334 33 216 C33 145 58 84 103 43 L49 -30 Z M393 220 C393 128 360 26 275 26 C236 26 207 46 186 77 L374 331 C387 297 392 257 393 220 L393 220 Z M145 241 C145 335 181 426 264 426 C302 426 331 406 352 376 L164 124 C151 160 145 202 145 241 L145 241 Z M259 506 L407 678 L407 705 L306 696 L225 525 L259 506 Z " />
<glyph glyph-name="Scommaaccent" unicode="&#x218;" horiz-adv-x="511" d="M193 -66 C218 -96 236 -126 236 -148 C236 -173 217 -193 178 -215 L200 -246 C258 -219 319 -168 319 -111 C319 -75 296 -43 296 -43 L203 -43 L193 -66 Z M42 91 C43 17 153 -12 241 -12 C365 -12 468 47 468 171 C468 389 157 372 157 539 C157 603 208 636 275 636 C360 636 394 575 388 500 L424 500 L456 660 C420 665 351 679 285 679 C133 679 57 601 57 498 C57 291 368 295 368 129 C368 59 309 31 249 31 C183 31 104 63 104 189 L68 189 C45 121 42 104 42 91 L42 91 Z " />
<glyph glyph-name="scommaaccent" unicode="&#x219;" horiz-adv-x="387" d="M135 -66 C160 -96 178 -126 178 -148 C178 -173 159 -193 120 -215 L142 -246 C200 -219 261 -168 261 -111 C261 -75 238 -43 238 -43 L145 -43 L135 -66 Z M34 57 C34 2 135 -12 187 -12 C283 -12 354 36 354 126 C354 284 134 263 134 367 C134 399 155 427 202 427 C226 427 286 418 288 338 L320 338 L341 446 C341 446 270 464 211 464 C108 464 45 412 45 331 C45 181 266 191 266 88 C266 49 236 25 192 25 C146 25 87 51 81 136 L49 136 C49 136 34 79 34 57 L34 57 Z " />
<glyph glyph-name="uni021A" unicode="&#x21a;" horiz-adv-x="649" d="M268 -66 C293 -96 311 -126 311 -148 C311 -173 292 -193 253 -215 L275 -246 C333 -219 394 -168 394 -111 C394 -75 371 -43 371 -43 L278 -43 L268 -66 Z M198 -3 L466 3 L470 33 L370 42 C370 42 375 66 375 96 L375 611 L386 622 L477 622 C553 622 586 602 583 500 L620 500 L651 673 C651 673 620 667 579 667 L100 667 C59 667 33 673 33 673 L2 500 L38 500 C77 602 107 622 174 622 L267 622 L267 96 C267 60 241 36 198 31 L198 -3 Z " />
<glyph glyph-name="uni021B" unicode="&#x21b;" horiz-adv-x="356" d="M144 -66 C169 -96 187 -126 187 -148 C187 -173 168 -193 129 -215 L151 -246 C209 -219 270 -168 270 -111 C270 -75 247 -43 247 -43 L154 -43 L144 -66 Z M83 119 C83 27 127 -12 199 -12 C293 -12 354 57 354 57 L340 79 C340 79 296 57 252 57 C199 57 185 90 185 148 L185 388 L196 399 L327 399 L334 452 L184 452 L184 469 C184 542 193 568 193 568 L190 571 L127 573 L90 462 C66 440 21 431 21 431 L21 396 L86 396 C86 396 83 360 83 331 L83 119 Z " />
<glyph glyph-name="circumflex" unicode="&#x2c6;" horiz-adv-x="500" d="M110 525 L143 503 L250 616 L357 503 L390 525 L273 701 L228 701 L110 525 Z " />
<glyph glyph-name="caron" unicode="&#x2c7;" horiz-adv-x="500" d="M228 523 L273 523 L390 690 L357 712 L250 607 L143 712 L110 690 L228 523 Z " />
<glyph glyph-name="breve" unicode="&#x2d8;" horiz-adv-x="500" d="M250 541 C327 541 384 591 384 662 C384 674 382 686 379 700 L340 700 L340 690 C340 653 316 611 250 611 C184 611 160 653 160 690 L160 700 L121 700 C117 686 116 674 116 662 C116 591 173 541 250 541 L250 541 Z " />
<glyph glyph-name="dotaccent" unicode="&#x2d9;" horiz-adv-x="500" d="M250 560 C285 560 313 586 313 621 C313 655 285 682 250 682 C215 682 187 655 187 621 C187 586 215 560 250 560 L250 560 Z " />
<glyph glyph-name="ring" unicode="&#x2da;" horiz-adv-x="500" d="M250 536 C317 536 347 582 347 623 C347 664 317 707 250 707 C183 707 153 664 153 623 C153 582 183 536 250 536 L250 536 Z M250 573 C219 573 204 597 204 622 C204 646 217 669 250 669 C282 669 297 646 297 622 C297 597 280 573 250 573 L250 573 Z " />
<glyph glyph-name="ogonek" unicode="&#x2db;" horiz-adv-x="500" d="M161 -155 C161 -201 201 -237 261 -237 C287 -237 318 -230 345 -220 L337 -191 C337 -191 325 -193 315 -193 C284 -193 251 -174 251 -131 C251 -68 333 4 358 22 L353 27 L294 16 C223 -51 161 -96 161 -155 L161 -155 Z " />
<glyph glyph-name="tilde" unicode="&#x2dc;" horiz-adv-x="500" d="M100 560 L141 560 C141 560 139 623 185 623 C229 623 243 550 311 550 C414 550 403 684 403 684 L362 684 C362 684 364 618 317 618 C273 618 257 690 188 690 C87 690 100 560 100 560 L100 560 Z " />
<glyph glyph-name="hungarumlaut" unicode="&#x2dd;" horiz-adv-x="500" d="M125 506 L255 678 L255 705 L165 696 L90 525 L125 506 Z M274 506 L404 678 L404 705 L315 696 L239 525 L274 506 Z " />
<glyph glyph-name="Omega" unicode="&#x3a9;" horiz-adv-x="777" d="M64 0 L320 0 L328 19 C299 71 191 212 191 371 C191 533 265 633 389 633 C512 633 587 527 587 374 C587 212 489 77 452 18 L457 0 L713 0 L750 167 L716 167 C676 92 642 87 556 87 L538 87 C591 142 706 241 706 375 C706 558 570 679 390 679 C212 679 72 553 72 372 C72 238 179 142 239 87 L221 87 C135 87 101 92 61 167 L27 167 L64 0 Z " />
<glyph glyph-name="pi" unicode="&#x3c0;" horiz-adv-x="592" d="M35 351 L59 332 C94 361 125 369 183 370 L183 349 C183 250 168 188 153 140 C131 77 47 88 47 30 C47 3 67 -12 94 -12 C197 -12 229 211 229 338 L229 359 L240 370 L351 370 L351 57 C351 9 382 -12 429 -12 C470 -12 529 14 529 14 L526 40 L488 40 C454 40 452 57 452 97 L452 359 L463 370 L553 370 L553 452 L183 452 C112 452 64 415 35 351 L35 351 Z " />
<glyph glyph-name="Wgrave" unicode="&#x1e80;" horiz-adv-x="957" d="M349 778 L559 720 L575 757 L391 865 L386 865 L349 805 L349 778 Z M652 3 L700 -9 L875 546 C904 632 941 651 941 651 L937 667 L780 667 L780 640 C833 625 841 599 827 553 L698 146 C693 165 686 189 680 207 L550 575 C539 604 544 643 556 667 L552 671 C552 671 492 667 431 667 L372 667 L372 640 C372 640 413 628 430 585 L448 537 L324 145 C320 164 313 190 306 209 L169 575 C158 604 163 643 175 667 L171 671 C171 671 111 667 50 667 L-9 667 L-9 640 C-9 640 32 628 49 585 L279 3 L326 -9 L476 465 L652 3 Z " />
<glyph glyph-name="wgrave" unicode="&#x1e81;" horiz-adv-x="732" d="M197 0 L244 -13 L369 275 L478 0 L525 -13 L697 383 C717 429 731 436 731 436 L726 452 L587 452 L587 425 C626 416 656 394 638 353 L533 108 C529 127 522 151 516 168 L444 360 C426 410 446 452 446 452 L442 456 C442 456 398 452 324 452 L280 452 L280 425 C280 425 314 418 334 367 L339 353 C345 334 341 314 336 301 L253 107 C248 125 242 147 236 164 L163 360 C145 410 165 452 165 452 L161 456 C161 456 118 452 43 452 L-3 452 L-3 425 C-3 425 33 418 53 367 L197 0 Z M241 678 L389 506 L424 525 L343 696 L241 705 L241 678 Z " />
<glyph glyph-name="Wacute" unicode="&#x1e82;" horiz-adv-x="957" d="M385 757 L401 720 L611 778 L611 805 L574 865 L569 865 L385 757 Z M652 3 L700 -9 L875 546 C904 632 941 651 941 651 L937 667 L780 667 L780 640 C833 625 841 599 827 553 L698 146 C693 165 686 189 680 207 L550 575 C539 604 544 643 556 667 L552 671 C552 671 492 667 431 667 L372 667 L372 640 C372 640 413 628 430 585 L448 537 L324 145 C320 164 313 190 306 209 L169 575 C158 604 163 643 175 667 L171 671 C171 671 111 667 50 667 L-9 667 L-9 640 C-9 640 32 628 49 585 L279 3 L326 -9 L476 465 L652 3 Z " />
<glyph glyph-name="wacute" unicode="&#x1e83;" horiz-adv-x="732" d="M368 506 L516 678 L516 705 L415 696 L334 525 L368 506 Z M197 0 L244 -13 L369 275 L478 0 L525 -13 L697 383 C717 429 731 436 731 436 L726 452 L587 452 L587 425 C626 416 656 394 638 353 L533 108 C529 127 522 151 516 168 L444 360 C426 410 446 452 446 452 L442 456 C442 456 398 452 324 452 L280 452 L280 425 C280 425 314 418 334 367 L339 353 C345 334 341 314 336 301 L253 107 C248 125 242 147 236 164 L163 360 C145 410 165 452 165 452 L161 456 C161 456 118 452 43 452 L-3 452 L-3 425 C-3 425 33 418 53 367 L197 0 Z " />
<glyph glyph-name="Wdieresis" unicode="&#x1e84;" horiz-adv-x="957" d="M652 3 L700 -9 L875 546 C904 632 941 651 941 651 L937 667 L780 667 L780 640 C833 625 841 599 827 553 L698 146 C693 165 686 189 680 207 L550 575 C539 604 544 643 556 667 L552 671 C552 671 492 667 431 667 L372 667 L372 640 C372 640 413 628 430 585 L448 537 L324 145 C320 164 313 190 306 209 L169 575 C158 604 163 643 175 667 L171 671 C171 671 111 667 50 667 L-9 667 L-9 640 C-9 640 32 628 49 585 L279 3 L326 -9 L476 465 L652 3 Z M300 793 C300 760 326 734 360 734 C394 734 421 760 421 793 C421 827 394 853 360 853 C326 853 300 827 300 793 L300 793 Z M539 793 C539 760 566 734 600 734 C634 734 660 760 660 793 C660 827 634 853 600 853 C566 853 539 827 539 793 L539 793 Z " />
<glyph glyph-name="wdieresis" unicode="&#x1e85;" horiz-adv-x="732" d="M278 561 C312 561 339 587 339 620 C339 654 312 680 278 680 C245 680 218 654 218 620 C218 587 245 561 278 561 L278 561 Z M479 561 C513 561 540 587 540 620 C540 654 513 680 479 680 C445 680 418 654 418 620 C418 587 445 561 479 561 L479 561 Z M197 0 L244 -13 L369 275 L478 0 L525 -13 L697 383 C717 429 731 436 731 436 L726 452 L587 452 L587 425 C626 416 656 394 638 353 L533 108 C529 127 522 151 516 168 L444 360 C426 410 446 452 446 452 L442 456 C442 456 398 452 324 452 L280 452 L280 425 C280 425 314 418 334 367 L339 353 C345 334 341 314 336 301 L253 107 C248 125 242 147 236 164 L163 360 C145 410 165 452 165 452 L161 456 C161 456 118 452 43 452 L-3 452 L-3 425 C-3 425 33 418 53 367 L197 0 Z " />
<glyph glyph-name="uni1E9E" unicode="&#x1e9e;" horiz-adv-x="687" d="M28 -3 L242 3 L246 33 L190 42 C190 42 195 66 195 96 L195 360 C195 544 253 636 373 636 C439 636 480 616 503 601 C503 601 496 588 486 573 L394 442 C365 401 336 373 336 373 L340 341 C426 322 552 265 552 159 C552 95 503 30 440 30 C371 30 384 107 330 107 C305 107 287 87 287 64 C287 10 378 -12 438 -12 C571 -12 651 97 651 198 C651 318 537 387 437 416 L545 570 C575 613 599 639 599 639 L589 667 C549 667 452 679 376 679 C203 679 88 575 88 343 L88 96 C88 60 66 36 28 31 L28 -3 Z " />
<glyph glyph-name="Ygrave" unicode="&#x1ef2;" horiz-adv-x="590" d="M172 -3 L429 3 L433 33 L345 42 C345 42 350 65 350 94 L350 301 L531 592 C561 639 596 651 596 651 L592 667 L426 667 L426 640 C477 632 482 604 466 578 L323 345 C315 362 304 385 294 401 L176 595 C156 629 174 667 174 667 L170 671 C170 671 125 667 51 667 L1 667 L1 640 C1 640 30 634 54 596 L242 295 L242 94 C242 60 216 36 172 31 L172 -3 Z M172 778 L382 720 L398 757 L214 865 L209 865 L172 805 L172 778 Z " />
<glyph glyph-name="ygrave" unicode="&#x1ef3;" horiz-adv-x="465" d="M74 -146 C32 -146 18 -169 18 -191 C18 -216 35 -237 67 -237 C171 -237 233 -63 264 8 L428 383 C445 424 462 436 462 436 L457 452 L315 452 L315 425 C352 415 386 393 370 353 L264 109 C259 127 251 151 245 168 L167 360 C156 388 156 428 168 452 L164 456 C164 456 118 452 43 452 L-4 452 L-4 425 C-4 425 32 417 53 367 L184 60 C196 30 206 4 211 -12 L189 -63 C167 -114 131 -146 74 -146 L74 -146 Z M111 678 L259 506 L294 525 L213 696 L111 705 L111 678 Z " />
<glyph glyph-name="thinspace" unicode="&#x2009;" horiz-adv-x="15" d="" />
<glyph glyph-name="endash" unicode="&#x2013;" horiz-adv-x="528" d="M59 224 L469 224 L469 286 L59 286 L59 224 Z " />
<glyph glyph-name="emdash" unicode="&#x2014;" horiz-adv-x="918" d="M59 224 L859 224 L859 286 L59 286 L59 224 Z " />
<glyph glyph-name="quoteleft" unicode="&#x2018;" horiz-adv-x="208" d="M40 564 C40 526 56 488 91 453 L175 498 L175 538 C127 561 106 584 106 610 C106 639 131 671 173 706 L148 734 C83 687 40 626 40 564 L40 564 Z " />
<glyph glyph-name="quoteright" unicode="&#x2019;" horiz-adv-x="207" d="M42 649 C89 626 110 603 110 577 C110 548 85 517 44 481 L68 454 C133 501 176 561 176 623 C176 661 161 699 126 734 L42 689 L42 649 Z " />
<glyph glyph-name="quotesinglbase" unicode="&#x201a;" horiz-adv-x="235" d="M51 49 C98 25 119 2 119 -24 C119 -53 94 -84 53 -120 L77 -147 C143 -100 186 -40 186 22 C186 60 170 98 135 133 L51 88 L51 49 Z " />
<glyph glyph-name="quotedblleft" unicode="&#x201c;" horiz-adv-x="382" d="M214 564 C214 526 230 488 265 453 L349 498 L349 538 C302 561 280 584 280 610 C280 639 306 671 347 706 L323 734 C257 687 214 626 214 564 L214 564 Z M40 564 C40 526 56 488 91 453 L175 498 L175 538 C127 561 106 584 106 610 C106 639 131 671 173 706 L148 734 C83 687 40 626 40 564 L40 564 Z " />
<glyph glyph-name="quotedblright" unicode="&#x201d;" horiz-adv-x="382" d="M42 649 C89 626 110 603 110 577 C110 548 85 517 44 481 L68 454 C133 501 176 561 176 623 C176 661 161 699 126 734 L42 689 L42 649 Z M216 649 C263 626 284 603 284 577 C284 548 259 517 218 481 L242 454 C308 501 351 561 351 623 C351 661 335 699 300 734 L216 689 L216 649 Z " />
<glyph glyph-name="quotedblbase" unicode="&#x201e;" horiz-adv-x="408" d="M51 49 C98 25 119 2 119 -24 C119 -53 94 -84 53 -120 L77 -147 C143 -100 186 -40 186 22 C186 60 170 98 135 133 L51 88 L51 49 Z M224 49 C271 25 292 2 292 -24 C292 -53 267 -84 226 -120 L250 -147 C316 -100 359 -40 359 22 C359 60 343 98 308 133 L224 88 L224 49 Z " />
<glyph glyph-name="dagger" unicode="&#x2020;" horiz-adv-x="521" d="M77 371 C104 371 169 391 237 397 L237 104 C237 24 210 -58 210 -89 C210 -126 239 -139 260 -139 C281 -139 310 -126 310 -89 C310 -58 285 24 283 104 L283 397 C352 391 417 371 443 371 C478 371 491 397 491 417 C491 437 478 464 443 464 C417 464 352 442 283 436 C286 512 310 587 310 617 C310 654 281 667 260 667 C239 667 210 654 210 617 C210 587 234 512 237 436 C169 442 104 464 77 464 C43 464 30 437 30 417 C30 397 43 371 77 371 L77 371 Z " />
<glyph glyph-name="daggerdbl" unicode="&#x2021;" horiz-adv-x="521" d="M77 371 C104 371 169 391 237 397 L237 138 C169 144 104 166 77 166 C43 166 30 138 30 118 C30 98 43 72 77 72 C104 72 169 92 237 99 C235 17 210 -59 210 -89 C210 -126 239 -139 260 -139 C281 -139 310 -126 310 -89 C310 -59 285 17 283 99 C352 92 417 72 443 72 C478 72 491 98 491 118 C491 138 478 166 443 166 C417 166 352 144 283 138 L283 397 C352 391 417 371 443 371 C478 371 491 397 491 417 C491 437 478 464 443 464 C417 464 352 442 283 436 C286 512 310 587 310 617 C310 654 281 667 260 667 C239 667 210 654 210 617 C210 587 233 513 237 436 C169 442 104 464 77 464 C43 464 30 437 30 417 C30 397 43 371 77 371 L77 371 Z " />
<glyph glyph-name="bullet" unicode="&#x2022;" horiz-adv-x="380" d="M190 112 C271 112 334 175 334 256 C334 337 271 400 190 400 C109 400 46 337 46 256 C46 175 109 112 190 112 L190 112 Z " />
<glyph glyph-name="ellipsis" unicode="&#x2026;" horiz-adv-x="790" d="M54 55 C54 18 84 -12 121 -12 C159 -12 189 18 189 55 C189 93 159 123 121 123 C84 123 54 93 54 55 L54 55 Z M328 55 C328 18 358 -12 395 -12 C433 -12 463 18 463 55 C463 93 433 123 395 123 C358 123 328 93 328 55 L328 55 Z M602 55 C602 18 632 -12 669 -12 C706 -12 737 18 737 55 C737 93 706 123 669 123 C632 123 602 93 602 55 L602 55 Z " />
<glyph glyph-name="perthousand" unicode="&#x2030;" horiz-adv-x="1098" d="M34 508 C34 424 104 355 190 355 C276 355 347 424 347 508 C347 593 276 661 190 661 C104 661 34 593 34 508 L34 508 Z M100 508 C100 560 141 607 190 607 C240 607 281 560 281 508 C281 456 240 410 190 410 C141 410 100 456 100 508 L100 508 Z M109 0 L169 0 L619 647 L578 675 L109 0 Z M395 141 C395 56 465 -13 551 -13 C637 -13 708 56 708 141 C708 226 637 294 551 294 C465 294 395 226 395 141 L395 141 Z M461 141 C461 193 502 239 551 239 C601 239 642 193 642 141 C642 89 601 43 551 43 C502 43 461 89 461 141 L461 141 Z M758 141 C758 56 829 -13 915 -13 C1001 -13 1072 56 1072 141 C1072 226 1001 294 915 294 C829 294 758 226 758 141 L758 141 Z M825 141 C825 193 865 239 915 239 C965 239 1006 193 1006 141 C1006 89 965 43 915 43 C865 43 825 89 825 141 L825 141 Z " />
<glyph glyph-name="guilsinglleft" unicode="&#x2039;" horiz-adv-x="323" d="M33 250 C56 234 71 221 250 40 L283 50 C167 237 156 252 156 252 C156 252 167 265 283 454 L250 464 C61 273 54 269 33 254 L33 250 Z " />
<glyph glyph-name="guilsinglright" unicode="&#x203a;" horiz-adv-x="322" d="M40 50 L72 40 C251 221 266 234 289 250 L289 254 C268 269 261 273 72 464 L40 454 C156 265 167 252 167 252 C167 252 156 237 40 50 L40 50 Z " />
<glyph glyph-name="fraction" unicode="&#x2044;" horiz-adv-x="127" d="M-97 0 L285 665 L236 683 L-158 0 L-97 0 Z " />
<glyph glyph-name="zerosuperior" unicode="&#x2070;" horiz-adv-x="372" d="M186 399 C136 399 127 496 127 580 C127 663 135 757 186 757 C237 757 244 662 244 579 C244 495 236 399 186 399 L186 399 Z M181 369 C293 369 339 481 339 589 C339 690 299 787 190 787 C78 787 33 677 33 570 C33 468 73 369 181 369 L181 369 Z " />
<glyph glyph-name="foursuperior" unicode="&#x2074;" horiz-adv-x="351" d="M16 486 L178 486 L178 439 C178 419 161 404 133 401 L133 374 L316 378 L318 404 L263 409 C263 409 265 424 265 439 L265 486 L323 486 L333 532 L265 532 L265 718 C265 764 269 788 269 788 L201 777 L9 523 L16 486 Z M58 532 L178 686 L178 532 L58 532 Z " />
<glyph glyph-name="fivesuperior" unicode="&#x2075;" horiz-adv-x="303" d="M124 369 C212 369 278 435 278 503 C278 619 117 646 82 650 L86 720 L248 720 L258 786 C258 786 229 780 205 780 L53 780 L43 577 C43 577 194 567 194 475 C194 433 163 396 133 396 C101 396 95 443 59 443 C43 443 29 433 29 417 C29 380 90 369 124 369 L124 369 Z " />
<glyph glyph-name="sixsuperior" unicode="&#x2076;" horiz-adv-x="354" d="M29 539 C29 453 79 369 180 369 C280 369 333 448 333 515 C333 574 289 635 206 635 C186 635 170 631 170 631 L173 599 C224 608 239 533 239 495 C239 447 221 398 188 398 C147 398 123 475 123 546 C123 643 167 750 284 758 L280 787 C113 787 29 654 29 539 L29 539 Z " />
<glyph glyph-name="sevensuperior" unicode="&#x2077;" horiz-adv-x="310" d="M104 369 C135 369 153 426 172 467 L278 708 C286 726 309 762 309 762 L308 785 C308 785 281 780 262 780 L36 780 L14 661 L44 661 C57 697 65 698 100 698 L234 698 L208 635 C168 541 133 485 116 459 C97 431 78 411 78 393 C78 381 86 369 104 369 L104 369 Z " />
<glyph glyph-name="eightsuperior" unicode="&#x2078;" horiz-adv-x="343" d="M164 369 C254 369 312 417 312 481 C312 535 266 572 219 606 C259 632 297 656 297 704 C297 754 250 787 179 787 C97 787 46 748 46 690 C46 641 77 606 115 576 C74 550 32 523 32 465 C32 397 105 369 164 369 L164 369 Z M168 399 C129 399 103 426 103 477 C103 511 116 536 139 557 C185 524 231 495 231 456 C231 419 203 399 168 399 L168 399 Z M125 711 C125 742 147 757 174 757 C203 757 225 739 225 702 C225 670 213 642 193 625 C157 652 125 678 125 711 L125 711 Z " />
<glyph glyph-name="ninesuperior" unicode="&#x2079;" horiz-adv-x="351" d="M71 369 C238 369 322 502 322 617 C322 703 272 787 171 787 C74 787 22 708 22 641 C22 582 65 521 146 521 C165 521 181 525 181 525 L179 557 C128 549 115 624 115 661 C115 709 134 758 163 758 C204 758 229 681 229 610 C229 513 185 406 67 398 L71 369 Z " />
<glyph glyph-name="n.sups" unicode="&#x207f;" horiz-adv-x="423" d="M29 295 L194 299 L197 321 L150 329 C150 329 153 345 153 364 L153 535 C177 557 211 569 237 569 C262 569 275 556 275 507 L275 364 C275 340 268 324 241 320 L241 295 L408 299 L411 322 L355 329 C355 329 358 345 358 364 L358 527 C358 596 323 623 272 623 C205 623 159 573 149 560 C151 621 157 632 157 632 L154 635 C154 635 98 614 20 599 L20 575 L51 575 C70 575 71 560 71 531 L71 364 C71 340 59 324 29 320 L29 295 Z " />
<glyph glyph-name="zeroinferior" unicode="&#x2080;" horiz-adv-x="372" d="M186 -90 C136 -90 127 7 127 91 C127 174 135 268 186 268 C237 268 244 173 244 90 C244 6 236 -90 186 -90 L186 -90 Z M181 -120 C293 -120 339 -8 339 100 C339 201 299 298 190 298 C78 298 33 188 33 81 C33 -21 73 -120 181 -120 L181 -120 Z " />
<glyph glyph-name="oneinferior" unicode="&#x2081;" horiz-adv-x="279" d="M30 -115 L271 -111 L274 -83 L195 -78 C195 -78 197 -63 197 -48 L197 230 C197 277 205 298 205 298 L202 302 C202 302 140 282 19 250 L25 217 L87 231 C100 234 108 237 108 204 L108 -48 C108 -64 106 -81 72 -83 L30 -85 L30 -115 Z " />
<glyph glyph-name="twoinferior" unicode="&#x2082;" horiz-adv-x="336" d="M28 -113 L295 -113 L312 6 L282 6 C271 -30 262 -48 223 -48 L110 -48 C197 39 284 120 284 199 C284 266 223 298 165 298 C80 298 24 227 24 227 L44 204 C67 222 97 234 128 234 C162 234 193 214 193 167 C193 131 179 96 155 59 C121 8 67 -40 20 -85 L28 -113 Z " />
<glyph glyph-name="threeinferior" unicode="&#x2083;" horiz-adv-x="323" d="M129 -120 C215 -120 296 -66 296 6 C296 57 242 101 171 111 C213 131 269 169 269 216 C269 274 214 298 160 298 C84 298 39 244 39 244 L58 221 C77 234 104 243 128 243 C152 243 176 232 176 199 C176 149 134 117 85 112 L85 74 C85 74 102 77 112 77 C167 77 198 43 198 -2 C198 -45 169 -93 136 -93 C93 -93 91 -46 47 -46 C31 -46 17 -55 17 -72 C17 -108 86 -120 129 -120 L129 -120 Z " />
<glyph glyph-name="fourinferior" unicode="&#x2084;" horiz-adv-x="350" d="M16 -3 L178 -3 L178 -50 C178 -70 161 -85 133 -88 L133 -115 L316 -111 L318 -85 L263 -80 C263 -80 265 -65 265 -50 L265 -3 L323 -3 L333 43 L265 43 L265 229 C265 275 269 299 269 299 L201 288 L9 34 L16 -3 Z M58 43 L178 197 L178 43 L58 43 Z " />
<glyph glyph-name="fiveinferior" unicode="&#x2085;" horiz-adv-x="304" d="M125 -120 C213 -120 279 -54 279 14 C279 130 118 157 83 161 L87 231 L249 231 L259 297 C259 297 230 291 206 291 L54 291 L44 88 C44 88 195 78 195 -14 C195 -56 164 -93 134 -93 C102 -93 96 -46 60 -46 C44 -46 30 -56 30 -72 C30 -109 91 -120 125 -120 L125 -120 Z " />
<glyph glyph-name="sixinferior" unicode="&#x2086;" horiz-adv-x="353" d="M28 50 C28 -36 78 -120 179 -120 C279 -120 332 -41 332 26 C332 85 288 146 205 146 C185 146 169 142 169 142 L172 110 C223 119 238 44 238 6 C238 -42 220 -91 187 -91 C146 -91 122 -14 122 57 C122 154 166 261 283 269 L279 298 C112 298 28 165 28 50 L28 50 Z " />
<glyph glyph-name="seveninferior" unicode="&#x2087;" horiz-adv-x="311" d="M104 -120 C135 -120 153 -63 172 -22 L278 219 C286 237 309 273 309 273 L308 296 C308 296 281 291 262 291 L36 291 L14 172 L44 172 C57 208 65 209 100 209 L234 209 L208 146 C168 52 133 -4 116 -30 C97 -58 78 -78 78 -96 C78 -108 86 -120 104 -120 L104 -120 Z " />
<glyph glyph-name="eightinferior" unicode="&#x2088;" horiz-adv-x="342" d="M163 -120 C253 -120 311 -72 311 -8 C311 46 265 83 218 117 C258 143 296 167 296 215 C296 265 249 298 178 298 C96 298 45 259 45 201 C45 152 76 117 114 87 C73 61 31 34 31 -24 C31 -92 104 -120 163 -120 L163 -120 Z M167 -90 C128 -90 102 -63 102 -12 C102 22 115 47 138 68 C184 35 230 6 230 -33 C230 -70 202 -90 167 -90 L167 -90 Z M124 222 C124 253 146 268 173 268 C202 268 224 250 224 213 C224 181 212 153 192 136 C156 163 124 189 124 222 L124 222 Z " />
<glyph glyph-name="nineinferior" unicode="&#x2089;" horiz-adv-x="349" d="M71 -120 C238 -120 322 13 322 128 C322 214 272 298 171 298 C74 298 22 219 22 152 C22 93 65 32 146 32 C165 32 181 36 181 36 L179 68 C128 60 115 135 115 172 C115 220 134 269 163 269 C204 269 229 192 229 121 C229 24 185 -83 67 -91 L71 -120 Z " />
<glyph glyph-name="Euro" unicode="&#x20ac;" horiz-adv-x="535" d="M33 198 L89 198 C110 84 190 -12 334 -12 C443 -12 504 55 504 55 L489 80 C489 80 442 50 364 50 C283 50 229 114 206 198 L409 198 L421 240 L198 240 C195 258 194 277 194 296 L194 306 L440 306 L453 348 L197 348 C209 445 256 527 341 527 C413 527 442 488 443 424 L475 424 L508 534 C508 534 426 567 348 567 C208 567 121 466 93 348 L33 348 L33 306 L85 306 C84 291 83 277 83 263 L83 240 L33 240 L33 198 Z " />
<glyph glyph-name="trademark" unicode="&#x2122;" horiz-adv-x="731" d="M99 397 L232 399 L233 420 L190 424 C190 424 192 434 192 446 L192 640 L223 640 C253 640 267 630 267 588 L289 588 L301 669 C301 669 282 667 264 667 L74 667 C55 667 38 669 38 669 L25 588 L48 588 C66 630 79 640 104 640 L130 640 L130 446 C130 432 119 421 99 420 L99 397 Z M313 397 L410 399 L412 420 L373 422 C373 422 375 433 375 444 L383 630 L467 402 L495 398 L583 633 L590 443 C590 429 579 421 559 420 L559 397 L687 399 L690 420 L651 422 C651 422 653 432 653 443 L644 616 C643 650 657 667 657 667 L655 669 C655 669 631 667 573 667 L561 667 L551 639 L496 493 L489 517 L450 630 C443 649 437 667 437 667 L436 669 C436 669 397 667 354 667 L319 667 L319 650 C347 643 351 639 350 620 L342 444 C341 431 330 421 313 420 L313 397 Z " />
<glyph glyph-name="arrowleft" unicode="&#x2190;" horiz-adv-x="631" d="M329 80 L370 92 L234 314 L560 314 L560 376 L235 376 C255 408 294 471 370 597 L329 610 C93 371 84 366 58 347 L58 342 C87 322 106 306 329 80 L329 80 Z " />
<glyph glyph-name="arrowup" unicode="&#x2191;" horiz-adv-x="631" d="M285 83 L347 83 L347 435 C378 415 442 376 568 300 L581 340 C347 571 338 584 318 612 L313 612 C294 584 282 570 51 340 L63 300 C196 380 255 417 285 436 L285 83 Z " />
<glyph glyph-name="arrowright" unicode="&#x2192;" horiz-adv-x="631" d="M71 314 L397 314 C377 282 338 219 261 92 L301 80 C525 306 544 322 573 342 L573 347 C547 366 538 372 301 610 L261 598 C341 464 377 406 396 376 L71 376 L71 314 Z " />
<glyph glyph-name="arrowdown" unicode="&#x2193;" horiz-adv-x="631" d="M313 83 L318 83 C338 110 347 123 581 354 L568 394 C434 313 376 277 347 258 L347 612 L285 612 L285 258 L63 394 L51 354 C282 125 294 110 313 83 L313 83 Z " />
<glyph glyph-name="partialdiff" unicode="&#x2202;" horiz-adv-x="507" d="M25 205 C25 100 90 -12 220 -12 C415 -12 467 242 467 363 C467 557 335 748 132 748 C106 748 52 744 52 705 C52 682 72 669 90 669 C118 669 146 699 185 699 C240 699 356 636 357 377 C334 398 294 423 230 423 C94 423 25 313 25 205 L25 205 Z M213 27 C158 27 128 87 128 154 C128 247 186 368 277 368 C309 368 338 354 356 342 C351 180 300 27 213 27 L213 27 Z " />
<glyph glyph-name="Delta" unicode="&#x2206;" horiz-adv-x="623" d="M28 0 L590 0 L590 34 L336 667 L298 667 L28 34 L28 0 Z M103 57 L293 529 L477 57 L103 57 Z " />
<glyph glyph-name="product" unicode="&#x220f;" horiz-adv-x="741" d="M30 622 L120 622 L120 5 C120 -31 93 -55 48 -60 L48 -94 L309 -88 L313 -58 L223 -49 C223 -49 228 -25 228 5 L228 611 L239 622 L513 622 L513 3 C513 -31 485 -55 441 -60 L441 -94 L702 -88 L706 -58 L616 -49 C616 -49 621 -25 621 5 L621 611 L632 622 L711 622 L711 667 L30 667 L30 622 Z " />
<glyph glyph-name="summation" unicode="&#x2211;" horiz-adv-x="614" d="M25 -61 L25 -93 C25 -93 127 -90 177 -90 L533 -90 L580 107 L543 107 C498 17 466 2 380 2 L141 2 L396 316 L178 622 L344 622 C435 622 452 594 498 504 L534 510 L508 667 L31 667 L31 642 L297 273 L25 -61 Z " />
<glyph glyph-name="minus" unicode="&#x2212;" horiz-adv-x="520" d="M36 221 L484 221 L484 283 L36 283 L36 221 Z " />
<glyph glyph-name="radical" unicode="&#x221a;" horiz-adv-x="607" d="M14 388 L150 388 L305 -36 L307 -36 L586 749 L520 749 L307 147 L197 450 L14 450 L14 388 Z " />
<glyph glyph-name="infinity" unicode="&#x221e;" horiz-adv-x="788" d="M205 88 C286 88 356 157 394 205 C432 157 502 88 583 88 C672 88 745 160 745 250 C745 340 672 412 583 412 C502 412 432 342 394 295 C356 342 286 412 205 412 C116 412 43 340 43 250 C43 160 116 88 205 88 L205 88 Z M205 144 C153 144 108 190 108 250 C108 310 153 356 205 356 C278 356 360 250 360 250 C360 250 278 144 205 144 L205 144 Z M428 250 C428 250 511 356 583 356 C635 356 680 310 680 250 C680 190 635 144 583 144 C511 144 428 250 428 250 L428 250 Z " />
<glyph glyph-name="integral" unicode="&#x222b;" horiz-adv-x="525" d="M82 -151 C59 -151 33 -164 33 -192 C33 -224 63 -237 102 -237 C271 -237 321 -98 321 281 C321 377 318 455 318 517 C318 682 334 687 361 687 C392 687 410 663 448 663 C472 663 497 676 497 706 C497 738 464 749 426 749 C274 749 213 621 213 293 C213 201 215 98 215 30 C215 -169 200 -175 168 -175 C137 -175 122 -151 82 -151 L82 -151 Z " />
<glyph glyph-name="approxequal" unicode="&#x2248;" horiz-adv-x="520" d="M53 288 C81 316 122 343 165 343 C233 343 264 273 355 273 C415 273 470 310 502 343 L467 392 C440 363 398 337 355 337 C287 337 256 407 165 407 C106 407 51 370 18 337 L53 288 Z M53 107 C81 135 122 162 165 162 C233 162 264 92 355 92 C415 92 470 129 502 162 L467 211 C440 183 398 156 355 156 C287 156 256 226 165 226 C106 226 51 189 18 156 L53 107 Z " />
<glyph glyph-name="notequal" unicode="&#x2260;" horiz-adv-x="520" d="M38 311 L268 311 L196 190 L38 190 L38 128 L159 128 L102 31 L147 4 L220 128 L481 128 L481 190 L257 190 L328 311 L481 311 L481 373 L365 373 L422 468 L377 495 L304 373 L38 373 L38 311 Z " />
<glyph glyph-name="lessequal" unicode="&#x2264;" horiz-adv-x="520" d="M32 321 L458 108 L475 170 L126 344 L475 508 L458 571 L32 367 L32 321 Z M32 0 L480 0 L480 62 L32 62 L32 0 Z " />
<glyph glyph-name="greaterequal" unicode="&#x2265;" horiz-adv-x="520" d="M62 108 L488 321 L488 367 L62 571 L44 508 L394 344 L44 170 L62 108 Z M40 0 L488 0 L488 62 L40 62 L40 0 Z " />
<glyph glyph-name="triagup" unicode="&#x25b2;" horiz-adv-x="631" d="M64 147 C139 172 492 172 567 147 L579 183 C363 442 318 536 318 536 L313 536 C313 536 268 442 52 183 L64 147 Z " />
<glyph glyph-name="triagrt" unicode="&#x25ba;" horiz-adv-x="631" d="M133 92 L169 80 C428 296 522 341 522 341 L522 346 C522 346 428 391 169 607 L133 595 C158 520 158 167 133 92 L133 92 Z " />
<glyph glyph-name="triagdn" unicode="&#x25bc;" horiz-adv-x="631" d="M313 147 L318 147 C318 147 363 241 579 500 L567 536 C492 511 139 511 64 536 L52 500 C268 241 313 147 313 147 L313 147 Z " />
<glyph glyph-name="triaglf" unicode="&#x25c4;" horiz-adv-x="631" d="M110 341 C110 341 204 296 463 80 L499 92 C474 167 474 520 499 595 L463 607 C204 391 110 346 110 346 L110 341 Z " />
<glyph glyph-name="lozenge" unicode="&#x25ca;" horiz-adv-x="506" d="M246 -38 L260 -38 L476 363 L260 753 L246 753 L29 363 L246 -38 Z M253 63 L95 364 L252 653 L410 364 L253 63 Z " />
<glyph glyph-name="Euro.uc" unicode="&#xe012;" horiz-adv-x="520" d="M19 364 L70 364 C69 350 69 336 69 322 C69 312 69 302 70 293 L19 293 L19 246 L75 246 C97 106 181 -12 332 -12 C445 -12 509 54 509 54 L495 78 C495 78 442 50 379 50 C272 50 213 132 191 246 L388 246 L403 293 L185 293 C183 312 182 331 182 351 L182 364 L425 364 L440 411 L185 411 C196 528 240 635 338 635 C414 635 443 570 435 508 L470 508 L515 647 C458 661 406 679 348 679 C194 679 103 556 77 411 L19 411 L19 364 Z " />
<glyph glyph-name="cent.uc" unicode="&#xe028;" horiz-adv-x="520" d="M242 0 L289 0 L294 112 C409 120 460 209 460 209 L447 234 C407 201 364 187 322 187 C313 187 305 188 297 189 L312 513 C349 491 367 436 409 436 C436 436 452 453 452 479 C452 526 373 552 314 558 L319 672 L272 672 L267 559 C129 550 59 439 59 331 C59 227 120 128 247 114 L242 0 Z M168 372 C168 445 201 514 265 522 L251 204 C195 234 168 300 168 372 L168 372 Z " />
<glyph glyph-name="dollar.uc" unicode="&#xe02c;" horiz-adv-x="520" d="M52 100 C52 36 139 7 229 3 L226 -99 L274 -99 L277 4 C380 12 468 68 468 188 C468 292 375 340 291 385 L299 616 C343 603 382 569 383 494 L419 494 L450 645 C415 649 371 661 300 663 L304 766 L256 766 L252 663 C128 656 55 581 55 485 C55 381 153 331 239 284 L231 46 C159 59 114 117 114 200 L78 200 C55 124 52 112 52 100 L52 100 Z M154 519 C154 576 197 621 251 622 L244 410 C193 439 154 471 154 519 L154 519 Z M369 149 C369 84 326 50 279 44 L286 257 C333 227 369 195 369 149 L369 149 Z " />
<glyph glyph-name="dotlessi.smcp" unicode="&#xe033;" horiz-adv-x="303" d="M44 -3 L272 3 L276 30 L201 38 C201 38 206 60 206 87 L206 372 C206 448 230 484 230 484 L226 488 C226 488 199 484 109 484 L43 484 L43 460 C102 446 102 437 102 394 L102 87 C102 54 81 32 44 28 L44 -3 Z " />
<glyph glyph-name="florin.uc" unicode="&#xe039;" horiz-adv-x="520" d="M70 341 L199 341 L196 313 C156 -79 148 -100 114 -100 C79 -100 57 -67 10 -67 C-14 -67 -35 -82 -35 -107 C-35 -143 8 -154 54 -154 C199 -154 267 -42 305 313 L308 341 L446 341 L461 388 L312 388 C340 653 347 670 377 670 C412 670 433 637 480 637 C504 637 526 652 526 677 C526 713 483 724 436 724 C308 724 240 631 205 388 L70 388 L70 341 Z " />
<glyph glyph-name="sterling.uc" unicode="&#xe03f;" horiz-adv-x="520" d="M33 282 L110 282 C100 125 89 86 56 52 C47 42 29 31 29 31 L42 0 C71 11 97 15 118 15 C175 15 263 -25 341 -25 C472 -25 496 83 505 172 L468 172 L461 139 C448 78 383 60 328 60 C258 60 168 89 168 89 C168 89 203 127 219 282 L387 282 L393 329 L223 329 C223 332 224 335 224 339 C234 498 223 637 294 637 C340 637 376 581 416 581 C440 581 457 601 457 623 C457 672 378 679 338 679 C146 679 124 510 114 339 C114 335 113 332 113 329 L33 329 L33 282 Z " />
<glyph glyph-name="orn.001" unicode="&#xe04e;" horiz-adv-x="714" d="M358 396 C358 396 367 409 372 428 L417 603 C424 631 381 645 358 645 C334 645 290 631 297 603 L342 428 C347 409 358 396 358 396 L358 396 Z M297 76 C290 48 334 34 358 34 C381 34 424 48 417 76 L372 251 C367 270 358 283 358 283 C358 283 347 270 342 251 L297 76 Z M407 368 C407 368 422 366 441 371 L617 419 C643 426 634 471 622 493 C610 513 577 544 555 522 L426 396 C411 382 407 368 407 368 L407 368 Z M100 419 L273 371 C292 366 307 368 307 368 C307 368 303 382 288 396 L159 523 C137 544 104 513 92 493 C80 471 71 427 100 419 L100 419 Z M426 283 L555 156 C576 136 610 166 622 186 C634 208 643 252 614 260 L441 308 C422 313 407 311 407 311 C407 311 411 297 426 283 L426 283 Z M92 186 C104 166 137 135 159 157 L288 283 C303 297 307 311 307 311 C307 311 292 313 273 308 L99 260 C71 252 80 208 92 186 L92 186 Z " />
<glyph glyph-name="orn.002" unicode="&#xe04f;" horiz-adv-x="674" d="M80 419 L248 372 C245 362 243 351 243 340 C243 328 245 317 249 307 L79 260 C51 252 60 208 72 186 C84 166 117 135 139 157 L264 279 C278 262 298 250 321 246 L277 76 C270 48 314 34 338 34 C361 34 404 48 397 76 L353 246 C375 249 396 261 410 278 L535 156 C556 136 590 166 602 186 C614 208 623 252 594 260 L427 306 C431 317 433 328 433 340 C433 351 430 362 427 372 L597 419 C623 426 614 471 602 493 C590 513 557 544 535 522 L411 401 C396 418 376 429 353 433 L397 603 C404 631 361 645 338 645 C314 645 270 631 277 603 L320 433 C298 429 278 417 264 400 L139 523 C117 544 84 513 72 493 C60 471 51 427 80 419 L80 419 Z M338 283 C307 283 282 308 282 339 C282 370 307 395 338 395 C369 395 394 370 394 339 C394 308 369 283 338 283 L338 283 Z " />
<glyph glyph-name="orn.003" unicode="&#xe050;" horiz-adv-x="912" d="M125 216 C152 216 175 233 175 262 C175 284 161 300 161 334 C161 404 221 440 274 440 C341 440 392 382 442 328 C498 268 556 206 643 206 C762 206 837 320 837 406 C837 442 824 473 787 473 C760 473 737 456 737 427 C737 405 751 389 751 355 C751 285 690 249 639 249 C574 249 521 309 474 358 C420 414 360 483 269 483 C150 483 75 370 75 283 C75 246 88 216 125 216 L125 216 Z " />
<glyph glyph-name="orn.004" unicode="&#xe051;" horiz-adv-x="912" d="M125 219 C149 219 172 236 172 262 C172 284 158 300 158 334 C158 404 221 440 274 440 C340 440 389 384 441 328 C496 268 556 206 641 206 C757 206 832 320 832 404 C832 440 819 470 787 470 C763 470 740 453 740 427 C740 405 754 389 754 355 C754 285 690 249 639 249 C578 249 528 302 475 358 C418 418 356 483 270 483 C155 483 80 370 80 284 C80 249 93 219 125 219 L125 219 Z M373 587 C395 587 411 601 445 601 C513 601 549 540 551 490 C551 475 560 466 572 466 C584 466 594 475 594 490 C594 605 479 679 396 679 C360 679 330 666 330 634 C330 610 347 587 373 587 L373 587 Z M317 201 C317 84 430 9 516 9 C551 9 581 22 581 54 C581 78 564 101 538 101 C516 101 500 87 466 87 C396 87 360 150 360 201 C360 213 350 223 338 223 C326 223 317 213 317 201 L317 201 Z " />
<glyph glyph-name="orn.005" unicode="&#xe052;" horiz-adv-x="714" d="M267 259 C267 142 380 67 466 67 C501 67 531 80 531 112 C531 136 514 159 488 159 C466 159 450 145 416 145 C346 145 310 208 310 259 C310 271 300 281 288 281 C276 281 267 271 267 259 L267 259 Z M226 529 C248 529 264 543 298 543 C368 543 404 480 404 429 C404 417 414 407 426 407 C438 407 447 417 447 429 C447 546 334 621 248 621 C213 621 183 608 183 576 C183 552 200 529 226 529 L226 529 Z M420 275 C420 263 430 254 442 254 C559 254 634 367 634 453 C634 488 621 518 589 518 C565 518 542 501 542 475 C542 453 556 437 556 403 C556 333 493 297 442 297 C430 297 420 287 420 275 L420 275 Z M125 170 C149 170 172 187 172 213 C172 235 158 251 158 285 C158 355 221 391 272 391 C284 391 294 401 294 413 C294 425 284 434 272 434 C155 434 80 321 80 235 C80 200 93 170 125 170 L125 170 Z " />
<glyph glyph-name="orn.006" unicode="&#xe053;" horiz-adv-x="830" d="M70 333 C70 143 225 -12 415 -12 C605 -12 760 143 760 333 C760 523 605 678 415 678 C225 678 70 523 70 333 L70 333 Z M116 333 C116 501 247 637 415 637 C583 637 714 501 714 333 C714 165 583 29 415 29 C247 29 116 165 116 333 L116 333 Z M325 303 C325 186 438 111 524 111 C559 111 589 124 589 156 C589 180 572 203 546 203 C524 203 508 189 474 189 C404 189 368 252 368 303 C368 315 358 325 346 325 C334 325 325 315 325 303 L325 303 Z M284 463 C306 463 322 477 356 477 C426 477 462 414 462 363 C462 351 472 341 484 341 C496 341 505 351 505 363 C505 480 392 555 306 555 C271 555 241 542 241 510 C241 486 258 463 284 463 L284 463 Z M423 264 C423 252 433 243 445 243 C562 243 637 356 637 442 C637 477 624 507 592 507 C568 507 545 490 545 464 C545 442 559 426 559 392 C559 322 496 286 445 286 C433 286 423 276 423 264 L423 264 Z M238 159 C262 159 285 176 285 202 C285 224 271 240 271 274 C271 344 334 380 385 380 C397 380 407 390 407 402 C407 414 397 423 385 423 C268 423 193 310 193 224 C193 189 206 159 238 159 L238 159 Z " />
<glyph glyph-name="orn.007" unicode="&#xe054;" horiz-adv-x="830" d="M70 333 C70 143 225 -12 415 -12 C605 -12 760 143 760 333 C760 523 605 678 415 678 C225 678 70 523 70 333 L70 333 Z M116 333 C116 501 247 637 415 637 C583 637 714 501 714 333 C714 165 583 29 415 29 C247 29 116 165 116 333 L116 333 Z M414 375 C414 375 422 384 425 398 L458 527 C463 547 432 557 414 557 C396 557 364 547 370 527 L403 398 C406 384 414 375 414 375 L414 375 Z M370 139 C366 118 396 109 414 109 C432 109 463 118 458 139 L425 268 C422 282 414 291 414 291 C414 291 406 282 403 268 L370 139 Z M225 391 L352 356 C367 352 378 354 378 354 C378 354 374 365 363 375 L269 468 C253 484 228 461 219 445 C210 430 204 398 225 391 L225 391 Z M450 312 C450 312 454 301 465 291 L559 198 C575 182 600 205 609 221 C617 236 624 269 603 275 L476 310 C461 314 450 312 450 312 L450 312 Z M219 221 C228 205 252 183 269 199 L363 291 C374 301 378 312 378 312 C378 312 367 314 352 310 L224 275 C204 269 210 236 219 221 L219 221 Z M450 354 C450 354 461 352 476 356 L604 391 C624 397 617 430 609 445 C600 461 576 483 559 467 L465 375 C454 365 450 354 450 354 L450 354 Z " />
<glyph glyph-name="yen.uc" unicode="&#xe06a;" horiz-adv-x="520" d="M69 304 L204 304 L204 241 L69 241 L69 194 L204 194 L204 96 C204 60 178 36 134 31 L134 -3 L391 3 L395 33 L307 42 C307 42 312 66 312 96 L312 194 L462 194 L462 241 L312 241 L312 304 L462 304 L462 351 L318 351 L459 603 C479 638 509 653 509 653 L505 667 L357 667 L357 640 C392 635 409 614 393 584 L283 374 C276 392 266 417 258 434 L173 606 C156 639 171 667 171 667 L167 671 C167 671 103 667 49 667 L7 667 L7 640 C7 640 36 633 54 600 L191 351 L69 351 L69 304 Z " />
<glyph glyph-name="ct" unicode="&#xe087;" horiz-adv-x="800" d="M33 216 C33 100 108 -12 248 -12 C370 -12 419 79 419 79 L408 103 C408 103 363 65 291 65 C179 65 131 152 131 251 C131 344 173 426 248 426 C318 426 321 345 374 345 C401 345 417 365 417 386 C417 422 375 444 329 455 C322 474 319 492 319 509 C319 584 391 643 464 643 C519 643 570 614 570 546 C570 493 539 450 465 431 L465 396 L530 396 C530 396 527 360 527 331 L527 119 C527 27 571 -12 643 -12 C737 -12 798 57 798 57 L784 79 C784 79 741 57 696 57 C643 57 629 90 629 148 L629 388 L640 399 L771 399 L778 452 L629 452 C629 452 633 500 633 521 C633 611 580 681 470 681 C365 681 276 602 276 505 C276 490 278 476 282 463 C274 463 265 464 258 464 C112 464 33 336 33 216 L33 216 Z " />
<glyph glyph-name="germandbls.smcp" unicode="&#xe308;" horiz-adv-x="840" d="M42 62 C42 9 129 -12 199 -12 C305 -12 379 36 379 129 C379 296 144 284 144 393 C144 432 174 456 224 456 C275 456 311 431 306 359 L341 359 L366 482 C347 484 283 496 232 496 C111 496 52 436 52 357 C52 198 287 200 287 90 C287 47 249 28 207 28 C159 28 99 51 99 147 L65 147 C47 90 42 75 42 62 L42 62 Z M461 62 C461 9 548 -12 618 -12 C724 -12 798 36 798 129 C798 296 563 284 563 393 C563 432 593 456 643 456 C694 456 730 431 725 359 L760 359 L785 482 C766 484 702 496 651 496 C530 496 471 436 471 357 C471 198 706 200 706 90 C706 47 668 28 626 28 C578 28 518 51 518 147 L484 147 C466 90 461 75 461 62 L461 62 Z " />
<glyph glyph-name="uni021B.smcp" unicode="&#xe30b;" horiz-adv-x="520" d="M201 -66 C226 -96 244 -126 244 -148 C244 -173 225 -193 186 -215 L208 -246 C266 -219 327 -168 327 -111 C327 -75 304 -43 304 -43 L211 -43 L201 -66 Z M147 -3 L385 2 L388 30 L305 38 C305 38 310 59 310 86 L310 433 L321 444 L375 444 C431 444 454 429 454 356 L487 356 L511 488 C511 488 487 484 457 484 L85 484 C55 484 35 488 35 488 L12 356 L46 356 C76 429 97 444 144 444 L205 444 L205 86 C205 54 183 32 147 28 L147 -3 Z " />
<glyph glyph-name="ordfeminine.smcp" unicode="&#xe351;" horiz-adv-x="453" d="M46 296 L166 296 L170 320 L119 328 L143 389 L155 397 L267 397 L287 344 C293 327 279 322 263 322 L263 294 C263 294 352 296 378 296 L407 296 L410 319 C390 322 381 331 366 368 L252 657 L209 648 L85 349 C80 337 70 323 46 320 L46 296 Z M192 511 C200 531 209 565 209 565 L211 565 C211 565 218 531 226 511 L255 431 L160 431 L192 511 Z " />
<glyph glyph-name="ordmasculine.smcp" unicode="&#xe352;" horiz-adv-x="477" d="M231 289 C369 289 441 394 441 488 C441 571 383 661 248 661 C108 661 38 562 38 469 C38 381 101 289 231 289 L231 289 Z M245 323 C169 323 127 401 127 485 C127 556 163 626 236 626 C315 626 352 550 352 473 C352 398 316 323 245 323 L245 323 Z " />
<glyph glyph-name="a.sups" unicode="&#xe361;" horiz-adv-x="344" d="M102 289 C157 289 196 345 196 345 C196 306 221 289 254 289 C301 289 338 329 338 329 L324 350 C324 350 303 333 289 333 C277 333 275 344 275 365 L275 522 C275 596 257 623 185 623 C99 623 44 580 44 580 L58 520 L89 520 C89 520 118 592 158 592 C191 592 194 542 194 507 L194 482 C101 472 20 434 20 364 C20 319 53 289 102 289 L102 289 Z M134 339 C114 339 103 355 103 379 C103 420 143 445 193 451 L193 370 C193 370 160 339 134 339 L134 339 Z " />
<glyph glyph-name="b.sups" unicode="&#xe362;" horiz-adv-x="382" d="M50 296 C86 296 137 289 164 289 C295 289 356 383 356 471 C356 547 309 623 226 623 C168 623 136 587 135 585 L135 704 C135 751 143 781 143 781 L140 784 C140 784 97 766 5 749 L5 725 L30 725 C53 725 53 714 53 685 L53 371 C53 337 47 299 47 299 L50 296 Z M135 330 L135 558 C135 558 158 573 187 573 C244 573 270 511 270 450 C270 378 233 323 174 323 C152 323 135 330 135 330 L135 330 Z " />
<glyph glyph-name="c.sups" unicode="&#xe363;" horiz-adv-x="328" d="M174 289 C262 289 303 355 303 355 L292 378 C292 378 257 346 209 346 C137 346 104 408 104 475 C104 534 131 591 178 591 C221 591 229 537 268 537 C289 537 301 552 301 568 C301 609 229 623 187 623 C81 623 26 535 26 449 C26 368 77 289 174 289 L174 289 Z " />
<glyph glyph-name="d.sups" unicode="&#xe364;" horiz-adv-x="399" d="M155 289 C219 289 250 338 252 340 C252 315 249 293 249 293 L252 290 C252 290 300 298 386 306 L388 329 L365 329 C345 329 331 329 331 367 L331 704 C331 751 339 781 339 781 L336 784 C336 784 293 766 201 749 L201 725 L226 725 C248 725 249 714 249 685 L249 621 C249 621 228 623 210 623 C90 623 26 529 26 441 C26 361 78 289 155 289 L155 289 Z M192 340 C138 340 111 403 111 463 C111 535 150 589 211 589 C228 589 249 585 249 555 L249 364 C249 364 225 340 192 340 L192 340 Z " />
<glyph glyph-name="e.sups" unicode="&#xe365;" horiz-adv-x="334" d="M175 289 C268 289 309 361 309 361 L298 383 C298 383 259 346 209 346 C139 346 110 399 105 457 L113 467 L267 489 C281 491 308 501 308 501 C306 584 246 623 182 623 C93 623 26 545 26 450 C26 367 76 289 175 289 L175 289 Z M106 502 C112 549 134 590 170 590 C220 590 226 517 226 517 L106 502 Z " />
<glyph glyph-name="f.sups" unicode="&#xe366;" horiz-adv-x="250" d="M28 295 L218 299 L221 322 L148 328 C148 328 151 346 151 364 L151 566 L159 574 L240 574 L246 615 L151 615 L151 640 C151 711 163 740 192 740 C220 740 241 699 274 699 C295 699 307 714 307 731 C307 766 261 779 221 779 C132 779 69 715 69 624 L69 615 L27 599 L27 572 L69 572 L69 364 C69 340 57 324 28 320 L28 295 Z " />
<glyph glyph-name="g.sups" unicode="&#xe367;" horiz-adv-x="359" d="M155 133 C242 133 339 184 339 255 C339 361 123 341 123 379 C123 385 129 395 135 402 C144 400 154 400 164 400 C240 400 307 440 307 506 C307 543 285 565 285 565 L338 565 L347 621 C347 621 315 610 293 610 L261 610 C229 610 209 623 166 623 C91 623 26 583 26 510 C26 454 64 420 113 407 C71 388 41 375 41 348 C41 323 66 309 99 299 C76 292 14 267 14 217 C14 161 91 133 155 133 L155 133 Z M262 225 C262 190 213 165 169 165 C126 165 89 187 89 227 C89 255 108 278 124 292 C186 277 262 267 262 225 L262 225 Z M167 431 C124 431 108 471 108 512 C108 553 124 593 163 593 C205 593 225 547 225 506 C225 467 209 431 167 431 L167 431 Z " />
<glyph glyph-name="h.sups" unicode="&#xe368;" horiz-adv-x="416" d="M22 295 L187 299 L189 321 L143 329 C143 329 146 343 146 364 L146 535 C169 556 202 569 231 569 C255 569 269 556 269 507 L269 364 C269 340 258 324 234 320 L234 295 L402 299 L404 322 L348 329 C348 329 351 343 351 364 L351 527 C351 596 316 623 265 623 C193 623 146 564 146 564 L146 704 C146 751 153 781 153 781 L150 784 C150 784 107 766 16 749 L16 725 L41 725 C63 725 64 714 64 685 L64 364 C64 340 52 324 22 320 L22 295 Z " />
<glyph glyph-name="i.sups" unicode="&#xe369;" horiz-adv-x="220" d="M28 295 L204 299 L206 322 L148 328 C148 328 152 345 152 364 L152 550 C152 617 159 632 159 632 L156 635 C156 635 115 619 20 599 L20 575 L51 575 C69 575 70 560 70 531 L70 364 C70 340 58 324 28 320 L28 295 Z M106 696 C130 696 153 717 153 745 C153 770 130 791 106 791 C79 791 57 770 57 745 C57 717 79 696 106 696 L106 696 Z " />
<glyph glyph-name="j.sups" unicode="&#xe36a;" horiz-adv-x="200" d="M-3 133 C92 133 146 201 146 325 L146 551 C147 619 154 634 154 634 L151 637 C151 637 109 620 14 601 L14 577 L45 577 C64 577 64 562 64 532 L64 284 C64 214 28 160 -11 155 L-3 133 Z M101 696 C125 696 148 717 148 745 C148 770 125 791 101 791 C74 791 52 770 52 745 C52 717 74 696 101 696 L101 696 Z " />
<glyph glyph-name="k.sups" unicode="&#xe36b;" horiz-adv-x="391" d="M23 295 L192 299 L195 321 L143 328 C143 328 146 343 146 364 L146 457 L158 457 L243 344 C260 322 270 295 270 295 L388 297 L390 323 C362 324 354 332 329 363 L225 496 L225 505 L289 562 C319 588 367 602 367 602 L362 616 L223 616 L223 593 C255 585 249 572 228 553 L160 493 L146 493 L146 704 C146 751 154 781 154 781 L151 784 C151 784 108 766 16 749 L16 725 L41 725 C64 725 64 714 64 685 L64 364 C64 340 53 324 23 320 L23 295 Z " />
<glyph glyph-name="l.sups" unicode="&#xe36c;" horiz-adv-x="214" d="M22 295 L198 299 L201 322 L143 328 C143 328 146 345 146 364 L146 704 C146 751 154 781 154 781 L151 784 C151 784 108 766 16 749 L16 725 L41 725 C64 725 64 714 64 685 L64 364 C64 340 52 324 22 320 L22 295 Z " />
<glyph glyph-name="m.sups" unicode="&#xe36d;" horiz-adv-x="614" d="M29 295 L193 299 L196 323 L150 329 C150 329 153 345 153 364 L153 535 C178 557 209 569 234 569 C257 569 268 556 268 507 L268 364 C268 340 260 323 234 320 L234 295 L391 299 L394 323 L347 329 C347 329 350 345 350 364 L350 516 C350 548 401 569 428 569 C454 569 467 556 467 507 L467 364 C467 340 459 323 433 320 L433 295 L601 299 L603 322 L546 329 C546 329 549 345 549 364 L549 527 C549 597 514 623 463 623 C405 623 362 581 346 559 C340 604 308 623 266 623 C199 623 149 560 149 560 C151 621 157 632 157 632 L154 635 C154 635 98 614 20 599 L20 575 L52 575 C70 575 71 560 71 531 L71 364 C71 340 59 324 29 320 L29 295 Z " />
<glyph glyph-name="o.sups" unicode="&#xe36e;" horiz-adv-x="390" d="M188 289 C306 289 364 381 364 468 C364 557 304 623 198 623 C74 623 26 531 26 449 C26 358 86 289 188 289 L188 289 Z M199 321 C139 321 114 399 114 467 C114 529 137 591 191 591 C251 591 274 517 274 451 C274 391 254 321 199 321 L199 321 Z " />
<glyph glyph-name="p.sups" unicode="&#xe36f;" horiz-adv-x="393" d="M30 134 C97 156 211 166 211 166 L213 190 L142 190 C142 190 145 207 145 228 L145 292 C145 292 163 289 181 289 C305 289 367 382 367 472 C367 552 318 623 236 623 C186 623 152 585 144 574 C145 613 151 632 151 632 L148 635 C148 635 94 615 17 599 L17 575 L47 575 C63 575 63 560 63 530 L63 228 C63 196 58 180 30 163 L30 134 Z M183 322 C166 322 145 327 145 358 L145 547 C145 547 170 571 203 571 C258 571 281 509 281 448 C281 377 248 322 183 322 L183 322 Z " />
<glyph glyph-name="q.sups" unicode="&#xe370;" horiz-adv-x="382" d="M206 134 C206 134 279 155 374 164 L377 187 L327 187 C327 187 330 205 330 224 L330 541 C330 584 336 612 336 612 L333 615 C288 615 249 623 218 623 C91 623 26 531 26 440 C26 365 72 289 161 289 C214 289 248 326 248 326 L248 226 C248 194 236 177 206 160 L206 134 Z M194 339 C139 339 111 401 111 462 C111 536 152 589 210 589 C229 589 248 582 248 582 L248 354 C248 354 225 339 194 339 L194 339 Z " />
<glyph glyph-name="r.sups" unicode="&#xe371;" horiz-adv-x="285" d="M28 295 L211 299 L213 322 L148 327 C148 327 152 346 152 364 L152 534 C152 534 181 559 201 559 C215 559 220 545 241 545 C266 545 282 562 282 583 C282 605 266 623 240 623 C203 623 167 587 148 560 C150 621 156 632 156 632 L153 635 C153 635 99 614 20 599 L20 575 L51 575 C69 575 70 560 70 531 L70 364 C70 340 58 324 28 320 L28 295 Z " />
<glyph glyph-name="s.sups" unicode="&#xe372;" horiz-adv-x="289" d="M141 289 C210 289 261 322 261 387 C261 499 109 488 109 555 C109 574 122 593 150 593 C166 593 203 587 207 532 L238 532 L253 610 C253 610 200 623 157 623 C82 623 35 586 35 528 C35 424 190 425 190 359 C190 336 170 319 143 319 C115 319 78 337 71 396 L40 396 C40 396 28 354 28 338 C28 300 102 289 141 289 L141 289 Z " />
<glyph glyph-name="t.sups" unicode="&#xe373;" horiz-adv-x="277" d="M148 289 C216 289 260 338 260 338 L249 358 C249 358 215 341 185 341 C153 341 144 363 144 402 L144 566 L151 574 L243 574 L248 615 L144 615 L144 624 C144 674 150 694 150 694 L147 698 L93 699 L65 617 C48 606 18 600 18 600 L18 572 L64 572 C64 572 62 548 62 528 L62 382 C62 317 95 289 148 289 L148 289 Z " />
<glyph glyph-name="u.sups" unicode="&#xe374;" horiz-adv-x="410" d="M146 289 C203 289 248 336 264 356 L264 333 C264 316 257 293 257 293 L261 290 C261 290 314 298 396 306 L398 329 L376 329 C356 329 342 329 342 367 L342 550 C342 609 349 626 349 626 L346 629 C346 629 302 614 219 599 L219 575 L242 575 C259 575 260 559 260 530 L260 380 C246 368 213 343 178 343 C156 343 140 356 140 404 L140 550 C140 609 147 626 147 626 L144 629 C144 629 100 614 16 599 L16 575 L40 575 C57 575 58 559 58 530 L58 384 C58 316 93 289 146 289 L146 289 Z " />
<glyph glyph-name="v.sups" unicode="&#xe375;" horiz-adv-x="329" d="M137 299 L183 286 L306 565 C320 598 330 603 330 603 L327 616 L220 616 L220 593 C250 586 268 572 256 545 L187 386 L127 551 C114 586 128 615 128 615 L124 619 C124 619 89 616 35 616 L-2 616 L-2 593 C-2 593 22 588 36 553 L137 299 Z " />
<glyph glyph-name="w.sups" unicode="&#xe376;" horiz-adv-x="517" d="M137 299 L180 286 L262 476 L331 299 L374 286 L495 565 C508 596 518 602 518 602 L516 615 L410 615 L410 593 C437 586 457 573 445 545 L380 393 L321 551 C308 584 322 615 322 615 L318 619 C318 619 283 616 233 616 L198 616 L198 593 C214 587 225 574 232 558 C239 543 242 525 235 509 L186 392 L127 551 C114 584 128 615 128 615 L124 619 C124 619 90 616 36 616 L-1 616 L-1 593 C-1 593 24 589 38 553 L137 299 Z " />
<glyph glyph-name="x.sups" unicode="&#xe377;" horiz-adv-x="358" d="M194 295 L351 299 L353 321 L322 324 L217 475 L291 567 C314 596 341 602 341 602 L337 616 L212 616 L212 593 C230 590 256 584 242 565 L196 506 L156 565 C139 590 148 616 148 616 L144 620 C144 620 105 616 52 616 L17 616 L17 592 C17 592 44 591 67 558 L142 450 L60 346 C52 337 37 322 12 320 L12 295 L140 299 L143 321 L93 328 L164 419 L214 345 C227 326 210 322 194 322 L194 295 Z " />
<glyph glyph-name="y.sups" unicode="&#xe378;" horiz-adv-x="329" d="M52 133 C121 133 161 230 185 286 L305 565 C318 594 330 603 330 603 L326 616 L219 616 L219 593 C244 586 267 571 257 545 L191 391 L128 551 C116 581 128 614 128 614 L123 618 C123 618 89 616 36 616 L-2 616 L-2 593 C-2 593 23 587 37 553 L148 293 L132 257 C115 218 94 200 58 200 C27 200 16 182 16 166 C16 148 29 133 52 133 L52 133 Z " />
<glyph glyph-name="z.sups" unicode="&#xe379;" horiz-adv-x="326" d="M29 292 C29 292 51 296 80 296 L284 296 L302 394 L271 394 C271 394 254 329 190 329 L126 329 L272 561 C287 585 297 597 297 597 L292 619 C292 619 267 616 241 616 L40 616 L28 526 L59 526 C59 526 76 583 124 583 L195 583 L47 349 C31 324 22 315 22 315 L29 292 Z " />
<glyph glyph-name="egrave.sups" unicode="&#xe37a;" horiz-adv-x="334" d="M175 289 C268 289 309 361 309 361 L298 383 C298 383 259 346 209 346 C139 346 110 399 105 457 L113 467 L267 489 C281 491 308 501 308 501 C306 584 246 623 182 623 C93 623 26 545 26 450 C26 367 76 289 175 289 L175 289 Z M106 502 C112 549 134 590 170 590 C220 590 226 517 226 517 L106 502 Z M86 705 L254 659 L266 689 L119 775 L115 775 L86 727 L86 705 Z " />
<glyph glyph-name="ampersand.001" unicode="&#xe37b;" horiz-adv-x="573" d="M32 139 C32 52 112 -12 208 -12 C288 -12 341 32 341 32 L329 57 C329 57 298 44 266 44 C197 44 134 91 134 175 C134 225 160 271 207 308 C344 83 611 -188 779 -188 C819 -188 860 -175 891 -148 L881 -121 C866 -129 848 -135 828 -135 C696 -135 430 141 299 360 C376 412 449 470 449 553 C449 628 391 679 295 679 C183 679 121 606 121 531 C121 483 146 417 187 343 C103 288 32 224 32 139 L32 139 Z M223 558 C223 607 248 640 284 640 C333 640 351 578 351 537 C351 483 320 437 277 398 C243 461 223 517 223 558 L223 558 Z " />
<glyph glyph-name="f_b" unicode="&#xe381;" horiz-adv-x="843" d="M34 -3 L287 3 L291 30 L191 39 C191 39 196 63 196 93 L196 388 L207 399 L308 399 L317 452 L196 452 L196 507 C196 634 219 683 269 683 C315 683 346 638 388 629 C389 620 389 611 389 599 L389 103 C389 43 381 9 380 3 L383 0 C419 0 487 -12 543 -12 C725 -12 810 121 810 247 C810 356 747 464 624 464 C555 464 514 429 487 395 C487 400 491 428 491 476 L491 626 C491 703 501 740 501 740 L498 743 C498 743 475 732 409 716 C382 727 345 732 313 732 C183 732 94 630 94 482 L94 453 L32 431 L32 396 L94 396 L94 93 C94 57 77 33 34 28 L34 -3 Z M491 43 L491 370 C510 382 542 397 575 397 C662 397 703 307 703 216 C703 110 646 31 553 31 C516 31 491 43 491 43 L491 43 Z " />
<glyph glyph-name="f_f_b" unicode="&#xe382;" horiz-adv-x="1139" d="M330 -3 L583 3 L587 30 L487 39 C487 39 492 63 492 93 L492 388 L503 399 L604 399 L613 452 L492 452 L492 507 C492 634 515 683 566 683 C611 683 642 638 684 629 C685 620 685 610 685 599 L685 103 C685 43 677 9 676 3 L679 0 C715 0 783 -12 839 -12 C1021 -12 1106 121 1106 247 C1106 356 1043 464 920 464 C851 464 810 429 783 395 C783 400 787 428 787 476 L787 626 C787 703 797 740 797 740 L794 743 C794 743 770 732 705 715 C678 727 641 732 609 732 C545 732 491 707 453 665 C430 694 370 705 328 705 C183 705 94 604 94 460 L94 453 L32 431 L32 396 L94 396 L94 93 C94 57 77 33 34 28 L34 -3 L260 3 L264 30 L191 39 C191 39 196 63 196 93 L196 389 L207 399 L390 399 L390 93 C390 57 373 33 330 28 L330 -3 Z M787 43 L787 370 C806 382 838 397 872 397 C958 397 999 307 999 216 C999 110 942 31 849 31 C812 31 787 43 787 43 L787 43 Z M196 483 C196 609 222 657 279 657 C335 657 366 603 411 597 C397 564 390 525 390 482 L390 450 L196 450 L196 483 Z " />
</font>
</svg>
